<?xml version="1.0" encoding="utf-8"?>
<!-- Generator: Adobe Illustrator 27.0.1, SVG Export Plug-In . SVG Version: 6.00 Build 0)  -->
<svg version="1.1" id="Layer_1" xmlns="http://www.w3.org/2000/svg" xmlns:xlink="http://www.w3.org/1999/xlink" x="0px" y="0px"
	 viewBox="0 0 800 800" style="enable-background:new 0 0 800 800;" xml:space="preserve">
<style type="text/css">
	.st0{fill-rule:evenodd;clip-rule:evenodd;fill:#010101;}
</style>
<path class="st0" d="M780.1,350.1L715,398l-139.4,77.3l-16.3-27.5l36.6-20.4l-9.2-43.8L545,399l-12.2-20.4l85.5-42.7l85.5-51.9
	l49.9-50.9l38.7,95.7L780.1,350.1z M680.4,236.1l-55,8.1l-99.7,20.4l-126.2,41.7L254,370.5l-91.6,55l-62.1,46.8l-52.9,6.1l-39.7-6.1
	L26,441.7l58-44.8l115-61.1l172-72.3l190.3-68.2l112-24.4h51.9l8.1,12.2L716,216.8L680.4,236.1z M282.5,473.3l42.7,101.8
	l-103.8,27.5L103.3,629l-35.6-7.1L30,530.3l97.7-11.2L282.5,473.3z M324.2,400l135.4-55l18.3,10.2l23.4,63.1l-96.7,22.4l19.3,35.6
	l15.3,39.7l82.4-50.9l25.4,62.1l-10.2,20.4l-130.3,50.9l-28.5-9.2L316,422.4L324.2,400z"/>
</svg>
