<?xml version="1.0" encoding="utf-8"?>
<!-- Generator: Adobe Illustrator 27.0.1, SVG Export Plug-In . SVG Version: 6.00 Build 0)  -->
<svg version="1.1" id="Layer_1" xmlns="http://www.w3.org/2000/svg" xmlns:xlink="http://www.w3.org/1999/xlink" x="0px" y="0px"
	 viewBox="0 0 800 800" style="enable-background:new 0 0 800 800;" xml:space="preserve">
<style type="text/css">
	.st0{fill-rule:evenodd;clip-rule:evenodd;fill:#010101;}
</style>
<path class="st0" d="M767.8,508.2c13,0,23.6,8.5,23.6,21.5v30.6c0,6-10.6,16.6-23.6,16.6h-94.3v49.5c0,26-13.6,47.2-47.2,47.2h-49.5
	v94.3c0,13-10.6,23.6-23.6,23.6h-23.6c-13,0-23.6-10.6-23.6-23.6v-94.3h-58.4v94.3c0,13-22.9,23.6-35.9,23.6h-16.2
	c-20.4,0-31-10.6-31-23.6v-94.3h-70.7v94.3c0,13-10.6,23.6-23.6,23.6h-23.6c-13,0-23.6-10.6-23.6-23.6v-94.3h-49.5
	c-26,0-47.2-21.1-47.2-47.2v-49.5H32.2c-13,0-23.6-10.6-23.6-16.6v-30.6c0-13,10.6-21.5,23.6-21.5h94.3v-72.8H32.2
	c-13,0-23.6-10.6-23.6-23.6v-23.6c0-13,10.6-23.6,23.6-23.6h94.3v-70.7H32.2c-13,0-23.6-10.6-23.6-23.6v-23.6
	c0-13,10.6-23.6,23.6-23.6h94.3v-49.5c0-26,21.1-47.2,47.2-47.2h49.5V32.2c0-13,10.6-23.6,23.6-23.6h23.6c13,0,23.6,10.6,23.6,23.6
	v94.3h70.7V32.2c0-13,10.6-23.6,31-23.6h16.2c13,0,35.9,10.6,35.9,23.6v94.3h58.4V32.2c0-13,10.6-23.6,23.6-23.6h23.6
	c13,0,23.6,10.6,23.6,23.6v94.3h49.5c33.6,0,47.2,21.1,47.2,47.2v49.5h94.3c13,0,23.6,10.6,23.6,23.6v23.6c0,13-10.6,23.6-23.6,23.6
	h-94.3v70.7h94.3c13,0,23.6,10.6,23.6,23.6v23.6c0,13-10.6,23.6-23.6,23.6h-94.3v72.8H767.8z M613.4,213.5c0-14.8-12-26.8-26.8-26.8
	h-373c-14.8,0-15.7,12-15.7,26.8v373c0,14.8,0.8,26.8,15.7,26.8h373c14.8,0,26.8-12,26.8-26.8V213.5z M516.9,265.8h55.3V534h-55.3
	V265.8z M411,478.7h-96.9L295.7,534H237l99.8-268.2h56.8L488.4,534h-58.7L411,478.7z M362.4,333.6L329.1,434h67L362.4,333.6z"/>
</svg>
