<?xml version="1.0" encoding="utf-8"?>
<!-- Generator: Adobe Illustrator 27.0.1, SVG Export Plug-In . SVG Version: 6.00 Build 0)  -->
<svg version="1.1" id="Layer_1" xmlns="http://www.w3.org/2000/svg" xmlns:xlink="http://www.w3.org/1999/xlink" x="0px" y="0px"
	 viewBox="0 0 800 800" style="enable-background:new 0 0 800 800;" xml:space="preserve">
<style type="text/css">
	.st0{fill-rule:evenodd;clip-rule:evenodd;fill:#010101;}
</style>
<path class="st0" d="M723.6,636l61.2,51.8l-54.6,50.1l-56,51l-49.4-70.6l-51.1-55.9l-87.8,81l-56.3-40.5l51.8-69.8L69.7,217
	l-0.9-188l4.2-20.3l185.8,39.5l382.4,436.5l72.1-45l38.3,47.3l-85.5,90L723.6,636z M614.9,331.3L451.7,147.7l87.2-99.5L724.7,8.6
	l22.5,20.3L728,217L614.9,331.3z M84.4,439.6l72,45l56.4-38.4l137.4,152.6l-34,34.4l51.8,69.8l-56.3,40.5l-87.8-81L180,716
	l-58.8,75.3l-53.7-53.4l-52.2-50.1l70.6-61.2l45.9-49.7l-85.5-90L84.4,439.6z"/>
</svg>
