<?xml version="1.0" encoding="utf-8"?>
<!-- Generator: Adobe Illustrator 27.0.1, SVG Export Plug-In . SVG Version: 6.00 Build 0)  -->
<svg version="1.1" id="Layer_1" xmlns="http://www.w3.org/2000/svg" xmlns:xlink="http://www.w3.org/1999/xlink" x="0px" y="0px"
	 viewBox="0 0 800 800" style="enable-background:new 0 0 800 800;" xml:space="preserve">
<style type="text/css">
	.st0{fill-rule:evenodd;clip-rule:evenodd;fill:#010101;}
</style>
<path class="st0" d="M751.1,536.2L713.9,618l-74.4,68.3l-46.5-37.2l40.3-31.1l43.4-53.6l24.8-73.3l15.5-86.8l-18.6-96.1l-40.3-80.6
	l-62-62l37.2-46.5l62,55.8l43.4,71.3l51.7,111.6v86.8L751.1,536.2z M644.1,357.8l3.1,96.1l-40.3,86.8l-49.6,49.2l-31-43l37.2-49.6
	l24.8-55.8L575.9,333l-49.6-80.6l27.9-40.3l24.8,18.6l46.5,55.8L644.1,357.8z M315.7,635.3l-93.5-66.4l-96.7-20.1l-106.9-9.1
	l-3-128.8l-6-112.2l5.6-46.7l106.6-8.8l88.8-2.9l96.5-81.8c0,0,103.3-86.5,109.1-84.1c5.9,2.3,46.7-29.1,46.7-29.1l-2.3,300.2
	l7,217.4v191.9l-42.1-42.3L315.7,635.3z"/>
</svg>
