<?xml version="1.0" encoding="UTF-8"?>
<svg version="1.1" viewBox="0 0 1200 1200" xmlns="http://www.w3.org/2000/svg">
 <g>
  <path d="m251.26 649.86h81.922l-39.828-174.27z"/>
  <path d="m953.93 469.4c-40.535 0-56.09 60.984-56.09 136.19 0 75.227 16.262 136.18 56.09 136.18 39.805 0 56.074-60.949 56.074-136.18 0-75.215-15.551-136.19-56.074-136.19z"/>
  <path d="m1060.8 353.59h-900c-33.145 0-60 26.855-60 60v384c0 33.145 26.855 60 60 60h900c33.145 0 60-26.855 60-60v-384c0-33.145-26.855-60-60-60zm-695.34 437.52-20.41-89.34h-106.33l-21.59 89.34h-55.488l101.89-371.05h61.32l97.777 371.05zm155.11 0.51562c-105.98 0-97.789-131.51-97.789-131.51l0.003907-236.35h52.812v235.37c0 75.457 29.074 79.98 41.172 80.027h7.5859c12.098-0.046874 41.207-4.5703 41.207-80.027l-0.003906-235.37h52.789v236.35c0.011719 0 8.207 131.51-97.777 131.51zm256.59-4.2383h-58.512v-310.84h-72.07v-52.789h201.36v52.789h-70.777zm176.8 5.1836c-71.102 0-106.02-83.699-106.02-186.98 0-103.26 35.293-187 106.02-187 70.703 0 106.01 83.723 106.01 187 0 103.29-34.922 186.98-106.01 186.98z"/>
 </g>
</svg>
