<?xml version="1.0" encoding="utf-8"?>
<!-- Generator: Adobe Illustrator 27.0.1, SVG Export Plug-In . SVG Version: 6.00 Build 0)  -->
<svg version="1.1" id="Layer_1" xmlns="http://www.w3.org/2000/svg" xmlns:xlink="http://www.w3.org/1999/xlink" x="0px" y="0px"
	 viewBox="0 0 800 800" style="enable-background:new 0 0 800 800;" xml:space="preserve">
<style type="text/css">
	.st0{clip-path:url(#SVGID_00000031186717198716192670000005318559094683143083_);}
	.st1{fill-rule:evenodd;clip-rule:evenodd;fill:#010101;}
</style>
<g>
	<defs>
		<rect id="SVGID_1_" x="104.2" y="8.6" width="591.6" height="782.7"/>
	</defs>
	<clipPath id="SVGID_00000020388828002929013710000010189650257052228992_">
		<use xlink:href="#SVGID_1_"  style="overflow:visible;"/>
	</clipPath>
	<g style="clip-path:url(#SVGID_00000020388828002929013710000010189650257052228992_);">
		<path class="st1" d="M621.7,399.2c-5.8,0-11.6,0-17.4,0c-7.2,7.5-20.7,19.9-29.3,24.7c0-0.3,0-0.6,0-0.9
			c5.7-14.5,27.7-94.6,24.7-105.2c-17.9-63.6-38.8-126.1-63.1-179.3c-0.3,0-0.6,0-0.9,0c-2.7,22.6-11.8,58.9-21,76.8
			c5.6,0,2.5,0,3.6,0c-9.9-47.9-16.7-95.1-22.8-144.5c-0.3,0.6-0.6,1.2-0.9,4.7c-8.2,16-17.4,34.9-19.1,53.8
			c-17.6,23.8-30.4,45.2-49.5,63.1c-6.2,7.3-13.1,20.2-17.3,22c2.8-38.8,7.6-76.6,11.9-110.2c-0.3-3.5-0.6-2.9-0.9-2.3
			c-7.3,10.7-15.6,20.4-22.9,31.1c-22.7,32.3-57.1,79.7-84.1,105.2c-0.3-39,0.1-78.8-0.9-117.1c-0.3,0.6-0.6,1.2-0.9,1.8
			c-21.4,43.1-47.9,89-71.3,133.6c-10.4,21-19.8,42.1-30.2,63.1c1.5,15.7,3,15.2,7.9,22.9c1.5,31.5,10.1,59.4,18.7,84.2
			c-0.3,0-0.6,0-0.9,0c-0.6-0.6-1.2-1.2-1.8-1.8c-10.7-8.5-21.3-17.1-32-25.6c-3,0-11,0-16.5,0c-0.3-22.3,0.3-45.4,0-67.7
			c-11,9.1-22.9,12.2-33.8,17.4c4.4-32.6-2.4-98.8,1.8-124.4C172.2,106.2,261.8,25.1,366.5,15c32.8-3.1,75.5-3.2,104.3,4.6
			c30.7,8.3,58.5,20.2,81.4,36.6c59.1,37.9,88.6,97.5,102.4,174.7c0.3,39,0.6,78.1,0.9,117.1c-11.3-5.2-22.6-10.4-33.8-15.5
			C621.7,356.7,621.7,377,621.7,399.2z M490,233.7c-25.7-3.6-46,5.5-62.2,24.7c2.4,4.2,4.9,6.8,9.1,9.1c18.1-11.9,34-15.9,56.7-10.1
			c-0.2,2.8,0,4.4,0,7.3c10.5,2.4,5.5-2.7,8.2-3.7c7,4.1,18.1,8.7,18.3,14.6c5.2-3.8,5.5-8.8,7.3-12.8c-2.6-5.3-6.9-9.9-11.9-13.7
			c9.5-5.7,17.7-19.2,23.8-29.3c0.3,0,0.6,0,0.9,0c8.9,27.1,17.3,60.1,25.6,86c1,14.7-7,52.6-11.9,70.4c-6.9,25-14.9,54.3-24.7,74.1
			c-6.5,13.2-103,82.9-126.2,83.2c-14.6,0.2-48-22.8-57.6-31.1c-18.6-13.4-37.2-27.7-55.8-41.2c-20.1-23.3-27.4-53.2-36.6-95.1
			c-5.1-18.7-8.5-37.4-7.4-57.6c10.1-28.7,24.8-57.3,39.4-86c0.6,0,2.3,0,8.4,0c0,0.3,0,0.6,0,0.9c-3.1,9.1-6.1,18.3-7.5,27.4
			c-2.6,2-4.8,5.8-10.1,14.6c8.1,26.5,17.7-6.4,9.1,20.6c18.7-9.8,32.2-20.4,43.9-30.7c17.9,7.2,25.7,6,36.6,11.9
			c1.8-0.9,3.9-2.4,5.5-4.6c0,0.3,0,2.4,0,2.7c-0.6,3.7-1.2,11.1-1.8,11c29.7-19.7,61-43.8,85.1-77.8c8.5-12.5,17.1-25,25.6-37.5
			c0.3,0,0.6,0,0.9,0C483.9,185.5,491.6,216,490,233.7z M380.3,197.1c0.5,3.9-6.7,51.6-8.2,58.5c-2.1-2.1-7.9-7.9-10.1-7.5
			c-6.1-6.2-7.9-6.9-14.6-9.9C357,233.2,371.8,210.4,380.3,197.1z M357.4,310.5c-8,0.5-12.6,0-15.6-6.4c0.1-6.9,1.7-8.4,3.7-8.2
			c-30.7-23.6-70.6,21.8-39.3,43.9c14.9-1.2,26.8-1.1,41.2-0.9C355.5,330.9,362.6,325.9,357.4,310.5z M467.2,286.7
			c-15.5,10.2-33.6,30.7-11.9,52.1c16.3,0.4,23.6,0.1,42.1,0C530.1,321.7,497.8,283.9,467.2,286.7z M426,391.9
			c-18.4,15.3-40.9,4.1-51.2,0.9c-4.1,1.4-4.6,3-4.4,6.4c3,8.3,6.1,3-1.1,4.6c11.4,15.9,48.2,21.6,68.6-1.8c-0.1-6.9-3-7.9-4.6-10.1
			C430.9,391.9,430.3,392.5,426,391.9z M355.6,442.2c-10.1,27.4,20.2,18.7,53.1,18.3c25.6-0.4,33.8,4.8,46.6-0.9
			c2,3.6,5.6-7.5,10.7-11.9c-7.4-2.7-8.6-5.5-9.8-8.2C424.2,439.5,363.3,438,355.6,442.2z M326.3,535.3
			c24.6,3.6,54.6,37.3,88.7,30.4c25.9-5.2,43.9-24.2,64.9-35.7c0,20.8-0.5,42.6,9.1,55.8c13.3,18.2,42.5,21.5,67.7,27.4
			c62.1,17.2,79.3,20.1,107,43.9c12.4,10.7,31.1,41.2,31.1,81.4c-11.9,2.8-27.4,9.2-39.3,13.8c-25,5.8-42.8,11.6-75,17.4
			c-108.6,21-271.1,18.5-374.1-3.7c-34.7-7.4-67.1-14.7-94.2-30.2c0-63.7,40.5-92.5,91.2-108.6c44.9-19.6,62.6-10.6,105.4-34.1
			C323.7,585,327,560.6,326.3,535.3z"/>
	</g>
</g>
</svg>
