<?xml version="1.0" encoding="utf-8"?>
<!-- Generator: Adobe Illustrator 27.0.1, SVG Export Plug-In . SVG Version: 6.00 Build 0)  -->
<svg version="1.1" id="Layer_1" xmlns="http://www.w3.org/2000/svg" xmlns:xlink="http://www.w3.org/1999/xlink" x="0px" y="0px"
	 viewBox="0 0 800 800" style="enable-background:new 0 0 800 800;" xml:space="preserve">
<style type="text/css">
	.st0{clip-path:url(#SVGID_00000155858911321608223060000004034704174375892915_);}
	.st1{fill-rule:evenodd;clip-rule:evenodd;fill:#010101;}
</style>
<g>
	<defs>
		<rect id="SVGID_1_" x="129.4" y="8.6" width="541.2" height="782.7"/>
	</defs>
	<clipPath id="SVGID_00000116202172257901956910000015006627812891568047_">
		<use xlink:href="#SVGID_1_"  style="overflow:visible;"/>
	</clipPath>
	<g style="clip-path:url(#SVGID_00000116202172257901956910000015006627812891568047_);">
		<path class="st1" d="M232.1,479c15.8,11,44.7,76.9,70.1,76.1c-5-4.3-4.6-3-1.4-6.7c0.8,0,1.7,0,2.5,0
			c22.4,9.8,21.4,24.3,33.9,30.9c2.4,9.5,11.8,19,21.3,28.4c2,4.7,3.9,16.4,5.9,14.2c5,2.5,10,5,16.9,7.5c-2.4,0.8-2.9,1.7-3.5,2.5
			c-24.8,15.4-48.8,27.1-68.6,39.3c-42.7-7.5-58.5-53.4-66.9-78.6c-5.6-7.2-11.2-14.5-16.7-21.7c-13.8-22.7-19.6-63.8-2.5-88.7
			C225.1,481.5,235.1,479.8,232.1,479z M602.8,368.9c-5.3,0-10.6,0-15.9,0c-1.3,5.5-19.3,15.7-25.9,19c0-0.3,0-0.6,0-0.8
			c5.2-13.3,24.3-82.5,21.7-88c-15.8-76.8-43.4-130.6-57.7-170.4c-0.3,0-0.6,0-0.8,0c-2.5,20.6-12.1,59.5-11.9,70.3
			c-2.8,0-5.6-2.5-8.2-2.5c-5.6-43.2-11.2-86.4-16.7-129.6c-0.3,3.2-0.6,1.1-0.8,1.7c-7.5,17.3-16.7,36.2-24.3,53.5
			c-10.1,21.8-20.4,39.1-38.5,56.9c-5.5,6.8-12.6,15.4-16.4,19.2c1.9-34.8,6.6-69.7,11.4-104.5c-0.3,0.6-0.6,1.1-0.8,1.7
			c-6.7,9.8-10.5,19.5-20.1,29.3c-22.4,29.9-54.2,74.4-77.8,95.3c-0.3-30.9-0.6-71.4-0.8-107.1c-0.3,0.6-0.6,1.1-0.8,1.7
			c-21.5,40.7-43,81.4-64.4,122.1c-9.5,19.2-19,38.5-28.5,57.7c1.4,7,2.8,13.9,5.9,21c3.3,29.8,11.9,55,18.4,79.8
			c-0.3,0-0.6,0-0.8,0c-0.6-3.6-1.1-4.1-1.7-4.7c-9.8-7.8-19.5-15.6-29.3-21.5c-3.1,0-10,0-15.1,0c-0.3-22.3-0.6-42.6-0.8-63
			c-10,4.7-20.1,9.5-30.1,14.2c3.8-28.6-1.3-96.2,1.7-112.9C193.2,98.3,269.9,27.2,369.3,15.7c30-3.5,69.1-3,95.4,4.2
			c28.1,7.6,53.5,18.5,74.5,33.5c53.5,34.7,81,93.7,93.7,159.7c0.3,35.7,0.6,71.4,0.8,107.1c-10.3-4.7-13.5-9.5-31-14.2
			C602.8,326.2,602.8,346.6,602.8,368.9z M473.9,147.8c1.5,8.7,11.2,81.5,11.7,97c-28.4,17.3-58.4,20.5-60.2,23.4
			c-1.3,2.3-1.9,6.7-0.8,9.2c0.6,1.1,1.1,2.2,1.7,3.3c29.1,9.1,90.7-16.6,85.4-40.1c-2.4-4.9-3.6-5-8.4-7.5
			c3.9-3.9,7.8-6.5,11.7-11.7c4.2-6.1,8.4-6.6,12.6-18.4c0.3,0,0.6,0,0.8,0c7,26.3,22.8,65.2,24.3,82c1.3,16-26,117.8-36.8,136.1
			c-11.7,11.6-32.4,21.5-48.5,32.8c-10.2,7.2-52.2,39.5-67.8,36c-23.7-5.4-98.5-59.9-109.6-78.6c-11-18.6-15.1-42.2-21.8-64.4
			c-3.6-11.9-13.9-56.8-9.6-56.5c9.6-32.4,23-58.6,36.4-84.8c0.6,0,7.7,0,7.3,0c0.4,18.1-6.7,36.2-7.3,54.4c2.5-0.5,7.6-2.1,8.4-1.7
			c10.8,6.1,39.6,31.4,79.5,22.6c0.3-0.8,1.4-3.3,1.7-4.2c-0.6-2.8-1.1-5.6-1.7-8.4c-15-6.5-47.4-11.8-58.6-23.4
			c0.8-1.1,1.7,4.8,2.5-3.3c22.3-14.5,37.5-38.5,54.4-56.9c0.3,0,0.6,0,0.8,0c-3.3,23.4-6.7,46.8-10,70.3
			C411.7,229.3,449,190.2,473.9,147.8z M328.4,282.4c-22.8,6.8-42.6,15.6-46.1,41c0.5,0,1.1,0,1.7,0c29.6,0.6,59.1,1.1,88.7,5
			c2.3-11.9-2.7-20.6-5-20.7C351.8,294.7,337.5,288.6,328.4,282.4z M484,282.4c-11.2,7-39.1,14.6-43.5,19.2
			c-1.4,2.2-8.8,19.4-3.3,26.7c29.6-3.9,63.6-4.4,88.7-5C523.8,302.4,502.7,285.4,484,282.4z M377.7,360.2c-1.4,1.9-2.8,3.9-4.2,5.9
			c0.3,8.4,0.6,2.8,0.8,4.2c11.5,15,46,19.2,61.9-0.8c0.3-1.4,0.6-2.8,0.8-4.2c-1.4-1.7-2.8-3.3-4.2-5c-12.7,0.6-17.7,10.5-32.6,7.5
			C391.7,366,393.9,360.7,377.7,360.2z M361.7,405.4c-8.8,1.1-10.2,2.2-11.6,6.9c0-1.1,0,1.4,0,3.9c6.1,12.7,111.5,12.9,110.5,0
			c0,3.7,0-4.7,0-6.7c-1.1-1.4-2.2-2.8-3.3-4.2C422.9,405.4,388.6,405.4,361.7,405.4z M569.3,479.8c3.6,1.4,7.2,2.8,10.9,10.8
			c11.8,16.1,11.8,54-4.2,80.4c-6.1,8.4-12.3,16.7-18.4,25.1c-4.7,17.4-18.5,51.9-40.2,65.2c-18.3,11.2-39.7,16.6-69.5,21.7
			c-5.9,7.9-11.7,1.7-17.6,2.5c-6.7,14-13.4,13.4-20.1,20.1c-32.6,26.2-58.7,62.1-95.4,83.6c-24.9-15.6-44.5-41.4-47.8-66.9
			c32.3-24.2,69.6-47.7,108-70.3c12.3-6.7,24.5-13.4,36.8-20.1c8.4-3.4,19.5-3.9,25.1-10c1.9,2.2,3.9-9.5,5.9-14.2
			c8.4-8.1,16.7-15.3,25.1-21.2c12.4-18.8,7.7-21.3,30.1-39c1.4,0.3,2.8,0.6,4.2,0.8c1.3,2.9,5.4,5.2,5,6.7
			C531.3,543.4,546.6,499.2,569.3,479.8z M332.5,484.8c20.6,8.4,44.6,34.6,71.1,34.3c24.3-0.3,50.3-22.1,69.5-32.6
			c0.3,10.3,0.6,20.6,0.8,30.9c1.6,8.4,3.6,14.9,10,21.7c-19.5,12-57.3,81.6-84.5,78.6c-22.4-10.8-29.8-18.5-50.2-41.8
			c-14.3-16.3-12.1-22-28.5-35.1C332,531.8,332.7,505,332.5,484.8z M589.4,574.3c32.5,12.2,63.6,28.5,74.5,61.9
			c4,12.2,6.4,21.3,5.9,36c-10.6,16.2-89.4,31.4-119.7,40.9c-11.7-12.5-23.4-20-35.1-27.5c0.3-0.5,0.6-1.1,0.8,5.4
			c37.7-25,49.8-70.3,58.6-94.9C576.4,590.4,586.2,584.2,589.4,574.3z M212,576c10.8,12.5,21,42.3,30.1,60.2
			c6.9,13.6,17.1,32.6,33.8,41c0.5,2.8,5.5,5.6,10.6,8.4c-0.6,0-1.1,0-1.7,0c-33.7,25.8-35.5,21.9-48.4,19.4
			c-47-9.2-96.6-25-99.7-30.3c-5.1-8.5,3-28.5,5-35.1C153.6,601.7,184.8,585.5,212,576z M493.2,699.6c11.8-0.9,32.6,13.9,45.2,22.8
			c-7.5,27.2-26,48.3-51.9,66.9c-34.1-23.6-49.8-41.8-72.8-62.7c2.2-2.2,19.5-21.2,21.8-23.4C444.3,701.9,468.6,701.7,493.2,699.6z"
			/>
	</g>
</g>
</svg>
