<?xml version="1.0" encoding="utf-8"?>
<!-- Generator: Adobe Illustrator 27.0.1, SVG Export Plug-In . SVG Version: 6.00 Build 0)  -->
<svg version="1.1" id="Layer_1" xmlns="http://www.w3.org/2000/svg" xmlns:xlink="http://www.w3.org/1999/xlink" x="0px" y="0px"
	 viewBox="0 0 800 800" style="enable-background:new 0 0 800 800;" xml:space="preserve">
<style type="text/css">
	.st0{clip-path:url(#SVGID_00000050649792274731853940000006050648938902515081_);}
	.st1{fill-rule:evenodd;clip-rule:evenodd;fill:#010101;}
</style>
<g>
	<defs>
		<rect id="SVGID_1_" x="140.4" y="8.6" width="519.1" height="782.7"/>
	</defs>
	<clipPath id="SVGID_00000140734484148535939910000009637061176023504007_">
		<use xlink:href="#SVGID_1_"  style="overflow:visible;"/>
	</clipPath>
	<g style="clip-path:url(#SVGID_00000140734484148535939910000009637061176023504007_);">
		<path class="st1" d="M594.5,352c-5.1,0-10.2,0-15.3,0c-5.3,6.7-16.6,16.9-24.9,20.1c0-0.3,0-0.5,0-0.8c5-12.7,23.3-78.9,20.9-87.6
			c-11.7-59.9-38.5-119.4-55.4-160.5c-0.3,0-0.5,0-0.8,0c-2.4,19.8-6.1,55.2-11.3,67.4c-2.7,0-5.4-2.4-7.9-2.4
			c-5.4-41.5-10.7-76.4-16.1-124.4c-0.3,0.5-0.5,3.4-0.8,1.6c-7.2,16.6-15.3,33.2-17.2,49.8c-15,20.9-28.6,38.3-43,55.4
			c-5.4,11.7-8.6,15.6-15.6,19.3c1.7-33.4,7.2-66.8,10.8-100.4c-0.3,0.5-0.5,1.1-0.8,1.6c-6.4,9.4-10,18.7-19.3,28.1
			c-20,28.4-52.9,70.6-74.6,92.3c-0.3-34.3-0.5-69.3-0.8-103.6c-0.3,0.5-0.5,1.1-0.8,1.6c-20.6,39.1-41.2,78.2-61.8,117.2
			c-9.1,18.5-18.2,36.9-27.3,55.4c1.3,12.6,2.7,13.4,6.7,20.1c2.6,27.5,9.2,52.8,16.5,78.6c-0.3,0-0.5,0-0.8,0
			c-0.5-5.3-1.1-5.8-1.6-6.3c-9.4-7.5-18.7-15-28.1-22.5c-2.8,0-9.6,0-14.4,0c-0.3-19.5-0.5-32.1-0.8-58.6
			c-9.6,4.6-19.3,9.1-28.9,13.6c3.9-30.7-1.6-95.2,1.6-108.4C210.8,84,269.7,28.4,370.6,14.8c28.7-3.9,66.3-2.8,91.5,4
			c26.9,7.3,51.3,17.8,71.4,32.1c51.3,33.3,77.7,86.3,89.9,153.4c0.3,34.3,0.5,73.6,0.8,102.8c-9.9-4.5-13-9.1-29.7-13.6
			C594.5,319.9,594.5,332.5,594.5,352z M470.1,141.6c1.9,6.1,10.9,67.7,9.6,75.5c-18.7,3.3-52,35.4-53,51.4
			c3.7,1.6,4.1,2.8,13.9,3.2c6.1-9.1,23.4-23.9,38.2-30.2c9-5.6,23.3-10.2,27.3-14.8c-1.1-2.7-2.1-5.4-3.2-8
			c8.5-6.5,16.5-15.3,19.3-24.1c0.3,0,0.5,0,0.8,0c7.6,24.5,19.3,55.6,23.3,78.7c2.4,8.6-25,113.1-35.3,128.4
			c-10.4,13.4-31.1,29.3-46.5,33.8c-9.8,6.9-50.1,37.9-65,34.5c-22.7-5.1-94.5-57.5-105.1-75.5c-10.5-11.6-14.5-40.5-20.9-61.8
			c-3.5-11.5-7.6-49.1-9-57.6c9-27.8,22.7-54.6,35.5-79.7c3.8,2.4-0.5,20.1,0,20.1c-1.4,0.6-3,4.2-8,9.6c1.2,4.4,3,5.2,7.2,6.4
			c0,5.9,0,11.8,0,17.7c8.1-2.4,13.5-5.4,20.1-7.7c16.4,7.6,30,18.5,43.3,30.2c5.6-0.4,7.9-2.4,10.4-5.6
			c-4-19.2-20.5-31.5-35.3-40.1c1.3,2.3,5.2-3.2,4-4.8c15.9-11.6,29-30.3,40.1-38.8c0.3,0,0.5,0,0.8,0c-3.2,17.2-6.4,39.6-9.6,62.1
			C411.2,219.9,446.7,182.5,470.1,141.6z M297.6,253.2c-0.8,2.9-1.6,5.9-2.4,8.8c2.8,3.2,3.6,3.4,11.2,8
			c-8.4,9.9-10.5,19.2-4.8,33.7c19.3-2,37,0,49,4.8c4-3.6,7.1-8.5,8-16.9c-0.3-0.8,9.2,2.1,6.8-4.8
			C345,275.5,322.5,259.6,297.6,253.2z M498.2,253.2c-22.5,16.7-47.5,18.9-65,38.8c0,2.7,0-2.9,0-2.6c1.1,0.9,6.3,2.8,6.3,2.8
			c0.3,5.6,6.4,15.8,8.2,16.4c5.8-2.1,15.3-5.3,21.7-5.6c9.1,0.3,18.2,0.5,27.3,0.8c5.2-12.7,3.2-24.7-4.8-32.9
			c2.2-0.5,4.8-1.1,7.6-1.6c-3.3-2.4,5.2-2.6,3.7-7.2c-0.5-2.7-1.1-1-1.6-8C505,253.8,499.3,253.5,498.2,253.2z M374.6,337.6
			c1.6,3-3.4,3.8-4,8.8c21.1,24,43.9,23.8,65,0c-0.6-5-1.9-5.9-4-8.8c-1.6,0,0.7,0-4.8,0c-18.8,19.5-28.6,19.3-47.4,0
			C377.8,337.6,376.2,337.6,374.6,337.6z M401.1,372.9c-11.1,4.1-25.8,0.3-34.5,5.6c-2.7,6.6-15.2,27.2-15.2,57
			c10.1,1.1,99.8-0.8,102.7-4.8c5.8-11.2-10.4-47.5-16-55.4C425.7,374.5,413.4,373.7,401.1,372.9z M449,420.3
			c-31.9,0.3-59.2,0.5-86.5,0.8c0-1.3,0-2.7,0-4c0.5-2.7,1.1-5.4,2.8-8c6.3,3.8,13.8-1.1,21.3-1.6c0.5-2.9,1.1-5.9,3.8-8.8
			c-2.4-0.3-2.7-0.5-3-0.8c-6.2,0.3-12.3,0.5-18.5,0.8c2.1-4.3,4.3-8.6,6.4-12.8c18.7-0.3,37.5-0.5,56.2-0.8
			c1.9,4.3,3.7,8.6,5.6,12.9c-10.7,0.3-21.4,0.5-32.1,0.8c-0.3,3.2,4.8,6.4,2.1,11.7c9.7,0,22.3,0,34.8,0
			C442.8,412.2,443.6,418.6,449,420.3z M335.3,465.2c19.4,8,46.8,40.4,77.8,32.9c22.6-5.4,38.6-21.2,57-31.3c0,6.7,0,16.5,0,20.1
			c-28.9,16.8-55.4,48.1-30.5,86.7c12.2,7.9,14.3,14.9,26.2,16.9c-13.1,59.3,22.7,55.3,38,93.1c-0.3,0.5-0.5,1.1-0.8,1.6
			c-23.3,1.3-46.6,6.1-69.8,4c-43.8,2.2-90.4,0.8-130-4c8.1-44.4,52.8-26.3,43.3-95.5c54.9-36,30-84.1-11.2-103.6
			C335.3,479.1,335.3,474.8,335.3,465.2z M326.5,570.4c0.3,12.9,7.3,20.1,13.4,30.5c-5.3,29-37.3,48.1-40.7,50.6
			c-2.4,7.2-4.8,14.5-7.2,21.7c-13.8,35.2-24.7,71.1-33.7,112.4c-32.8,12.6-77-15.8-86.7-36.1c7.2-11.2,14.4-22.5,21.7-33.7
			c13.7-22.3,32.7-68.2,37.7-88.3c6.5-26.1-20.4-71-16.9-97.2c7.5-8.9,47.6-41.4,57-45c8.8,2.1,17.7,4.3,26.5,6.4
			c30.4,10.7,95.8,38,41.7,79.5C335,570.9,330.7,570.7,326.5,570.4z M480.6,570.4c-0.7,0.3-8.6,0.5-12.8,0.8
			c-33.3-18.2-16.3-47.9,5.6-64.2c7.4-5.6,56.4-23.9,62.6-21.7c10.3,3.7,59.5,36.2,57,45.8c5.5,25.7-24.4,75.6-16.9,96.4
			c4.5,15.9,23.7,67.5,36.9,87.5c5.4,10.9,19.8,22.5,22.5,35.3c-10.7,19.3-28.7,30.6-52,36.1c-12.7,1.9-30.8,3.2-34.7,3.2
			c-2.1-16-4.3-26.5-6.4-36.9c-7.5-23.3-15-46.6-22.5-69.9c2.3-10.4-8-20.9-9.7-31.3c-6.2-5.5-27.9-14.1-34.5-36.9
			C471,598,480.5,587.4,480.6,570.4z M200.5,562.1c4.9,20.2,8.6,44.2,13.6,67c-3.4,9.5-10.5,30.5-16.9,36.9
			c-17-4-36.5-4.4-49.8-18.5C146.7,596,174.3,576.5,200.5,562.1z M607.4,561.6c22.1,10.3,53.3,36.1,51.4,93
			c-15.5-1-33.9,7-49.8,11.3c-5.3-12.3-10.7-24.6-16-36.9C597.7,606.5,602.6,587.3,607.4,561.6z"/>
	</g>
</g>
</svg>
