<?xml version="1.0" encoding="utf-8"?>
<!-- Generator: Adobe Illustrator 27.0.1, SVG Export Plug-In . SVG Version: 6.00 Build 0)  -->
<svg version="1.1" id="Layer_1" xmlns="http://www.w3.org/2000/svg" xmlns:xlink="http://www.w3.org/1999/xlink" x="0px" y="0px"
	 viewBox="0 0 800 800" style="enable-background:new 0 0 800 800;" xml:space="preserve">
<style type="text/css">
	.st0{fill-rule:evenodd;clip-rule:evenodd;fill:#010101;}
</style>
<path class="st0" d="M736.6,586.2c-16.3,0-25,0-33.7,0c-9,11.4-28.3,28.8-42.5,34.2c0-0.4,0-0.9,0-1.4
	c8.5-21.7,39.5-137.8,35.6-154.6c-17.2-75.2-60.3-185.4-94.5-268.2c-0.4,0-0.9,0-1.4,0c-4.1,33.8-13,85-31.5,110.9
	c-0.4,0-0.9,0-1.4,0c-7.5-70.7-18.3-141.4-27.4-207.2c-0.5-4-0.9-3.1-1.4-2.2c-12.3,28.3-24.7,56.6-37,84.9
	c-16.5,35.6-42.6,65.3-65.7,97.2c-8.9,8.5-18,23.8-31.5,30.1c7.8-53.1,15.5-114,23.3-171.1c-0.5,0.9-0.9,1.8-1.4,2.7
	c-11,16-21.9,31.9-32.9,47.9c-31.3,44.5-87.5,129.2-128.8,160.1c-0.5,0-0.9,0-1.4,0c2.2-40.8,2.7-89.2,2.7-134.1
	c-0.5-15.1-0.9-30.1-1.4-45.2c-0.5,0.9-0.9,1.8-1.4,2.7c-35.2,66.6-70.3,133.2-99,199.8c-22,31.5-37.5,72.8-53,94.4
	c2.3,11.4,4.6,22.8,6.8,34.2c10.4,44.9,24.2,84.7,32.9,125.9c-0.5,0-0.9,0-1.4,0c-0.9-0.9-1.8-1.8-2.7-2.7
	c-16-12.8-32-25.6-47.9-38.3c-8.2,0-16.4,0-24.7,0c-0.5-33.3-0.9-66.6,6.2-99.9c-24,7.8-40.4,15.5-55.8,23.3
	c-1.7-58.7-9.5-131.2,1.7-184.8c37-177.3,158.4-299.5,320.5-313.4C396,7.2,459.9,6.6,503,18.3c46,12.5,87.6,30.3,121.9,54.7
	c86.2,56.8,132.6,145.8,153.4,261.4c0.5,58.4,0.9,116.8,1.4,175.2c-16.9-7.8-33.8-15.5-43-23.3C736.6,519.6,736.6,552.9,736.6,586.2
	z M515.3,230.4c8.4,9,13.9,79,15.1,97.2c-1.8,0.5-3.7,0.9-5.5,1.4c-35.6-9.8-72.4,18.9-86.3,41.1c4.6,9.5,9.8,20.2,15.1,15.1
	c8.4-8.2,47.2-36.3,83.6-16.4c0.5,0.3-1.3,10.8,1.4,16.4c6.3-3.5,12.9-8.2,15.1-6.8c11.2,7.6,27.8,15,23.3,23.3
	c14.3-24.3,7.2-25.4-2.7-43.8c14.9-9.4,19.5-27.5,31.5-39.7c0.5,0,0.9,0,5.3,0c18.5,42.9,21.6,85.8,34.4,128.6
	c6,33-11.8,77.4-19.2,104c-10.4,37.4-16.1,78.3-34.2,109.5c-16,27.6-150,120.2-186.3,131.2c-22.2,0.4-75.9-41.7-87.9-41.6
	c-30.4-30.4-58.2-50.4-86.1-70.5c-30.1-34.9-41-91.8-54.8-142.3c-5.9-22.2-11.9-57.5-17.8-86.2C181,407.9,203,365,224.9,322.1
	c0.9,0,1.8,0,2.7,0c0,0.4,0,0.9,0,1.4c-0.4,10.9-0.9,21.9-1.4,32.9c-2.3,4.2-12.5,11.2-13.9,20.6c3.2,14.3,4.7,23.8,8.4,27.2
	c6.9-9,2.3-0.8,4.1,13.9c30.6-15.6,53.3-36.3,72.6-53.4c36.9,4.8,31.7,15.1,49.3,20.5c2.3-1.8,4.6-3.7,6.9-5.5
	c-0.9,7.8,1.5,15.5-2.7,23.3C415.6,366.4,481.2,297.3,515.3,230.4z M373.6,287.9c-3.8,5.9-15,63.9-17.2,76.6
	c-20.4-24.1-29.7-22.8-31.5-15.8c0.9,0,1.8-12.9,6.9-12.9C345.6,319.8,359.6,303.8,373.6,287.9z M282.4,417.9
	c-26.5,9.7-34.4,22-45.2,50.6c26.2,65.2,113,42,94.5-16.4c-5.5-0.9-11-1.8-13.9-2.7c-7.5-10.7-3.7-17.3,0-24.6
	C305.2,420.7,298.6,417.7,282.4,417.9z M496.1,417.9c-32.5,9.8-47.7,62-15.1,82.1c42.4,26.2,67.8-3.4,79.5-31.5
	C550.2,439.8,535.2,416.7,496.1,417.9z M435.8,575.3c-29.8,25-60.8-2.1-84.9,6.8c0,3.7,0,7.3,0,15.5c20.1,23.2,87.6,20.5,102.7-8.7
	c-1.1-3.1-3.3-8.8-6.9-13.7C443.1,575.3,439.5,575.3,435.8,575.3z M393.4,645.1c-9.1,4.4-20.9,9.7-26,17.8
	c-21.5,33.8-5.2,98.4,42.5,87.6C458.1,750.2,462.2,639.1,393.4,645.1z"/>
</svg>
