<?xml version="1.0" encoding="utf-8"?>
<!-- Generator: Adobe Illustrator 27.0.1, SVG Export Plug-In . SVG Version: 6.00 Build 0)  -->
<svg version="1.1" id="Layer_1" xmlns="http://www.w3.org/2000/svg" xmlns:xlink="http://www.w3.org/1999/xlink" x="0px" y="0px"
	 viewBox="0 0 800 800" style="enable-background:new 0 0 800 800;" xml:space="preserve">
<style type="text/css">
	.st0{clip-path:url(#SVGID_00000071522460916433433190000002894692156127042744_);}
	.st1{fill-rule:evenodd;clip-rule:evenodd;fill:#010101;}
</style>
<g>
	<defs>
		<rect id="SVGID_1_" x="27.6" y="8.6" width="744.7" height="782.7"/>
	</defs>
	<clipPath id="SVGID_00000148618950087226011630000012118358692592460213_">
		<use xlink:href="#SVGID_1_"  style="overflow:visible;"/>
	</clipPath>
	<g style="clip-path:url(#SVGID_00000148618950087226011630000012118358692592460213_);">
		<path class="st1" d="M82.4,8.6c19.9,3.3,89.5,18,103.2,28.3c4.5,12.2,3.3,50.9-10.8,60.4c-9.4,3.8-18.9,7.6-28.3,11.5
			c-3.3,26.9-8.1,43.1-33.6,48.2c5.4,67.7,2.3,135.1,12.2,199.6c3.9,23.9-1.3,45.1,6.9,65c7.7,18.7,26.5,32.1,38.2,47.4
			c20.7,27,39.6,55.7,57.3,85.6c6.1,11.7,12.2,23.5,18.3,35.2c7.6,2.8,15.3,5.6,22.9,8.4c15.8,8.9,31.6,17.8,47.4,26.8
			c8.6,6.3,26.3,27.3,42,21.4c1.5-1.1,0.5-0.1,1.5-1.5c7.4-11.5-17.9-34.6-25.2-37.5c-0.3-11.7-0.5-23.5-0.8-35.2
			c16.4,8.9,47.1,38.8,74.9,32.1c23.5-5.7,38.5-24.3,58.1-31.3c0,7.2,1.1,29.9-3.1,34.4c-9.3,10-24.8,16.6-20,35.2
			c-4.2,1.5-3.2,3.1-2.2,5.9c23.5-1.6,36.9-19.3,50.9-28.8c14.8-8.4,30.9-16.8,46.9-20c4.8-6.7,9.7-8.3,14.5-9.8
			c10.4-19.1,21.9-38.2,31.3-57.3c15.4-24.8,32.6-48.5,52.4-71.1c8.1-12.7,23.6-23.8,30.1-39.8c8.1-19.9,3.1-40.9,6.9-65
			c9.8-64.6,6.1-131.9,12.2-199.6c-25.6-5-30.1-21.2-33.6-48.2c-9.4-3.8-18.9-7.6-28.3-11.5c-14-9.6-15.4-48.2-5.3-60.4
			c9.4-11.5,36.6-15,52.7-19.1c17.4-4.5,44.9-2.7,55.8-0.8c9.5,12.9,7.6,42.6,9.2,56.6c5.4,34.6,7.4,65.1,13,100.9
			c5.3,39.2,10.7,78.5,16,117.7c0.8,18.4,1.5,36.7,2.3,55.1c3.2,21.5,5.9,60.7,0,81.8c-5.6,19.8-19.7,37.4-29.8,53.5
			c-15.8,30.6-31.6,55.6-47.4,83.3c-15.5,31.3-28.8,61.8-45.9,91c-5.2,8.9-10.3,25-19.9,29.1c0.3-5.5-0.2-15-3.1-19.9
			c-3.3,0-6.6,0-9.2,0c-1,0.5-1.3,1-1.5,1.5c-3.1,18.1-13.3,89.4-15,97.1c-26.5,10.2-55.6,9.3-79.8,13.8
			c-97.5,17.8-224.3,6.9-308.8-13c-9.9-30.6-15.5-63.8-14.8-98.6c-5.1-0.3-6.8-0.5-7.3-0.8c-4.6-1-7.4-0.3-10.7,1.5
			c-0.7,4-0.6,16.3-3.8,18.4c-4.8-7.1-9.7-14.3-10.4-21.4c-14.1-18.9-24-37.7-34-56.6c-19.3-33.3-31.6-68.6-51.2-100.9
			c-14.6-24-37-49-45.1-78c-1.3-20.9-2-60.6,0-81.8c0.5-15.5,1-31.1,1.5-46.6c6.4-38.8,7.7-80.4,16-114.1c0.3-9.3,0.5-18.7,0.8-26.6
			c4.1-25.5,8.2-51,12.2-76.5c3.9-21.9-0.2-42.2,6.9-61.2C71,15.9,77.3,12.6,82.4,8.6z M581.5,470c-4.8,0-9.7,0-14.5,0
			c-5,1.5-15.8,11.3-23.7,14.3c0-0.3,0-0.5,0-0.8c4.7-12.1,23.2-68,19.9-86.4c-12.3-51.6-37.6-101.1-52.7-149.9c-0.3,0-0.5,0-0.8,0
			c-2.3,18.9-6.3,54.8-17.6,61.9c5.6,0,3,0,0.5,0c-6.3-39.5-11.4-79-12-118.5c-4.8,1.5-5,6.6-5.3,1.5c-6.9,15.8-7.3,31.6-20.6,47.4
			c-9.2,25.9-19.3,36.5-36.7,52.8c-5,6.3-7.5,14.8-14.3,18.4c1-31.9,5.4-63.7,9.7-95.6c-0.3,0.5-0.5,1-0.8,1.5
			c-6.1,8.9-8.9,17.8-18.3,26.8c-19,27-45.2,67.8-71.1,87.2c-0.3-27.9-0.5-65.2-0.8-97.9c-0.3,0.5-0.5,1-0.8,1.5
			c-19.6,37.2-39.2,74.4-58.9,111.6c-8.7,17.6-17.3,37.4-26,52.8c1.3,6.4,2.6,12.7,5.5,19.1c4.1,25.1,11.8,51.7,16.6,76.5
			c-0.3,0-0.5,0-0.8,0c-0.5-5.2-1-7.2-1.5-7.7c-8.9-7.1-17.8-13.6-26.8-16.6c-3.6,0-9.2,0-13.8,0c-0.3-23.5-0.5-42.1-0.8-60.7
			c-9.2,4.3-18.3,8.7-21.7,13c-5.6-31.9-5.3-60.3-5-95.6C206.5,224.3,263,162.3,368.3,144c30-5.2,67.7-1.8,99.8,5.3
			c19.3,7.3,42.5,22.6,64.7,33.6c38,34.2,68.2,80.2,76.3,141.5c0.3,32.6,0.5,65.3,0.8,97.9c-9.4-4.3-18.9-8.7-28.3-13
			C581.5,427.9,581.5,446.5,581.5,470z M462.3,266.3c13,6.9,8.1,56.1,10.7,74.1c-16.4-5.6-46.6-0.8-45.1,14.6
			c41.9-1.2,51.2,10.6,75.7,22.9c1-0.5,2-1,5-1.5c0-1.5,0-3.1,0-4.6c-6.8-22-29.8-21.3-7.3-39.8c3.8-5.6,7.6-5.3,11.5-16.8
			c0.3,0,0.5,0,0.8,0c6.4,24,19.9,48.6,22.2,74.9c2,23.1-23.8,107.7-33.6,120.8c-9.2,14.3-29.6,23.3-44.3,33.6
			c-9.4,6.6-47.7,36.1-61.9,32.9c-21.6-4.9-90-54.8-100.1-71.9c-10-17-13.8-38.6-19.9-58.9c-3.3-10.9-14.9-44.8-9.3-57.3
			c9.3-24,21.5-47.9,33.7-71.9c0.5,0,4.8,0,6.5,0c-2.5,17.3-1.7,21.9-5.7,32.9c-1.9,14.8-13.4,14.3-11.5,30.3c0.5-5.4,1-4.1,1.5-2.8
			c0.8,0,1.5,0,2.3,0c18.5-21.1,40.8-23.6,74.9-22.9c0.3-1.8,0.5-3.6,0.8-5.3c-7.1-4.8-12.7-9.6-23.7-12.2
			c12.1-12.6,22.1-28.2,33.6-39c0.3,0,0.5,0,0.8,0c-3.1,21.4-6.1,42.8-9.2,64.2C406.9,339.3,441.5,306.1,462.3,266.3z M303.3,417
			c15.9-1.4,26.9-9.1,48.8-6.1c3.4,2,12.1,4.1,20.7,6.1c0-0.3,0-0.5,0-0.8c0.2-7.9-8-23.3-15.3-26.8C333,378,303,393.8,303.3,417z
			 M492.9,417c0.3-22-34.1-41.4-55.8-26.8c-1.3,4.1-11.8,18.8-9.2,26.8c4.1-2,12.8-4.1,21.5-6.1C466,407.8,479.4,415.6,492.9,417z
			 M372.1,461.3c-0.8,1.3-1.5,2.5-0.7,8.7c0-4.1,0-3.3,0-2.6c8.2,13.1,53,22.2,56.5-3.1c-0.8-1-1.5-2-2.3-3.1
			c-7.8,0.1-15.9,4.3-24.5,4.6C391.4,464.4,381.8,462.8,372.1,461.3z M341.5,493.4c-1.3,1.5-2.6,3.1-3.8,4.6
			c22.5,52.3,99.7,52.1,122.3,0c-1.3-1.5-2.6-3.1-3.8-4.6C424.1,502.3,373.5,502.3,341.5,493.4z"/>
	</g>
</g>
</svg>
