<?xml version="1.0" encoding="utf-8"?>
<!-- Generator: Adobe Illustrator 27.0.1, SVG Export Plug-In . SVG Version: 6.00 Build 0)  -->
<svg version="1.1" id="Layer_1" xmlns="http://www.w3.org/2000/svg" xmlns:xlink="http://www.w3.org/1999/xlink" x="0px" y="0px"
	 viewBox="0 0 800 800" style="enable-background:new 0 0 800 800;" xml:space="preserve">
<style type="text/css">
	.st0{clip-path:url(#SVGID_00000174587821154473234910000006308790298803414159_);}
	.st1{fill-rule:evenodd;clip-rule:evenodd;fill:#010101;}
</style>
<g>
	<defs>
		<rect id="SVGID_1_" x="137.8" y="8.6" width="524.5" height="782.7"/>
	</defs>
	<clipPath id="SVGID_00000034783817444522168010000013387190008732202130_">
		<use xlink:href="#SVGID_1_"  style="overflow:visible;"/>
	</clipPath>
	<g style="clip-path:url(#SVGID_00000034783817444522168010000013387190008732202130_);">
		<path class="st1" d="M596.6,355.5c-5.1,0-10.3,0-15.4,0c-6.8,6.3-17.9,16.1-25.1,21.1c0-0.3,0-1.4,0-1.6
			c5-12.9,24.1-79.3,21.1-88.8c-13.9-59.7-37.4-118.3-56-161.8c-0.3,0-0.5,0-0.8,0c-2.4,20-10.3,61.6-18.7,67.3c5,0,2.2,0,3.2,0
			c-9.4-41.9-14.8-78.8-20.2-127.3c-0.3,0.5-0.5,3.4-0.8,8.8c-7.3,9.6-8.4,26.3-21.9,43.1c-9.8,21.1-21,38.7-38.9,56
			c-5.3,13.1-8.3,15.7-15.4,19.5c1.3-33.8,5.9-67.6,10.5-101.4c-0.3,0.5-0.5,1.1-0.8,1.6c-6.5,9.5-9.7,18.9-19.5,28.4
			c-21.6,28.4-51.1,70.5-75.4,92.5c-0.3-30.6-0.5-69.2-0.8-103.8c-0.3,0.5-0.5,1.1-0.8,1.6c-21.8,39.2-42.4,79-63.3,118.4
			c-9.2,18.6-17.6,37.3-26.8,56c1.4,12.3,3.5,18.4,4.9,25.1c6.1,26.6,11.7,47.7,18.7,70.6c-0.3,0-0.5,0-0.8,0
			c-0.5-1.3-1.1-1.9-1.6-2.4c-9.5-7.6-18.9-15.1-28.4-22.7c-2.7,0-9.7,0-14.6,0c-0.3-19.7,0.3-40.3,0-60c-9.7,4.6-20.3,10-30,14.6
			c3.9-31.3-2.1-89.1,1.6-109.5C199.7,96.1,268.2,28.5,370.3,14.8c29-3.9,67-2.9,92.4,4.1c27.2,7.4,51.9,18,72.2,32.4
			c52.4,33.6,78.5,86.4,90.8,154.9c0.3,34.6,0.5,74.1,0.8,103.8c-10-4.6-20-10-30-14.6C596.6,315.2,596.6,335.8,596.6,355.5z
			 M391.4,435.8c31.4,0.3,74.7-0.1,70.5-32.4c2.7-0.8,5.4-1.6,8.1-2.4c0.3-1.6,0.5-3.2,0.8-4.1c4.5-3.8-2.5-5-5.7-6.5
			c-27,2.4-54.1-4.9-81.1-7.3c-0.7-8.5-9.4-21.1-21.1-21.9c-26.7,8.9-46.9,23.9-70.6,35.7c-11.8-29.6-20.2-60.6-28.4-95.7
			c-1.6-8.7-3.2-17.3-0.9-23.6c9-27.8,22-53.2,34.9-78.6c0.5,0,2,0,7.4,0c0,0.3,0,0.5,0,0.8c-5.4,12.2-6.9,24.3-7.4,36.5
			c-2.8,3.7-13.6,9.7-9.5,24.3c-3.1,4.2-0.8,8.1,8.5,10.5c9-11.3,22.7-26.2,39.2-30.9c8.1-9.9,16.2-14.2,24.3-18.6
			c9-6.7-2.1-12.5-4.1-13c7-9.2,17.3-20.8,24.3-24.9c0.5,0,1.1,0,1.6,0c-3.2,17.6-6.5,40.3-9.7,63c25.9-16.3,59.9-43.5,75.4-68.9
			c7.6-11.1,15.1-22.2,22.7-33.3c0.3,0,0.5,0,0.8,0c3,24.3,6,48.7,8.9,73c-8-4.1-24.8-12-36.5,0.2c-0.3-4-0.5-1.3-0.8,8.5
			c-1.3-2.4,18.4,5.2,26.8,10.8c26.7,18,24.9,19.8,40.6,34.1c0.8-0.3,3.2-0.5,4.1-0.8c5.1-4.8,5.2-6.6,5.7-13.8
			c1.3-12.6-18.5-24.3-23.5-28.4c9.6-5.5,25.7-22.6,26.8-31.6c0.3,0,0.5,0,0.8,0c7.6,25.4,15.1,50.8,22.7,76.2
			c-0.4,13.9,1.3,41-9.7,55.2c-6.7,24.4-13.4,54.4-21.9,71.4c-3.3,12.4-33.1,36.9-52.7,42.2c-18.5,18.8-56.3,47.5-76.2,26.8
			C391.5,458.6,391.6,450.9,391.4,435.8z M327.5,260.9c-8,13.2-31.7,37.9,2.3,47.5c29.6,8.4,56.5-39.1,24.3-50.3
			C350.7,256.4,342.7,254.1,327.5,260.9z M458.5,256.5c-41,18.1-4.7,70.7,26.2,47.1C506.2,287.1,480.9,257.2,458.5,256.5z
			 M373.6,354c5.6-5-2.2-4.2-3.2-3.4c0.3,2.2,0.5,4.3,0.8,6.5c14,20.8,48.4,17.7,62.4,0c-0.8-2.2-1.6-4.3-2.4-6.5
			c-11.1-2.1-19.4,6.3-33.2,4.1C392.9,353.1,384.5,348.4,373.6,354z M359,383.9c1.6,0.5,3.2,1.1,6.3,1.6c3.1,9.7,7.7,19.5,12.3,29.2
			c-1.1,3.2-2.2,6.5-3.2,9.7c-0.3,9.7-0.5,19.5-0.8,29.2c-2.7,4.1-5.4,8.1-8.1,12.2c-3.2,10.3-6.5,20.6-8.6,30.8
			c-3.8,15.7-6.5,31.4-8.5,47c0,7.3,0,14.6,0,23.4c-7.2,9.1-13.7,19.6-20.2,30.2c-17.3,34.6-34.6,69.2-51.9,103.8
			c-5.4,20.7-24.4,86-46.2,88.4c-24.5-16.1-65.4-45.2-70.6-77.7c11.4-12.1,22.7-23.2,34.1-34.3c20.3-26,38.6-52.1,56-81.1
			c5.7-9.2,11.4-18.4,17-27.6c4.3-28.4-9.4-74.8-8.1-98.1c9.5-15.7,18.9-31.4,28.4-47c6.8-1.3,13.5-6.5,20.3-9.7
			C324.4,403.9,341.7,393.9,359,383.9z M392.2,397.7c18.1,1.6,38.2,3.2,54.3,4.9c0.3,2.7,0.5,5.4,0.8,8.1c-1.1,8.1-1.3,2.7-3.2,4.1
			c-12.4,12.3-32.9,5-50.3,4.9C396.8,409.9,395.2,410.2,392.2,397.7z M470.9,470.7c2.3,21.1-4.7,40.1,13.8,62.1
			c13.2,3.8,32,6.8,51.1,11.8c49.1,11.9,82,14.4,110.3,55.2c7,10.1,15.4,22,15.4,60.8c-10.5-1.6-24.3,4.1-34.9,8.1
			c-26.8,6-53.3,12.6-80.3,17.8c-70.5,13.4-168.6,9.9-244.1,5.7c10.7-25.1,34.7-71.8,47.8-92.5c5.1-7.3,10.3-14.6,15.4-21.9
			c4.6-12.5-0.7-26,1.6-39.7c2.5-15,3.8-30.7,8.9-43C411.8,519.4,448,487.8,470.9,470.7z M247.1,550.2c6.7,8-6.5,28.6-9.7,34.1
			c-16.8,28.5-38.9,61.4-64.1,81.9c-9.5-4.1-14.9-8.1-28.4-12.2c-0.5-54.5,30.1-76.2,68.9-94.9C224.9,556.1,236,553.1,247.1,550.2z"
			/>
	</g>
</g>
</svg>
