<?xml version="1.0" encoding="utf-8"?>
<!-- Generator: Adobe Illustrator 27.0.1, SVG Export Plug-In . SVG Version: 6.00 Build 0)  -->
<svg version="1.1" id="Layer_1" xmlns="http://www.w3.org/2000/svg" xmlns:xlink="http://www.w3.org/1999/xlink" x="0px" y="0px"
	 viewBox="0 0 800 800" style="enable-background:new 0 0 800 800;" xml:space="preserve">
<style type="text/css">
	.st0{clip-path:url(#SVGID_00000080168730520783398190000009092706636035907773_);}
	.st1{fill-rule:evenodd;clip-rule:evenodd;fill:#010101;}
</style>
<g>
	<defs>
		<rect id="SVGID_1_" x="22.1" y="8.6" width="755.7" height="782.7"/>
	</defs>
	<clipPath id="SVGID_00000069384745554374768260000001612133252499263622_">
		<use xlink:href="#SVGID_1_"  style="overflow:visible;"/>
	</clipPath>
	<g style="clip-path:url(#SVGID_00000069384745554374768260000001612133252499263622_);">
		<path class="st1" d="M614.7,397.3c-5.7,0-11.5,0-17.2,0c-3.7,6.8-19.8,16-28,20.8c0-0.3,0-0.6,0-0.9c5.6-14.3,25-89.6,23.5-97.4
			c-4.8-44.9-41.5-126.8-62.4-182c-0.3,0-0.6,0-0.9,0c-4.1,22.8-10,65.2-20.8,73.2c5.5,0,2.5,0,3.6,0
			C502,164.4,495.9,117.7,489.9,71c-0.3,0.6-0.6,6.1-0.9,1.8c-8.1,18.7-9.4,37.4-24.4,56c-10.9,23.5-23.4,43.2-43.4,62.4
			c-5.9,7.4-9.2,17.5-17.1,21.7c1.5-37.7,6.6-75.3,11.7-113c-0.3,0.6-0.6,1.2-0.9,1.8c-7.2,10.5-10.8,21.1-21.7,31.6
			c-22.5,31.9-59.1,80.2-84.1,103.1c-0.3-36.2-0.6-77.1-0.9-115.7c-0.3,0.6-0.6,1.2-0.9,1.8c-23.2,44-46.4,88-69.6,132
			c-10.2,20.8-20.5,41.6-30.7,62.4c1.5,15.4,3,19.6,7.8,27.1c3.6,29.7,11.1,55.7,18.5,80c-0.3,0-0.6,0-0.9,0c-0.6-2-1.2-2.6-1.8-3.2
			c-10.5-8.4-21.1-16.9-31.6-23.5c-3,0-10.8,0-16.3,0c-0.3-23.8,0.3-45.8,0-67.8c-10.8,5.1-22.6,11.2-33.5,16.3
			c4.4-38.7-2.1-90.2,1.8-122.9c13.2-94.5,95.8-196.4,211.6-207c32.5-3,74.7-3.2,103.1,4.5c30.3,8.2,57.8,20,80.5,36.2
			c58.4,37.5,87.5,98.3,101.3,172.7c0.3,38.6,0.6,84.3,0.9,115.7c-11.1-5.1-22.3-10.2-33.4-15.4
			C614.7,351.5,614.7,373.5,614.7,397.3z M475.4,157.8c2.5,9.7,11,80.5,11.8,95.8c-0.3,0-0.6,0-0.9,0c-10.6-4.6-30.5-9-43.4-4.5
			c-0.8,5.3-0.4,8.2,0.9,12.7c32.9,11.4,51.5,24.7,79.6,47c1.8-0.9,3.6-1.8,5.4,1.7c14.6-18.4-15.3-42-31.6-51.4
			c0.6-0.9,1.2-1.8,1.8-2.7c16.6-7.5,26.9-27.4,34.4-38c0.3,0,0.6,0,0.9,0c8.5,31.9,23,63.6,26.2,88.6
			c6.7,15.6-28.1,127.3-39.8,145.3c-6.4,14.3-35.1,32.8-52.4,37.3c-11.1,7.8-56.4,42.7-73.2,38.9c-25.6-5.8-106.5-64.8-118.4-85
			c-11.9-12.2-16.3-45.6-23.5-69.6c-3.9-12.9-15.6-56.5-10-63.4c10-32.7,24.5-61,38.9-89.4c0.6,0,2.3,0,8.3,0
			c-6,17.5-7.7,35-8.3,52.4c-4.1,6.9-24.5,12.6-9,35.3c8.3,0,2.4,0,3.6,0c12.7-9.6,24.4-19.8,38-28.9c10.6-6.2,33.7-15.1,42.3-19.9
			c1.3-4.3-0.3-8.9-2.5-12.7c-7.2,0-14.5,0-21.7,0c11.4-5.1,10.2-10.2,15.4-15.4c9-11.1,18.1-22.3,27.1-25.7c0.3,0,0.6,0,0.9,0
			c-3.6,17.5-7.2,42.9-10.8,68.2C408.2,246.8,449.7,203,475.4,157.8z M314.5,303.3c-11.9,4.9-36.9,19.2-43.2,39.8
			c-3.6,0-1.4,0,0.7,0c53.6-4.5,70.8,2.9,94.3,14.4c6-6-0.8-7.5-0.2-8.1c-0.1-11.8-7.4-31.4-14.5-41.6
			C339.2,313.4,326.9,304.8,314.5,303.3z M480.9,302.4c-0.7,7.7-29.1,10.9-36.2,8.1c-3.6,10.7-15.7,27.9-9.9,47c0.3,0,0.6,0,0.9,0
			c28.5-13,52.5-18.5,97.7-14.4C527.8,327.9,492.5,303.8,480.9,302.4z M371.5,388.3c-1.5,1.8-3,3.6-4.5,5.4c0.3,1.5,0.6,3,0.9,4.5
			c10.2,21.9,57.3,17.6,67.8-0.9c-0.7-5.3-2.2-5.8-4.5-9c-13.6,0.6-18.8,11-34.4,8.1C387,394.6,383,388.8,371.5,388.3z M339.8,428.1
			c19,40.5,102.8,42.8,123,0c-1.2,0-2.4,0-3.6,0C420.8,439.3,383.4,439.2,339.8,428.1z M322.6,523c21.3,10.3,47.5,36.9,81.4,37.1
			c30.9,0.1,49.7-23.9,70.5-35.3c-0.3,39.7,2,60.6,38,73.2c9.3,2.7,20.5,5.7,29.8,7.2c-18.1,2.1-56.1,13.4-53.3,21.7
			c-32.9,45.5,31.3,123.8,47.9,140.1c-57.6,5-146.3,22.6-216.1,5.4c-18.2-3-45.3-1.9-63.3-7.2c0.6,0,1.2,0,1.8,0
			c7.8-8.7,19.9-14.6,30.9-29.8c-6.2-3.3-5.9-2.7-5.6-10c4.2-3.6,8.4-7.2,12.7-10.8c22.8-33.2,24.2-56.2,15.4-89.5
			c-10.5-4.8-21.1-9.6-31.6-14.5c-8.7-2.5-19.2-0.6-25.3-5.4C308.4,595,323.7,582.1,322.6,523z M171.6,545.6
			c42.4,3.8,23.8,55,14.5,72.3c1.3,2.3,1.5,7.6,3.6,4.5c9.8,5.6,25.4-2.1,38.9,0c23.2,3.7,44.4,14,62.4,18.9
			c15.6,21.9-32.4,91.4-54.2,112.1c-39.7,0.3-63.8-20.6-98.6-9.9c-17.8,15.4-28.5,32-53.3,46.1c-26.9-13.4-36.3-35.1-60.6-58.8
			c12.1-16,55.4-47.9,73.2-59.7c8.1-4.2,16.3-8.4,31.7-12.7c-4.9-6-2.5-12.1-0.1-18.1c15.8-18.1,23-32.9,29.8-55.1
			C164.4,567.7,156.4,545.7,171.6,545.6z M619.2,545.6c3.9,1.2,7.8,2.4,11.8,10.5c4.9,14.6,4.1,33.7,11.7,51
			c4.8,10.8,8.6,3.4,22.6,33.4c2.4,6,7.1,12.1,7.2,18.1c10.2,5.7,20.5,11.5,30.7,17.2c22.3,18.1,44.6,36.2,66.9,54.2
			c0,0.3,0,0.6,0,0.9c-16.7,23.7-33.6,46.2-60.6,59.7c-17.8-15.4-35.6-31.6-53.3-47c-36.1-10.9-77.2,15.5-98.6,9
			c-8.3-4-21.6-18.6-25.3-27.1c-2.4-7.2-4.8-8.6-7.2-21.7c-3.6,3.6-7.2-3.6-10.8-5.4c-1.8-8.7-3.6-17.5-5.4-26.2
			c-7.9-7.4-11.7-12.6-4.5-34.3c20.9-9.1,38-13.4,61.5-15.4c16.4,4.2,35.2,7.9,42.5-4.5C599.2,592.8,581.7,558.7,619.2,545.6z"/>
	</g>
</g>
</svg>
