<?xml version="1.0" encoding="UTF-8"?>
<svg version="1.1" viewBox="0 0 1200 1200" xmlns="http://www.w3.org/2000/svg">
 <g>
  <path d="m631.2 1062c0 17.895-14.504 32.398-32.398 32.398s-32.402-14.504-32.402-32.398 14.508-32.398 32.402-32.398 32.398 14.504 32.398 32.398"/>
  <path d="m826.8 600c0 35.789-29.012 64.801-64.801 64.801s-64.801-29.012-64.801-64.801 29.012-64.801 64.801-64.801 64.801 29.012 64.801 64.801"/>
  <path d="m772.8 60h-345.6c-79.199 0-124.8 45.602-124.8 124.8v832.8c0 16.801 2.3984 32.398 6 46.801 1.1992 3.6016 2.3984 7.1992 3.6016 10.801 3.6016 7.1992 7.1992 14.398 10.801 21.602 1.1992 1.1992 2.3984 2.3984 2.3984 3.6016 2.3984 2.3984 3.6016 4.8008 6 7.1992l2.3984 2.3984c2.3984 2.3984 6 6 9.6016 8.3984 6 4.8008 12 8.3984 19.199 10.801 1.1992 1.1992 3.6016 1.1992 4.8008 2.3984h1.1992l1.1992 1.1992c9.6016 3.6016 20.398 6 32.398 7.1992h4.8008 1.1992 2.3984 14.398 345.6c16.801 0 32.398-2.3984 45.602-6h1.1992c2.3984-1.1992 4.8008-1.1992 8.3984-2.3984 7.1992-2.3984 13.199-6 19.199-8.3984 3.6016-2.3984 7.1992-4.8008 9.6016-7.1992 7.1992-4.8008 13.199-12 18-19.199 3.6016-3.6016 6-8.3984 8.3984-13.199l1.1992-2.3984c3.6016-8.3984 7.1992-18 9.6016-27.602 1.1992-3.6016 1.1992-8.3984 2.3984-12 1.1992-8.3984 1.1992-15.602 1.1992-24l0.007813-57.605v-775.2c2.4023-79.199-43.199-124.8-122.4-124.8zm-223.2 64.801h97.199c7.1992 0 12 4.8008 12 10.801s-6 10.801-12 10.801h-97.199c-7.1992 0-12-4.8008-12-10.801s4.7969-10.801 12-10.801zm49.199 980.4c-24 0-43.199-19.199-43.199-43.199s19.199-43.199 43.199-43.199 43.199 19.199 43.199 43.199c-1.1992 24-20.398 43.199-43.199 43.199zm274.8-249.6-110.4-98.398-50.398 39.602-141.6-93.602-244.8 169.2v-655.2h548.4l0.003906 638.4z"/>
 </g>
</svg>
