<?xml version="1.0" encoding="UTF-8"?>
<svg version="1.1" viewBox="0 0 1200 1200" xmlns="http://www.w3.org/2000/svg">
 <g>
  <path d="m955.2 700.8c-122.4 0-220.8 98.398-220.8 220.8 0 122.4 98.398 220.8 220.8 220.8 122.4 0 220.8-98.398 220.8-220.8 0-122.4-98.398-220.8-220.8-220.8zm134.4 244.8h-110.4l-0.003906 110.4h-48v-110.4h-110.4v-48h110.4v-110.4h48v110.4h110.4z"/>
  <path d="m770.4 297.6c0 132.55-107.45 240-240 240-132.55 0-240-107.45-240-240 0-132.55 107.45-240 240-240 132.55 0 240 107.45 240 240"/>
  <path d="m909.6 657.6c-28.801-31.199-60-60-93.602-81.602-4.8008-2.3984-12-7.1992-12-7.1992-60 84-160.8 139.2-273.6 139.2-112.8 0-211.2-55.199-273.6-139.2 0 0-7.1992 4.8008-9.6016 7.1992-134.39 88.801-223.2 242.4-223.2 417.6v52.801h693.6c-19.199-38.398-31.199-79.199-31.199-124.8-0.003906-132 95.996-242.4 223.2-264z"/>
 </g>
</svg>
