<?xml version="1.0" encoding="utf-8"?>
<!-- Generator: Adobe Illustrator 27.0.1, SVG Export Plug-In . SVG Version: 6.00 Build 0)  -->
<svg version="1.1" id="Layer_1" xmlns="http://www.w3.org/2000/svg" xmlns:xlink="http://www.w3.org/1999/xlink" x="0px" y="0px"
	 viewBox="0 0 800 800" style="enable-background:new 0 0 800 800;" xml:space="preserve">
<style type="text/css">
	.st0{fill-rule:evenodd;clip-rule:evenodd;fill:#010101;}
</style>
<path class="st0" d="M747.7,680l-56.9,15.1l-46.8-75.3l12.7-21l-77.2-204.4l-19,120.4l12.6,53.2l74.7,114.8l-128.8,70L418.2,641
	l51.1-215.1l19-69.3L528.1,189l-59.3-6.8l25.5-84.6L316.6,82.5l0.9-8.7l46.7-20.2l112.8-6.4l49.3,33.6l1.3,60.2l100,40.6l60.7,193.2
	L752.7,554l22.8-4.2l16.8,91L747.7,680z M311.2,135.4l2.8-26.9l147.9,10.9L429.2,204l64.2,8.4l-35.2,151.2L385.5,643L273.9,748.6
	l-91.8-53.5l63.3-122.9L258,526l-11.4-127.4L139.1,582l17.7,29.4l-53.1,71.4L45.4,659L7.7,614.2l23.9-85.4l24,2.8l84.8-173.1
	l72.1-195.1L311.2,135.4z"/>
</svg>
