<?xml version="1.0" encoding="utf-8"?>
<!-- Generator: Adobe Illustrator 27.0.1, SVG Export Plug-In . SVG Version: 6.00 Build 0)  -->
<svg version="1.1" id="Layer_1" xmlns="http://www.w3.org/2000/svg" xmlns:xlink="http://www.w3.org/1999/xlink" x="0px" y="0px"
	 viewBox="0 0 800 800" style="enable-background:new 0 0 800 800;" xml:space="preserve">
<g>
	<polygon points="102.5,429.1 62.9,470 149.5,675.4 384.6,734.8 404.4,680.4 228.7,607.1 	"/>
	<polygon points="317.8,296.8 458.9,365.4 520.7,489.8 557.9,499.7 595,437.9 530.6,403.2 520.7,338.9 451.5,259.7 409.4,205.2 
		473.7,247.3 500.9,222.6 426.7,111.2 322.8,175.5 	"/>
	<polygon points="503.4,269.6 560.3,321.5 562.8,385.9 644.5,425.5 728.6,324 681.6,283 676.7,195.3 619.7,168.7 545.5,54.5 
		456.4,96.3 545.5,234.9 	"/>
	<polygon points="421.8,388.4 307.9,329 152,430.4 248.5,576.4 409.4,640.8 478.7,499.7 	"/>
	<polygon points="683.4,683.5 471.7,694.1 457,759.2 760.4,749.8 774.1,402.8 698.7,468.8 	"/>
	<polygon points="622.1,35.5 656.7,100.6 724.2,101.7 716.5,211.8 779.9,256.7 788.6,37.3 	"/>
	<polygon points="105.1,712.4 82.2,713.6 81.9,675.5 26,584.4 28.8,771.3 232.3,767.1 105.9,713.6 	"/>
	<polygon points="75.8,91 308.7,94.8 417.7,35 11.4,28.7 20.3,395.8 78.5,347.3 	"/>
</g>
</svg>
