<?xml version="1.0" encoding="utf-8"?>
<!-- Generator: Adobe Illustrator 27.0.1, SVG Export Plug-In . SVG Version: 6.00 Build 0)  -->
<svg version="1.1" id="Layer_1" xmlns="http://www.w3.org/2000/svg" xmlns:xlink="http://www.w3.org/1999/xlink" x="0px" y="0px"
	 viewBox="0 0 800 800" style="enable-background:new 0 0 800 800;" xml:space="preserve">
<g>
	<polygon points="26.8,127.8 24.6,157.8 182.1,229.4 244,169.9 174.2,11.8 132.2,15.5 162,77.2 112.9,13.9 73.3,34.3 107.6,82.6 
		57.2,40.8 21.8,107.2 103.7,147.5 	"/>
	<polygon points="202,256.1 275.6,359.2 368.5,269.5 269.3,186.7 	"/>
	<polygon points="380.7,302.4 307.1,371.8 670.9,788.2 778.2,680.9 	"/>
	<polygon points="85.6,705.2 81.3,294.5 21.8,272.6 33.3,761.7 504.4,747.9 452.7,686.9 	"/>
	<polygon points="714.4,105.8 685.8,514.9 757.5,571.8 777.5,42.8 261.5,37.1 278.6,98.6 	"/>
</g>
</svg>
