<?xml version="1.0" encoding="utf-8"?>
<!-- Generator: Adobe Illustrator 27.0.1, SVG Export Plug-In . SVG Version: 6.00 Build 0)  -->
<svg version="1.1" id="Layer_1" xmlns="http://www.w3.org/2000/svg" xmlns:xlink="http://www.w3.org/1999/xlink" x="0px" y="0px"
	 viewBox="0 0 800 800" style="enable-background:new 0 0 800 800;" xml:space="preserve">
<g>
	<path d="M296.6,286.5c0,0-141.7,139.6-142.6,140.6c-0.9,0.9,20.1,120.5,20.1,120.5l86.4,72.3l108.4,10l146.6-186.8l-10-38.2
		L788.6,55.6L583.8,11.4l-247,275.1H296.6z M407,465.3l-48.2,66.3l-63.7-5.2l-34.8-28.2l-13.9-61l54.2-58.2l84.3,10L407,465.3z"/>
	<polygon points="198.2,617.9 170.1,593.8 158,583.8 11.4,722.3 97.8,788.6 212.2,634 	"/>
	<polygon points="667.9,668.1 253.4,688.8 208.3,745.7 739.9,730.1 760.7,204.4 694.6,287.3 	"/>
	<polygon points="104.2,567.5 99.5,113.8 399.4,118.8 447.2,60.1 39.3,55.6 52.4,614.6 	"/>
</g>
</svg>
