<?xml version="1.0" encoding="utf-8"?>
<!-- Generator: Adobe Illustrator 27.0.1, SVG Export Plug-In . SVG Version: 6.00 Build 0)  -->
<svg version="1.1" id="Layer_1" xmlns="http://www.w3.org/2000/svg" xmlns:xlink="http://www.w3.org/1999/xlink" x="0px" y="0px"
	 viewBox="0 0 800 800" style="enable-background:new 0 0 800 800;" xml:space="preserve">
<g>
	<polygon points="111.8,529.1 107.6,121.3 474,127.4 528.6,69.9 49,64.6 60.7,563.2 	"/>
	<polygon points="661.1,661.1 267.2,682 252.7,736.5 731.2,721.5 752.2,217.9 688.2,274.4 	"/>
	<polygon points="772.5,82.2 696.3,11.8 397.1,301.2 447.9,359.9 752.5,147.1 725.6,123.3 	"/>
	<polygon points="369.7,309.1 267.3,408.5 338.4,477.2 444,389.2 	"/>
	<polygon points="281.7,557.4 314.9,496.8 252.4,432.3 232.8,526.1 215.2,539.8 172.2,551.6 27.5,672.8 68.5,749.1 191.7,788.2 
		240.6,618 283.6,602.4 	"/>
	<polygon points="355.3,487.3 426.4,510.5 412.7,475.3 410.8,446 	"/>
</g>
</svg>
