<?xml version="1.0" encoding="utf-8"?>
<!-- Generator: Adobe Illustrator 27.0.1, SVG Export Plug-In . SVG Version: 6.00 Build 0)  -->
<svg version="1.1" id="Layer_1" xmlns="http://www.w3.org/2000/svg" xmlns:xlink="http://www.w3.org/1999/xlink" x="0px" y="0px"
	 viewBox="0 0 800 800" style="enable-background:new 0 0 800 800;" xml:space="preserve">
<style type="text/css">
	.st0{fill-rule:evenodd;clip-rule:evenodd;}
</style>
<g>
	<polygon class="st0" points="209.5,348.9 179.3,474.4 225.8,582.2 227,582.4 179.8,646.9 186.5,671.3 320.8,613.4 384.8,634.5 
		450,616.3 577.5,670.9 598.6,646.9 563.8,584.1 608.6,474.4 569.8,336.4 528.2,337.8 461,512.7 423.7,415.9 371.9,564.5 
		333.7,345.6 	"/>
	<polygon class="st0" points="284.1,226.7 182.2,11.8 89.4,50.1 226.6,223.8 	"/>
	<polygon class="st0" points="424.1,309.6 461.5,442.8 530.5,233.4 344.1,211.5 377.2,480.2 	"/>
	<polygon class="st0" points="173.5,250.1 179.3,323.9 329.4,320.1 318,254.4 	"/>
	<polygon class="st0" points="598.1,262.6 557.6,261.4 537.1,314.8 592.8,313.7 	"/>
	<polygon class="st0" points="275.8,74 297.7,134.8 712.7,141.7 673.3,703.5 92.9,732.5 86.9,154.5 25.1,97.2 41.3,788.2 
		747.7,767.5 774.9,79.5 	"/>
</g>
</svg>
