<?xml version="1.0" encoding="utf-8"?>
<!-- Generator: Adobe Illustrator 27.0.1, SVG Export Plug-In . SVG Version: 6.00 Build 0)  -->
<svg version="1.1" id="Layer_1" xmlns="http://www.w3.org/2000/svg" xmlns:xlink="http://www.w3.org/1999/xlink" x="0px" y="0px"
	 viewBox="0 0 800 800" style="enable-background:new 0 0 800 800;" xml:space="preserve">
<style type="text/css">
	.st0{fill-rule:evenodd;clip-rule:evenodd;}
</style>
<g>
	<polygon class="st0" points="265.9,43.3 11.4,40.5 28.8,783.1 31.7,782.8 75.8,579.4 75.8,102.8 240.6,105.5 	"/>
	<polygon class="st0" points="499.3,45.9 517.4,110.1 724.2,113.5 707,424.8 726.3,708.2 729.1,762.7 760.4,761.6 788.6,49.1 	"/>
	<polygon class="st0" points="647.9,455.2 619.4,380.4 628.2,329.1 592.2,281 525,270.5 462.8,253.8 441.7,227.8 437,213.8 
		437.2,213.6 462.2,159.9 464.8,98.5 436.2,33.9 384.7,16.9 324.3,36.8 299,85.3 292.4,143.9 306.2,206.3 319.6,224.9 303.8,270.2 
		261,273.8 212.3,286.9 182.8,330.5 179.8,367 166.9,438 109.6,575.5 78.9,731.5 96.4,773.9 129.3,781.2 162.9,739.5 143.8,709.4 
		143.1,684.9 156.2,637.6 208.3,571.6 221.7,486.8 235.2,456 251.1,516.6 251.6,614.7 233.4,670.3 218.2,742.2 218.2,770.8 
		547.8,761.8 538.6,721.2 494.8,616.5 502.5,520.9 541.6,453.9 584.2,518.8 577.2,565.3 627.1,674.3 581.1,714.3 573.8,745.1 
		627.9,782.5 681.6,728 684.7,689.1 673.3,487.2 	"/>
</g>
</svg>
