<?xml version="1.0" encoding="utf-8"?>
<!-- Generator: Adobe Illustrator 27.0.1, SVG Export Plug-In . SVG Version: 6.00 Build 0)  -->
<svg version="1.1" id="Layer_1" xmlns="http://www.w3.org/2000/svg" xmlns:xlink="http://www.w3.org/1999/xlink" x="0px" y="0px"
	 viewBox="0 0 800 800" style="enable-background:new 0 0 800 800;" xml:space="preserve">
<g>
	<polygon points="568.8,490.5 301.9,217.6 290.1,99 153.7,24.9 85.4,54.5 186.3,113.8 189.2,177.5 129.9,201.4 29.1,146.4 35,208.7 
		121,294.7 213,297.7 494.7,576.5 503.6,718.8 640,775.1 714.2,745.5 613.3,692.1 610.4,623.9 669.7,597.2 770.5,658.1 770.5,597.2 
		669.7,496.4 	"/>
	<polygon points="721.3,99 697.6,437.9 768,487.8 786,34.3 317.8,29.2 376.3,93.3 	"/>
	<polygon points="77.2,712.9 73.5,348.2 14,306.9 23.6,770.8 475.4,757.6 408.4,696.4 	"/>
</g>
</svg>
