<?xml version="1.0" encoding="utf-8"?>
<!-- Generator: Adobe Illustrator 27.0.1, SVG Export Plug-In . SVG Version: 6.00 Build 0)  -->
<svg version="1.1" id="Layer_1" xmlns="http://www.w3.org/2000/svg" xmlns:xlink="http://www.w3.org/1999/xlink" x="0px" y="0px"
	 viewBox="0 0 800 800" style="enable-background:new 0 0 800 800;" xml:space="preserve">
<style type="text/css">
	.st0{fill-rule:evenodd;clip-rule:evenodd;fill:#010101;}
</style>
<path class="st0" d="M735.7,433.7l-2.7,334l-110.6,5.4l10.8-339.4l-59.3,2.7V234.3l64.7,2.7L636,26.9H733V237l59.3-2.7v202.1
	L735.7,433.7z M449.9,773.1h-97.1l2.7-102.4L296,681.8V471.4l54.2,2.7L339.3,26.9l110.6,5.4l11.4,441.8l47.9-2.7v210.5l-59.3-11.1
	V773.1z M166.8,767.7l-110.6,5.4L67,325.9l-59.3,2.7v-202l64.7,2.7L69.7,26.9h97.1v102.4l59.3-2.7v202l-56.6-2.7L166.8,767.7z"/>
</svg>
