<?xml version="1.0" encoding="utf-8"?>
<!-- Generator: Adobe Illustrator 27.0.1, SVG Export Plug-In . SVG Version: 6.00 Build 0)  -->
<svg version="1.1" id="Layer_1" xmlns="http://www.w3.org/2000/svg" xmlns:xlink="http://www.w3.org/1999/xlink" x="0px" y="0px"
	 viewBox="0 0 800 800" style="enable-background:new 0 0 800 800;" xml:space="preserve">
<g id="Layer_2_00000047761643304684997430000011823985243735147667_">
	<g>
		<polygon points="130.3,558.9 130.3,558.9 117.7,165.4 697.6,165.4 697.6,321.2 752.4,357.3 760.8,109.6 50.2,109.6 73.8,586.4 
			12.2,586.4 48.2,669.9 447.5,671 396.4,558.9 		"/>
		<path d="M787.8,540l-10.2-58l-32,12.4c-5.7-15.4-14-30.4-25-44.2l25.8-17.4l-41.7-41.6l-18,26.9c-14.2-10-29.4-17.5-45-22.2
			l13.9-36l-58-10.2l0.8,40.1c-18,0.4-35.4,4.5-51.1,12.4l-9.5-19.9l-57.8,58l19.9,9.5c-7.9,15.6-12,33.1-12.4,51.1l-40.1-0.8
			l10.2,58l36-13.9c4.7,15.6,12.1,30.8,22.2,45l-26.9,18l41.6,41.7l17.4-25.8c13.8,11,28.7,19.3,44.2,25l-12.4,32l58,10.2l-0.7-33.3
			c23.1,0.7,45.6-4.6,64.8-16.3l-131-122.5l45-45l122.4,130.9c11.6-19.2,16.9-41.7,16.3-64.8L787.8,540z"/>
	</g>
</g>
</svg>
