<?xml version="1.0" encoding="utf-8"?>
<!-- Generator: Adobe Illustrator 27.0.1, SVG Export Plug-In . SVG Version: 6.00 Build 0)  -->
<svg version="1.1" id="Layer_1" xmlns="http://www.w3.org/2000/svg" xmlns:xlink="http://www.w3.org/1999/xlink" x="0px" y="0px"
	 viewBox="0 0 800 800" style="enable-background:new 0 0 800 800;" xml:space="preserve">
<polygon points="445.2,549.9 448.7,238.1 510.4,162.8 474.4,41.2 417.8,18.8 441.9,111.4 406.8,149.8 358.7,129.4 332.2,39.4 
	299.7,78.8 299.7,178.1 351.1,233 352.8,556.8 275.7,644.1 322,755.4 381.9,781.2 354.5,692 392.2,651 441.9,669.8 464.9,763.2 
	500.1,728 500.1,611.6 "/>
<g>
	<path d="M61.5,430.3l179.7,118.9c0-28.2,0-84.7,0-84.7L138.3,400l102.9-63.8c0,0,0-57,0-85.4c-59.9,39.6-119.8,79.3-179.7,118.9
		V430.3z"/>
	<path d="M738.5,430.3L558.8,549.2c0-28.2,0-84.7,0-84.7L661.7,400l-102.9-63.8c0,0,0-57,0-85.4c59.9,39.6,119.8,79.3,179.7,118.9
		V430.3z"/>
</g>
</svg>
