<?xml version="1.0" encoding="utf-8"?>
<!-- Generator: Adobe Illustrator 27.0.1, SVG Export Plug-In . SVG Version: 6.00 Build 0)  -->
<svg version="1.1" id="Layer_1" xmlns="http://www.w3.org/2000/svg" xmlns:xlink="http://www.w3.org/1999/xlink" x="0px" y="0px"
	 viewBox="0 0 800 800" style="enable-background:new 0 0 800 800;" xml:space="preserve">
<style type="text/css">
	.st0{fill-rule:evenodd;clip-rule:evenodd;fill:#010101;}
</style>
<path class="st0" d="M573.5,473.6L602,488l15,83.6l97.4,82.8l16.1,32.8l-1,35.3l-52.8,68l-193.6-42.8l-85.5-115.9l-70.5-85.3
	l-115.5-58.3l41.5-125.9l62.2-24.5l172.6-274l302.5,147.2L573.5,473.6z M135.2,76.6l61.5-67l165.9,121.6l-39,58L135.2,76.6z
	 M248,311L57.3,254.1l28.1-99L276,240.3L248,311z M179.7,442.9l-170.2-23l16.1-89.8l176.8,39.1L179.7,442.9z"/>
</svg>
