<?xml version="1.0" encoding="UTF-8"?>
<svg version="1.1" viewBox="0 0 1200 1200" xmlns="http://www.w3.org/2000/svg">
 <g>
  <path d="m671.8 597.05c0 39.656-32.145 71.801-71.801 71.801s-71.801-32.145-71.801-71.801c0-39.652 32.145-71.801 71.801-71.801s71.801 32.148 71.801 71.801"/>
  <path d="m600 400.88c-52.027 0-101.93 20.668-138.71 57.457-36.789 36.793-57.457 86.688-57.457 138.71 0 52.031 20.668 101.93 57.457 138.71 36.789 36.789 86.688 57.457 138.71 57.457s101.93-20.668 138.71-57.457c36.789-36.789 57.457-86.684 57.457-138.71-0.058594-52.008-20.746-101.87-57.523-138.65-36.777-36.777-86.637-57.465-138.65-57.523zm0 305.47c-28.988 0-56.789-11.516-77.289-32.012-20.5-20.5-32.016-48.301-32.016-77.289 0-28.992 11.52-56.793 32.016-77.289 20.5-20.5 48.301-32.016 77.289-32.016 28.992 0 56.793 11.516 77.289 32.016 20.5 20.5 32.016 48.301 32.016 77.289-0.035157 28.98-11.562 56.762-32.051 77.254-20.492 20.492-48.273 32.016-77.254 32.047z"/>
  <path d="m923.34 455.86c-61.441-55.098-150.28-118.75-250.68-141.02v-94.527h89.113c5.043-0.17188 9.8203-2.3086 13.312-5.9492 3.4922-3.6445 5.4258-8.5039 5.3867-13.551v-46.457c9.2031-2.8164 17.543-7.9102 24.254-14.809 11.465-11.367 17.918-26.84 17.93-42.984 0.011718-16.145-6.4258-31.625-17.875-43.004-11.449-11.383-26.969-17.719-43.113-17.609-16.145 0.10938-31.578 6.6562-42.875 18.191-11.383 11.512-17.77 27.051-17.77 43.242 0 16.191 6.3867 31.73 17.77 43.242h-0.023437c6.7539 6.582 15.09 11.312 24.203 13.734v28.453h-88.348c-10.355 0-19.465 7.6445-19.465 18v107.79c-5.4414-0.59766-10.914-1.0273-16.406-1.3516v-162.33c18.539-6.0039 33.082-20.523 39.113-39.051 6.0352-18.531 2.832-38.828-8.6172-54.598-11.449-15.77-29.758-25.102-49.246-25.102s-37.797 9.332-49.246 25.102c-11.449 15.77-14.652 36.066-8.6172 54.598 6.0312 18.527 20.574 33.047 39.113 39.051v162.33c-5.4922 0.32422-10.965 0.75391-16.406 1.3516v-107.79c0-10.355-9.1094-18-19.465-18h-88.348v-28.453c9.1133-2.4219 17.449-7.1523 24.203-13.734 11.383-11.512 17.77-27.051 17.77-43.242 0-16.191-6.3867-31.73-17.77-43.242-11.32-11.52-26.766-18.047-42.914-18.137-16.148-0.085937-31.664 6.2695-43.109 17.664-11.441 11.391-17.867 26.879-17.852 43.027 0.015625 16.148 6.4727 31.621 17.941 42.992 6.7109 6.8555 15.047 11.902 24.23 14.672v46.453c-0.039062 5.0469 1.8945 9.9062 5.3867 13.551 3.4922 3.6406 8.2695 5.7773 13.312 5.9492h89.113v94.527c-100.4 22.266-189.24 85.922-250.68 141.03-47.473 42.824-90.727 90.102-129.17 141.19 38.441 51.086 81.695 98.367 129.17 141.19 61.441 55.113 150.28 118.75 250.68 141.03v102.76h-89.113c-10.352 0-18.699 6.7969-18.699 17.156v46.457c-9.2031 2.8164-17.543 7.9102-24.254 14.809-11.406 11.391-17.816 26.848-17.82 42.965-0.003906 16.121 6.4023 31.578 17.801 42.973 11.398 11.398 26.863 17.793 42.98 17.781 16.043 0.28516 31.523-5.8906 42.969-17.133 11.445-11.242 17.891-26.613 17.895-42.656 0.003907-16.043-6.4375-31.418-17.879-42.664-7.0312-7.0312-14.828-13.219-24.203-16.078l0.003907-26.109h88.367c10.355 0 19.465-9.9883 19.465-20.344v-113.67c5.4414 0.60156 10.914 1.0273 16.406 1.3516v168.22c-18.539 6.0039-33.082 20.523-39.113 39.051-6.0352 18.531-2.832 38.828 8.6172 54.598s29.758 25.102 49.246 25.102 37.797-9.332 49.246-25.102c11.449-15.77 14.652-36.066 8.6172-54.598-6.0312-18.527-20.574-33.047-39.113-39.051v-168.21c5.4922-0.32422 10.965-0.75391 16.406-1.3516v113.67c0 10.355 9.1094 20.344 19.465 20.344h88.336v26.113c-9.375 2.8594-17.176 9.043-24.203 16.074-11.379 11.301-17.77 26.684-17.75 42.727 0.019531 16.039 6.4453 31.406 17.852 42.684 11.406 11.273 26.848 17.527 42.887 17.359 16.133-0.054688 31.586-6.5039 42.973-17.934 11.383-11.43 17.777-26.906 17.773-43.039-0.003906-16.133-6.4023-31.605-17.793-43.027-6.7031-6.9102-15.039-12.02-24.238-14.852v-46.457c0-10.355-8.3477-17.156-18.699-17.156h-89.113v-102.76c100.4-22.266 189.24-85.926 250.68-141.03 47.473-42.824 90.727-90.105 129.17-141.19-38.441-51.086-81.695-98.367-129.17-141.2zm-323.34 374.87c-43.004-0.019531-85.164-11.902-121.85-34.348-36.68-22.441-66.457-54.57-86.051-92.848-19.594-38.281-28.246-81.223-25-124.1 3.2422-42.879 18.254-84.035 43.387-118.93 25.129-34.895 59.402-62.18 99.043-78.848 39.637-16.668 83.109-22.074 125.62-15.625v1.9414h7.8633c108.37 18.75 190.65 115.23 190.65 229.39-0.078125 61.922-24.734 121.28-68.547 165.04-43.812 43.758-103.2 68.332-165.12 68.332z"/>
 </g>
</svg>
