<?xml version="1.0" encoding="utf-8"?>
<!-- Generator: Adobe Illustrator 27.0.1, SVG Export Plug-In . SVG Version: 6.00 Build 0)  -->
<svg version="1.1" id="Layer_1" xmlns="http://www.w3.org/2000/svg" xmlns:xlink="http://www.w3.org/1999/xlink" x="0px" y="0px"
	 viewBox="0 0 800 800" style="enable-background:new 0 0 800 800;" xml:space="preserve">
<style type="text/css">
	.st0{fill-rule:evenodd;clip-rule:evenodd;fill:#010101;}
</style>
<path class="st0" d="M728,488.8l-1.4,99.7l-68.3,34.2l23.2-72.4l15-77.9l-46.5-149l-48.6-124.6l-0.5,1.6l-34.2,109.3L539.4,98
	l-46.5,97l-88.8,129.7l21.9-183l-70.4,106.6l-90.8,98.4l1.4-170.8l-1.2-1.9L110.3,471L150,629.6l-46.5-20.5l-30.1-19.1l-1.4-92.8
	L22.9,512l1.4-161.2l29.6-86.1l31.9-90.2l64.2-73.8l94.3-60.1l0.2,1.3l57.2-20.4l105.2-10.9l110.7,15L532,33l82.6,54.8l10.2-6.8
	l14.4,7.4l21.9,19.1l9.6,13.7l54.7,69.7l42.4,112.4l9.6,68v139.4L728,488.8z M225.1,415l23.2-10.9l56-43.7l61.5-57.1l3.3,102.2
	l43.2-47.8l62.9-54.3l39.6-68.7l13.7,84.7l8.2,69.7l34.4-23.2l32.6-43.7l39.6,132.6l-20.5,107.9l-16.4,97L571,691.1l-116.4,72.4
	l-49.2,26l-6.8-1.4l-53.3-24.6l-99.7-72.4L214.2,661L180,555.8l-20.5-101.1l65.6-129.8V415z"/>
</svg>
