<?xml version="1.0" encoding="utf-8"?>
<!-- Generator: Adobe Illustrator 27.0.1, SVG Export Plug-In . SVG Version: 6.00 Build 0)  -->
<svg version="1.1" id="Layer_1" xmlns="http://www.w3.org/2000/svg" xmlns:xlink="http://www.w3.org/1999/xlink" x="0px" y="0px"
	 viewBox="0 0 800 800" style="enable-background:new 0 0 800 800;" xml:space="preserve">
<style type="text/css">
	.st0{fill-rule:evenodd;clip-rule:evenodd;fill:#010101;}
</style>
<path class="st0" d="M701.3,320.9l-34.8-8.7l-40.1-1.7l-43.5,7L541.1,333l-31.3,24.4l-7-13.9l15.7-22.6l38.3-26.1l43.5-4.8
	l40.1-12.6l50.5,7l40.1,17.4l22.6,20.9l-12.2,20.9L701.3,320.9z M319.9,334.8l-55.7-12.2l-55.7,2.8l-57.5-1.1L95.2,340l-47,29.6
	L36,341.8l43.5-38.3l67.9-22.6l81.9-1.7l71.5,15.3l50.4,21.2l13.9,20.9l-10.4,20.9L319.9,334.8z M185.8,350.3h67.9l47,12.2
	l48.8,27.9l12.2,19.2l5.6,31.3l-40.4-31.3l9.5,38.3l-9.5,34.8L311.2,507l-13.9,3.5h-48.8l-80.5,12.2H137l-22.6-17.4l-54-67.9
	l-47-19.2L97,372.9L185.8,350.3z M81.6,434.4l8.5,11.8l29.8,42.6l21.3,21.3H171h17l-16.2-11.7l-15.7-20.9l-8.7-27.9l3.5-24.2
	l12.5-28.1l-69.1,27.5L81.6,434.4z M546.3,365.9l64.9-20.9l79.6,3.5l40.1,17.4l55.7,45.3l-38.3,20.9l-43.5,55.7L675.2,514l-28.5,5.2
	l-35.4-7l-63.2-3.5l-7.8-13.9l-16.6-24.4l-3.5-19.2l8.7-38.3l-13.9,10.4l-12.2,15.7l6.5-40.1L546.3,365.9z M652.2,505.7l21.3-8.5
	l12.8-4.6l25.6-42.2l21.3-34.1l-58-27.7l-45.3-8.7l12.2,14.5l4.5,18.6v27.9l-8,26.1l-12.2,27.9l-8.2,6.7L652.2,505.7z"/>
</svg>
