<?xml version="1.0" encoding="UTF-8"?>
<svg version="1.1" viewBox="0 0 1200 1200" xmlns="http://www.w3.org/2000/svg">
 <g>
  <path d="m794.52 480c-2.207-22.961-12.332-44.441-28.645-60.754s-37.793-26.441-60.754-28.645c-16.199-1.5586-33-2.8789-50.281-4.0781-54-3.9609-96-6.2383-157.44-6.7188h-4.8008c-69.961 0-118.44 2.2812-178.8 6.7188-17.039 1.1992-33.602 2.5195-49.68 4.0781h-0.83984 0.003906c-22.863 2.1953-44.254 12.262-60.516 28.48s-26.387 37.582-28.645 60.438c-1.4414 14.039-2.6406 28.441-3.4805 43.32s-1.6797 33.238-2.0391 50.398v7.9219c-0.054687 32.234 6.5195 64.137 19.32 93.719 24.602 57.352 70.762 102.73 128.52 126.36 22.086 9.0781 45.441 14.703 69.238 16.684l22.922 0.96094c33 1.0781 49.559 1.6797 84 1.6797 70.078 0 101.4-2.3984 161.76-6.7188 17.281-1.1992 34.078-2.6406 50.281-4.1992l-0.003906-0.003906c23.086-2.1094 44.707-12.227 61.121-28.598 16.414-16.367 26.586-37.965 28.758-61.043 1.4414-13.801 2.6406-28.199 3.4805-42.961 1.5586-24.719 2.3984-50.641 2.3984-77.281 0-26.641-0.83984-52.559-2.3984-77.398-0.83984-14.52-2.0391-28.801-3.4805-42.359zm-504 62.039c-9.5469 0-18.703-3.793-25.457-10.543-6.75-6.75-10.543-15.91-10.543-25.457 0-9.5469 3.793-18.703 10.543-25.453 6.7539-6.7539 15.91-10.547 25.457-10.547s18.703 3.793 25.457 10.547c6.75 6.75 10.543 15.906 10.543 25.453-0.09375 9.5078-3.9453 18.59-10.711 25.266-6.7695 6.6797-15.902 10.406-25.41 10.375z"/>
  <path d="m989.28 446.64-129 98.758c-18.207 13.918-28.887 35.527-28.887 58.441 0 22.914 10.68 44.523 28.887 58.441l129 98.762v-0.003907c5.2109 4.1836 11.82 6.2188 18.484 5.6992 6.6602-0.51562 12.875-3.5547 17.375-8.4922 4.5039-4.9375 6.957-11.406 6.8594-18.086v-272.16c0.22266-6.7383-2.1523-13.301-6.6328-18.336-4.4805-5.0352-10.723-8.1602-17.438-8.7227-6.7188-0.5625-13.395 1.4766-18.648 5.6992z"/>
 </g>
</svg>
