<?xml version="1.0" encoding="utf-8"?>
<!-- Generator: Adobe Illustrator 27.0.1, SVG Export Plug-In . SVG Version: 6.00 Build 0)  -->
<svg version="1.1" id="Layer_1" xmlns="http://www.w3.org/2000/svg" xmlns:xlink="http://www.w3.org/1999/xlink" x="0px" y="0px"
	 viewBox="0 0 800 800" style="enable-background:new 0 0 800 800;" xml:space="preserve">
<style type="text/css">
	.st0{fill-rule:evenodd;clip-rule:evenodd;fill:#010101;}
</style>
<path class="st0" d="M725.6,588.4c-8.7,0-17.5,0-26.2,0c-2.6,11.5-30.5,27.5-42.7,34.5c0-0.5,0-0.9,0-1.4
	c9.6-21.9,39.2-140.4,35.9-155.8c-21.1-97.3-56.3-194.9-95.1-270.2c-0.5,0-0.9,0-1.4,0c-5.8,33.4-6.5,91.1-31.7,111.7
	c-0.5,0-0.9,0-1.4,0c-9.2-71.2-18.4-142.5-27.6-213.7c-0.5,0.9-0.9,1.8-1.4,2.8c-12.4,28.5-24.8,57-37.2,85.5
	c-16.6,35.9-42.8,65.8-66.2,102.5c-9,3.9-18.2,19.3-31.7,25.7c7.8-48.4,15.6-114.9,23.4-172.3c-0.5,0.9-0.9,1.8,9.4,2.8
	c-21.9,16.1-32.9,32.2-43.9,48.2c-34.3,48.7-87,119.4-128.2,157.2c-0.5-58.8-0.9-107-1.4-176.5c-0.5,0.9-0.9,1.8-1.4,2.8
	c-35.4,67.1-70.8,134.2-98.5,201.3c-23.4,31.7-39,63.4-54.6,95.1c2.3,11.5,3.2,25.7,5.5,37.2c10.4,45.3,22.7,86.5,34.5,124.1
	c-0.5,0-0.9,0-1.4,0c-0.9-0.9-1.8-1.8-2.8-2.7c-16.1-12.9-32.2-25.7-48.3-38.6c-8.3,0-16.6,0-24.8,0c-0.5-33.5-0.9-67.1-1.4-100.6
	c-16.5,7.8-33.1,15.6-43.3,23.4C17,453.8,7.2,379.1,18.1,325.1C55.8,137.8,177.1,27.2,340.8,9.4c49.4-1.3,113.9-1.8,157.2,6.9
	c46.3,12.6,88.2,30.5,122.7,55.1c80.2,57.2,133.5,146.9,154.4,263.3c2.5,58.8,7,117.6,11.7,176.5c-27.3-7.8-44.3-15.6-61.3-23.4
	C725.6,521.3,725.6,554.8,725.6,588.4z M529.7,360.9c-37.1-1.1-57.2,6.5-82.7,23.4c0.5,8.8,0.9,5.5,1.4,8.3c23,1.7,54-3.8,74.5,2.8
	c38.5,12.4,48.5,31.4,63.4,38.6c0.5-1.4,0.9-2.8,1.4-4.1c0.8-20.7-37.4-52.4-31.7-56.5c14.4-1.7,37.9-40.6,45.5-55.1
	c0.5,0,0.9,0,1.4,0c12.9,43.2,29.1,86.4,47.3,129.6c-3.9,27.5-20.6,77.9-28,104.8c-10.4,37.7-16.2,78.9-34.5,110.3
	c-16.1,27.8-151,121.1-187.5,128.2c-22.4,4.4-76.4-38-91-43.5c-28-25-56.1-45.2-84.1-54.5c-30.3-46.1-41.3-103.4-55.2-154.3
	c-6-22.9-12-57.9-17.9-86.8c22.1-43.2,44.1-86.4,66.2-129.6c0.9,0,1.8,0,2.8,0c0,0.5,0,0.9,0,1.4c-0.9,23.9-1.8,47.8-2.8,71.7
	c-5.1,6.4-14.8,19.1-16.6,37.2c0.9,0.5,4.6,0.9,5.5,1.4c26-12.9,38.1-32.9,73.1-41.4c21.1-3.1,53.1,10.3,60.7-2.7
	c0.5-1.8,0.9-3.7,1.4-5.5c-10.4-1.1-26.7-16.3-46.9-18.4c9.2-12.8,18.4-22,27.6-31.2c22.1-15.6,31.2-31.3,40.3-46.9
	c-3.5,0-2.6,0-1.7,0c-5.5,38.6-11,77.2-16.6,115.8c48.5-27.5,93.7-75.4,128.2-117.2c12.9-18.8,25.7-37.7,38.6-56.5
	c0.5,0,0.9,0,1.4,0C527.2,273.6,524.2,317.3,529.7,360.9z M277.4,446.4c-24.1,5.1-46.8,13.6-55.2,52.4c0.5,0.5,0.9,0.9,4.4,1.4
	c17.2,4.1,37.5-6.4,57.7-9.6c24.5-0.7,44.2,8.6,64.8,11c-3.3-17.9-23-42.5-26.2-48.2C319,446.3,303,445.7,277.4,446.4z M487,446.4
	c0.1,1.4-12,2.8-14.5,4.1c-12.5,17.4-26,33.6-32.4,51c1.4,0,2.8,0,13.9,0c11-7,40.7-14.2,66.1-9.6c14.5,2.5,32.3,10.3,48,6.9
	c0-0.5,0,8,0,3.4C559.1,460,533.5,445.2,487,446.4z M430.4,578.7c-36.6,25.7-76-5.2-85.5,5.5c-0.5,3.2-0.9,6.4-1.4,9.6
	c21.4,27.4,74.8,31.2,104.8-2.7c-0.5-2.8-0.9-5.5-1.4,2.7C441.7,580.1,439.4,578.9,430.4,578.7z M284.3,650.4
	c-2.1,7.8,3.2,13.5,2.7,20.7c58.8,24.4,144,26.3,193.1,8.3c10.1-3.1,19-4.7,33.4-11c-3.9-5-2.5-5.2-4.4-17.9
	C434.1,650.4,367.7,650.4,284.3,650.4z"/>
</svg>
