<?xml version="1.0" encoding="utf-8"?>
<!-- Generator: Adobe Illustrator 27.0.1, SVG Export Plug-In . SVG Version: 6.00 Build 0)  -->
<svg version="1.1" id="Layer_1" xmlns="http://www.w3.org/2000/svg" xmlns:xlink="http://www.w3.org/1999/xlink" x="0px" y="0px"
	 viewBox="0 0 800 800" style="enable-background:new 0 0 800 800;" xml:space="preserve">
<style type="text/css">
	.st0{fill-rule:evenodd;clip-rule:evenodd;fill:#010101;}
</style>
<path class="st0" d="M721.7,584.8c-8.6,0-17.3,0-25.9,0c-13.7,13.3-31.7,29-42.2,34.1c0-0.4,0-0.9,0-1.4
	c8.4-21.6,39.7-133.3,35.4-154c-19-92.6-63.4-194.8-94-267.1c-0.5,0-0.9,0-1.4,0c5.5,33.6-9.4,88.6-31.3,110.4c-0.5,0-0.9,0-1.4,0
	c-9.1-70.4-18.2-140.8-27.3-211.2c-0.4,0.9-0.9,1.8-1.4,2.7c-12.3,28.2-24.5,64.7-36.8,84.5c-16.4,35.5-42.3,65.1-65.4,104.4
	c-8.9,2.4-17.9,16-31.3,22.3c7.7-56.8,15.4-113.6,23.2-170.3c-0.5,0.9,9.4,1.8,4.8,2.7c-17.1,15.9-28,31.8-38.9,47.7
	C354,237.8,303.1,307.1,261.2,345c-0.4-58.1-0.9-116.3-1.4-174.4c-0.5,0.9-0.9,1.8-1.4,2.7c-35,68.4-69.9,132.6-95.3,198.9
	c-25,31.3-40.5,62.7-55.9,94c2.3,11.4,4.5,22.7,6.8,34.1c8.8,46.6,22.1,97.7,32.7,125.4c-0.5,0-0.9,0-1.4,0
	c-0.9-0.9-1.8-1.8-2.7-2.7c-15.9-12.7-31.8-25.4-47.7-38.2c-8.2,0-16.4,0-24.5,0c-0.5-33.2,0.4-67.7,0-100.8
	c-16.4,7.7-34.1,16.8-50.4,24.5c-0.6-58.4-2.8-149.2,2.7-180.5C67,125.6,184.2,43.9,341.6,12.6c48.6-6.8,112.5-4.8,155.3,6.8
	c45.7,12.4,87.1,30.2,121.3,54.5c79.3,56.5,131.9,145.2,152.6,260.3c7.6,58.1,5.7,116.3,10.2,174.4c-25.6-7.7-42.4-15.4-59.2-23.2
	C721.7,523.3,721.7,551.7,721.7,584.8z M509.1,230.6c6.7,6.7,21.6,112.1,17.7,125.4c-27.6,8.1-94.9,50.4-89.9,87.2
	c6.2,7.4,7,4.8,16.4,5.5c17.9-20.5,47-40.6,72.2-53.1c15.3-7.6,36-4.6,46.3-23.2c-1.8-4.5-3.6-9.1,4.8-13.6
	c4.1-11,9.9-28.3,22.5-40.9c0.5,0,0.9,0,1.4,0C613,356,640.3,441,640,451.3c4.1,41.1-42.4,191.9-60,215.3c-19,25.4-52.8,41.6-79,60
	c-16.7,11.7-84.5,60.9-110.4,64.8c-10.9-7.2-162.5-92.7-178.5-134.3c-13.5-26.7-24.5-68.8-35.4-104.9
	c-5.9-19.5-23.3-88.2-21.8-102.2c21.8-42.7,43.6-85.4,65.4-128.1c0.9,0,0.5,31.3,1.4,31.3c-2,2.7-5.1,1.9-13.6,16.4
	c2.1,7.4,5.2,8.8,12.3,10.9c0,10,0,20,0,30c13.7-4.2,22.9-9.1,34.1-15c25.9,20.6,51.2,33.6,73.6,53.1c9.5-0.7,13.3-4,17.7-9.5
	c-6.8-32.5-34.8-45.7-60-68.1c2.3-2.7,4.5-5.5,6.8-8.2c24.3-17.3,51.6-52,68.1-74.9c0.5,0,0.9,0,1.4,0
	c-5.5,38.1-10.9,76.3-16.4,114.5C410.5,361.9,472.2,299.7,509.1,230.6z M217.6,417.2c-1.4,15.4,4.9,11.4-4.1,19.8
	c6.4,1.1,22.3,4.2,19.1,13.7c-10.6,12.7-18.7,27.4-8.2,52.3c36.4-4.8,65.9,0.1,83.1,8.2c7.9-11.6,13.1-24.3,24.5-32.7
	c-0.4-1.4-0.9-2.7-1.4-4.1C295.7,455.9,260.4,426.7,217.6,417.2z M558.2,417.2c-38.1,19.6-80.6,32.1-110.4,60c0,0.5,0,0.9,0,1.4
	c7.6,5.9,20.4,31.3,24.5,32.7c12.3-3.2,24.5-6.4,36.8-9.5c15.4,0.5,30.9,0.9,46.3,1.4c7.1-11.5,5.4-42-8.2-55.9
	c0.5,8,0.9,6.6,1.4-2.7c5.9-4.1,11.8-8.2,28-12.3c-9.1-4.5-12.1-9.1-13-13.6C561.8,418.1,560,417.7,558.2,417.2z M358.7,560.3
	c-14,5.1-16.1,10.1-17.2,15c27.7,48.2,83.8,41.3,110.4,0c-0.9-4.6-3.2-9.9,2.1-15c-11.7,0-14.4,0-17.1,0c-23.9,33-57,33.6-80.4,0
	C353.8,560.3,351.1,560.3,358.7,560.3z M393.3,620.3c-11.7,1-44.4,2.8-58.6,9.5c-4.6,11.2-30.4,59.6-16.8,91.3
	c10.9,7.2,155.4,2.7,166.7-2.7c7.9-19.6-19.1-81-28.6-94C435.1,623,428.9,621.6,393.3,620.3z M466.9,709.6c-40-8.5-92.7-8-139-7.6
	c0,6.1,0-4.5,0-6.8c0.9-4.5,1.8-9.1,2.7-13.6c12.7-0.9,25.4-1.8,38.1-2.7c0.9-5,1.8-10,11.1-10.1c-8.8,3-9.3-5.8-9.8-6.3
	c-6.8,0.5-16,9.3-32.7,6.3c3.6-12.2,8.6-19.4,12.3-26.7c31.8-0.5,63.6-0.9,104.3-1.4c-5.8,7.3-2.6,14.5,0.6,21.8
	c-18.2,0.5-36.3,9.3-54.5,6.3c-0.5,0.5-0.9,6-1.4,11.4c23.5,0,42.7,0,64,0C464.2,687,465.6,693.8,466.9,709.6z"/>
</svg>
