<?xml version="1.0" encoding="utf-8"?>
<!-- Generator: Adobe Illustrator 27.0.1, SVG Export Plug-In . SVG Version: 6.00 Build 0)  -->
<svg version="1.1" id="Layer_1" xmlns="http://www.w3.org/2000/svg" xmlns:xlink="http://www.w3.org/1999/xlink" x="0px" y="0px"
	 viewBox="0 0 800 800" style="enable-background:new 0 0 800 800;" xml:space="preserve">
<style type="text/css">
	.st0{fill-rule:evenodd;clip-rule:evenodd;fill:#010101;}
</style>
<path class="st0" d="M725.7,587.5c-8.7,0-17.4,0-26.2,0c-12.4,12.6-27.2,26.2-42.7,34.4c0-0.5,0-0.9,0,8
	c8.5-31.2,39.9-146.5,35.8-165c-21.3-97.1-57-193.9-95-269.8c-0.5,0-0.9,0-1.4,0c-2.9,34-16.5,94.6-31.7,111.5c-0.5,0-0.9,0-1.4,0
	c-9.2-71.1-18.4-142.3-27.5-213.4c-0.5,0.9-0.9,1.8-1.4,2.8c-12.4,28.4-24.8,56.9-37.2,85.4c-16.6,35.8-42.8,65.7-66.1,99.2
	c-9,7.1-20.1,21.8-31.7,28.8c7.8-51.2,15.6-114.7,23.4-172.1c-0.5,0.9-0.9,1.8,7.8,2.8c-20.2,16.1-31.2,32.1-42.2,48.2
	c-34.2,48.6-87.6,120.2-128.1,157c-0.5-58.7-0.9-109.4-1.4-176.2c-0.5,0.9-0.9,1.8-1.4,2.7c-35.3,67-70.7,134-96.7,201
	c-25,31.7-40.6,69.1-56.2,95c2.3,11.5,4.6,25.7,6.9,37.2c10.4,45.2,21.8,86.9,33,123.9c-0.5,0-0.9,0-1.4,0c-0.9-0.9-1.8-1.8-2.7-2.8
	c-16.1-12.8-32.1-25.7-48.2-38.5c-8.3,0-16.5,0-24.8,0c-0.5-33.5-0.9-67-1.4-100.5c-16.5,7.8-33.1,15.6-40.1,23.4
	c-8.1-63.5-7.2-151.9-6.7-185.9C59.5,133.7,181.2,27.4,341.5,9.3c49.3-1.1,113.8-1.9,157,6.9c46.2,12.6,88.1,30.5,122.6,55.1
	c80.1,57.1,133.3,146.7,154.3,263c0.5,58.7,3.4,117.5,5.8,176.2c-21.4-7.8-38.4-15.6-55.4-23.4C725.7,520.5,725.7,554,725.7,587.5z
	 M512.3,226.8c6,15.4,13.3,105.2,17.9,129.4c-15.2-10.2-90.8,10.5-81.3,33c77.1-8.9,102.7,11.9,136.3,41.3c1.8-0.9,3.7-1.8,5.5-2.8
	c0-2.7,0-5.5,0-8.3c-8-30.2-30.9-47.7-33.1-49.6c19.7-13.2,37.2-42.2,44.1-52.3c0.5,0,0.9,0,1.4,0c12.4,41,36.3,101.7,39.9,134.9
	c1.9,17.6-42.9,193.9-60.6,217.5c-19.3,25.7-53.4,42-79.9,67.2c-16.9,7.9-98.3,56-99.1,53.9c-45.7-10.1-177.9-98.3-192.9-130.8
	c-1.4-22.2-24.8-69.5-35.8-106c-5.9-8.7-22.9-89.8-22-103.3c22-43.1,44.1-86.3,66.1-129.4c0.9,0,1.8,0,2.7,0
	c-0.5,19.7-0.9,42.2-1.4,61.9c-2.9,8.7-20.9,22.8-22,38.5c0.9,2.3,3.2,6,4.1,8.3c1.4,0,2.8,0,4.1,0c39.7-40.8,78.7-49.7,133.6-39.9
	c0.5,6.4,2.3-7.8,2.8-11c-12.7-8.6-26-12.5-42.7-22c19.5-16.9,42.5-47.5,60.6-70.2c0.5,0,0.9,0,1.4,0c-5.5,46.9-11,77.1-16.5,115.6
	C419.1,360.5,474.9,296.7,512.3,226.8z M228.2,500.8c10.5-0.2,43.2-13.8,72-11c18.3,3,34,10.1,49.6,11c0-0.5,0-0.9,0-1.4
	c-5.2-9-20.1-46.2-25.1-48.2C269.8,437.4,223.9,459.1,228.2,500.8z M566,500.8c0.5-28.6-41.2-59.9-100.5-48.2
	c-3.8,1-21.3,33.8-24.8,48.2c15.6-0.9,25.7-6,43.6-9.6C514.7,487.7,544.9,496,566,500.8z M348.4,580.6c1.2,4.3-2.8,4.6-4.1,6.9
	c0,1.4,0,2.7,0,4.1c10.1,27.7,92.8,35.8,104.7-5.5c-1.4-1.8-2.8-3.7-4.1-5.5c-18.2,0.2-20.5,6.1-41.2,8.3
	C372.9,588.2,367.3,581.1,348.4,580.6z M293.3,638.5c-2.3,2.7-4.6,5.5,2.4,8.3c46.8,97.7,151.1,98.2,215.7,0
	c-6.9-2.7-9.2-5.5-11.5-8.3C443.5,652.8,353.4,652.5,293.3,638.5z"/>
</svg>
