<?xml version="1.0" encoding="utf-8"?>
<!-- Generator: Adobe Illustrator 27.0.1, SVG Export Plug-In . SVG Version: 6.00 Build 0)  -->
<svg version="1.1" id="Layer_1" xmlns="http://www.w3.org/2000/svg" xmlns:xlink="http://www.w3.org/1999/xlink" x="0px" y="0px"
	 viewBox="0 0 800 800" style="enable-background:new 0 0 800 800;" xml:space="preserve">
<style type="text/css">
	.st0{fill-rule:evenodd;clip-rule:evenodd;fill:#010101;}
</style>
<path class="st0" d="M728.3,588.1c-8.7,0-17.5,0-26.2,0c-14.9,14.4-28.8,25.7-42.8,37.3c0-0.5,0-3.7,0-4.1
	c8.5-21.9,39.6-137.3,35.9-155.9c-18.6-93.7-63.8-197.8-95.2-270.4c-0.5,0-0.9,0-1.4,0c-4.1,34.1-16.9,94.8-31.7,111.7
	c-0.5,0-0.9,0-1.4,0c-9.2-71.3-18.4-142.6-27.6-213.8c-0.5,0.9-0.9,1.8-1.4,2.8c-12.4,28.5-24.8,60-37.3,85.5
	c-16.6,35.9-42.9,65.9-66.2,105.6c-9,2.2-20.6,16.2-31.7,22.7c7.8-57.5,18.6-115.5,23.5-172.4c-0.5,0.9,9.6,1.8,4.9,2.8
	c-17.3,16.1-29.8,32.2-40.8,48.3c-35.1,49-86.2,121.2-127,157.3c-0.5-58.8-0.9-117.7-1.4-176.6c-0.5,0.9-0.9,1.8-1.4,2.8
	c-35.4,69.9-70.9,134.3-102.1,201.4c-19.8,31.7-35.5,63.5-51.1,95.2c2.3,11.5,4.6,23,6.9,34.5c8.4,48.7,21.8,89.1,33.1,126.9
	c-0.5,0-0.9,0-1.4,0c-0.9-0.9-1.8-1.8-2.8-2.8c-16.1-12.9-32.2-25.8-48.3-38.6c-8.3,0-16.6,0-24.8,0c-0.5-33.6,0.5-68.5,0-102.1
	C52,493.9,34,504.4,20.7,512.3c-1.4-60.2-9.3-143.4-0.4-185C53.5,158.7,163.1,32.8,343.2,8.8c49.3-1.1,114,6.5,157.3,6.9
	c46.3,12.6,88.3,30.5,122.8,55.2c80.3,59.5,133.6,147,154.6,263.5c0.5,58.8,5.8,117.7,5.9,176.6c-21.5-7.8-38.6-15.6-55.6-23.5
	C728.3,527.1,728.3,554.6,728.3,588.1z M513,229.5c11,15.7,17.1,123.5,23.5,155.9c33.2-16.3,50.6-36.6,67.6-67.6c0.5,0,0.9,0,1.4,0
	c12.8,41.9,37,109.8,40,135.2c2.2,18.4-43,194.3-60.7,218c-19.3,25.7-53.5,42.1-80,60.7c-16.9,11.9-86.1,65.1-111.8,59.3
	c-39.1-8.8-162.6-98.8-180.8-129.7c-18.1-30.6-24.9-69.6-35.9-106.2c-5.9-19.7-22.2-89.2-22.1-103.5c22.1-43.2,44.2-86.5,66.2-129.7
	c0.9,0,1.8,0,2.8,0c-0.9,29.9-1.8,59.8-2.8,100.4c48.3-20,108.2-92.8,142.2-134.9c0.5,0,0.9,0,1.4,0c-3.7,26.2-7.4,55.2-11,81.4
	c-1.8-2.7-6.8-8.5-13.8-8.3c-19.3,14.7-32.1,29.4-58,44.1c-16.1,9.5-55.5,22.3-62.1,37.6c-0.1-0.6-2.3,7.4,2.8,12
	c73.5,8.1,127-56.6,127-56.6s-0.6,5.9,0,5.5C400.8,366.8,473.3,303.2,513,229.5z M459.1,360.5c-2.3,3.2-4.6,6.4-6.9,9.7
	c-22.8,45.3,86.1,85.5,141,84.1c-9.4-1.4-8.9-2.8-8.5-4.1c4-5.9,2.1-11.5,0-17.9c-18.3-5.8-54-15-73.4-35.9
	C493.1,388.2,480.5,364.5,459.1,360.5z M344.6,464c-13.2,7.3-73.2,19.8-125.6,19.3c-1,0-3.1,5.1,6.3,6.9
	c12.6,14.4,10.7,22.7,11.7,24.8c11.5,23.5,93.4,29.3,104.9,5.5c2.8-18.9,5.5-37.7,8.3-56.6C348.3,464,346.4,464,344.6,464z
	 M453.6,464c2.8,19.8,5.5,39.5,8.3,59.3c41.8,30.3,110.8,2.9,107.7-17.9c-0.6-3.8,14.1-9.3,19.3-15.2c-0.9-2.3-1.8-4.6-2.8-6.9
	C538.4,484.1,494.1,473.3,453.6,464z M357,577.1c-2.3,2.8-4.6,7.7-6.9,8.3c0.5,2.3,0.9,4.6,1.4,6.9c27.9,34.4,82.5,29.2,103.5-1.4
	c-1.1-4.1-3.3-8.9,2-13.8c-29.5,0.9-37.6,16.7-61.3,12.4C380.7,586.8,385.5,577.9,357,577.1z M401.2,639.2
	c-34.3,2.3-72.9,23.7-92.5,64.8c0.9,7.4,1.8,3.7,2.8,5.5c56.9-29.9,126.6-21.1,182.2,0c0.9-0.5,1.8-0.9,4-1.4c0,7.9,0-3.7,0-5.5
	C481.2,675.9,458.9,647.4,401.2,639.2z"/>
</svg>
