<?xml version="1.0" encoding="utf-8"?>
<!-- Generator: Adobe Illustrator 27.0.1, SVG Export Plug-In . SVG Version: 6.00 Build 0)  -->
<svg version="1.1" id="Layer_1" xmlns="http://www.w3.org/2000/svg" xmlns:xlink="http://www.w3.org/1999/xlink" x="0px" y="0px"
	 viewBox="0 0 800 800" style="enable-background:new 0 0 800 800;" xml:space="preserve">
<style type="text/css">
	.st0{fill-rule:evenodd;clip-rule:evenodd;fill:#010101;}
</style>
<path class="st0" d="M774,567.1L721.7,583H638l-75.9-5.3l-31.4-50.4L502,506.1L444.5,461l-86.3-61l-45-61l5-47.7l-10.5-130l96.8-2.6
	h123.6l-7.8,92.8l18.3,76.9l44.5,63.6l128.2,74.3l41.9,15.9l39.2,69L774,567.1z M321.5,418.6L449.7,522l41.9,18.6l39.2,69l-9.4,15.9
	l-61.2,15.9h-83.7l-73.2-7.9L36.4,577.7L7.7,564.4V514l7.8-50.4l20.9-87.5l2.6-58.3l-10.5-130l96.8-2.7h144.3l-11,98.1l18.3,71.6
	L321.5,418.6z"/>
</svg>
