<?xml version="1.0" encoding="UTF-8"?>
<svg version="1.1" viewBox="0 0 1200 1200" xmlns="http://www.w3.org/2000/svg">
 <path d="m1196.6 363.84-285.03-236.34c-2.8398-2.3555-6.7852-2.8555-10.129-1.2891-3.3398 1.5703-5.4727 4.9297-5.4727 8.6172v146.01c-93.984 1.6172-182.17 27.145-249.25 72.297-16.918 11.391-32.586 24.113-46.676 37.906-14.09-13.793-29.754-26.516-46.676-37.91-67.074-45.152-155.26-70.68-249.25-72.297l-0.003906-146c0-3.6914-2.1328-7.0508-5.4727-8.6172-3.3398-1.5703-7.2891-1.0703-10.129 1.2891l-285.03 236.34c-2.1836 1.8086-3.4453 4.4961-3.4453 7.332 0 2.832 1.2617 5.5195 3.4453 7.332l285.03 236.34c2.8398 2.3555 6.7891 2.8555 10.129 1.2891 3.3398-1.5703 5.4727-4.9297 5.4727-8.6172v-145.78c77.191 2.3516 208.32 33.383 208.32 138.86v464.58c0 5.2578 4.2656 9.5234 9.5234 9.5234h156.16c5.2578 0 9.5234-4.2656 9.5234-9.5234v-464.58c0-105.48 131.13-136.5 208.32-138.86v145.78c0 3.6914 2.1328 7.0508 5.4727 8.6172 3.3398 1.5664 7.2891 1.0703 10.129-1.2891l285.03-236.34c2.1836-1.8086 3.4453-4.4961 3.4453-7.332 0.003906-2.832-1.2617-5.5195-3.4453-7.3281z"/>
</svg>
