<?xml version="1.0" encoding="utf-8"?>
<!-- Generator: Adobe Illustrator 27.0.1, SVG Export Plug-In . SVG Version: 6.00 Build 0)  -->
<svg version="1.1" id="Layer_1" xmlns="http://www.w3.org/2000/svg" xmlns:xlink="http://www.w3.org/1999/xlink" x="0px" y="0px"
	 viewBox="0 0 800 800" style="enable-background:new 0 0 800 800;" xml:space="preserve">
<style type="text/css">
	.st0{fill-rule:evenodd;clip-rule:evenodd;fill:#010101;}
</style>
<path class="st0" d="M792.3,279.4v64.2L722.2,365l-23.6,50.9l40.2,61.6L688,528.3l-61.6-40.2l-53.5,21.4l-18.7,74.9l-66.9-2.7
	l-13.4-77.6l-56.2-16.1l-64.2,40.2l-48.2-50.9l46.4-61.6L324,365L249,343.6V282l72.3-18.7l26.8-50.9l-40.2-66.9l48.2-45.5l61.6,37.5
	l50.9-18.7l16.1-77.6h69.6l18.7,74.9l45.5,21.4l79.5-37.5l49.8,45.5L696,212.4l18.7,45.5L792.3,279.4z M522,213.4
	c-54.1,0-98,43.9-98,98s43.9,98,98,98c54.1,0,98-43.9,98-98S576.2,213.4,522,213.4z M256.6,530.1l24.5,38.9l51,12.2v51l-51,8.2
	l-26.5,42.9l20.4,46.9l-44.9,28.6L202.6,718h-58.2l-32.7,40.8l-44.9-26.5l18.4-46.9l-14.1-42.9L7.7,632.3v-51l63.5-7.4l14.1-45.7
	l-18.4-49l44.9-24.5l32.7,36.7h58.2l25.5-38.8l46.9,26.5L256.6,530.1z M168.9,543.5c-34.4,0-62.2,33.6-62.2,62.3
	c0,34.4,27.9,62.2,62.2,62.2c34.4,0,62.2-27.9,62.2-62.2C231.1,577.1,203.3,543.5,168.9,543.5z"/>
</svg>
