<?xml version="1.0" encoding="utf-8"?>
<!-- Generator: Adobe Illustrator 27.0.1, SVG Export Plug-In . SVG Version: 6.00 Build 0)  -->
<svg version="1.1" id="Layer_1" xmlns="http://www.w3.org/2000/svg" xmlns:xlink="http://www.w3.org/1999/xlink" x="0px" y="0px"
	 viewBox="0 0 800 800" style="enable-background:new 0 0 800 800;" xml:space="preserve">
<style type="text/css">
	.st0{fill-rule:evenodd;clip-rule:evenodd;fill:#010101;}
</style>
<path class="st0" d="M712.3,720.4L9.6,616.2L87.7,79.6l702.8,108.3L712.3,720.4z M74.3,561.5l595.1,90.1l58.9-416.8L135,154.5
	L74.3,561.5z M165.7,472.8l57.7-16l85.2,9.8l34.6,9.8l132.2-152.7l69.2,140.4l64.1-57.9l28.2,199.7L124,529.6L165.7,472.8z M266,368
	c-37.3,0-67.4-30.2-67.4-67.5c0-37.3,30.2-67.5,67.4-67.5c37.2,0,67.4,30.2,67.4,67.5C333.5,337.9,303.3,368,266,368z"/>
</svg>
