<?xml version="1.0" encoding="utf-8"?>
<!-- Generator: Adobe Illustrator 27.0.1, SVG Export Plug-In . SVG Version: 6.00 Build 0)  -->
<svg version="1.1" id="Layer_1" xmlns="http://www.w3.org/2000/svg" xmlns:xlink="http://www.w3.org/1999/xlink" x="0px" y="0px"
	 viewBox="0 0 800 800" style="enable-background:new 0 0 800 800;" xml:space="preserve">
<style type="text/css">
	.st0{fill-rule:evenodd;clip-rule:evenodd;fill:#010101;}
</style>
<path class="st0" d="M705.8,438.3l-27.7-5.5l-41.4,94.4l-40.5,1.4l41.1-104l-49.2-93l-65.7-64.3l-62.9,49.6l-84.8,47.9l9.6-37.2
	l2.7-57.5l-129.4,61.6l-81.3,105.2c0,0,47.4,109.1,45.2,110.8l-32.8,1.4l-43.8-88.9L108.4,478l10.4-78.3L94.2,291.9l13.7-53.4
	l31.5-88.9l71.2-73.9l87.6-61.6L387,8.6l102.6,1L569,47l54.7,50.6l38.3,67.1l24.6,49.3l17.8,87.4l-6,78L705.8,438.3z M265.2,364.4
	l101.3-56l-24.6,97.4l134-67l50.6-31.8l36.9,41.1l41.1,73.9l-36.9,90.3l-27.4,53.4L493.7,610l-69.8,40.7l-11.2,2.5l-27.1-6.8
	l-68.4-35.6l-50.6-49.3l-36.9-73.9l-21.9-49.3L265.2,364.4z M272.1,670.9l-1.4-50.8l95.8,48.1l46.3,9.6l30.4-8.2l86.2-49.3l9.6,69.8
	l32.8,35.6l-159,65.7l-176.3-57.5l21.9-9.6L272.1,670.9z"/>
</svg>
