<?xml version="1.0" encoding="utf-8"?>
<!-- Generator: Adobe Illustrator 27.0.1, SVG Export Plug-In . SVG Version: 6.00 Build 0)  -->
<svg version="1.1" id="Layer_1" xmlns="http://www.w3.org/2000/svg" xmlns:xlink="http://www.w3.org/1999/xlink" x="0px" y="0px"
	 viewBox="0 0 800 800" style="enable-background:new 0 0 800 800;" xml:space="preserve">
<style type="text/css">
	.st0{fill-rule:evenodd;clip-rule:evenodd;fill:#010101;}
</style>
<path class="st0" d="M765.6,454.9l-53.4,75.9l-48,45.6l127.2,134.4L722,770.3L20.4,104.4l64-74.7l136.8,126.5l90.7-35.4l106.8-10.1
	L548,130.9l121.5,75.9l80.1,94l42.7,98.8L765.6,454.9z M589.5,350.2l-31.1-77.6L482.7,222L392,206.8l-90.8,45l69.4,51.2l64.1,5.1
	l37.4,20.2l26.7,50.6l-5.3,40.5l74.7,70.9l26.7-65.8L589.5,350.2z M98.4,247.3l112.1,101.3L205.2,449l48,71.6l80.1,50.6l90.7,10.1
	l26.7-5.1l97.3,75.9l-113.3,25.3l-117.4-10.1l-133.5-50.6L82.4,525.7l-58.7-86.1l-16-40.1L45,308.1L98.4,247.3z"/>
</svg>
