<?xml version="1.0" encoding="UTF-8"?>
<svg version="1.1" viewBox="0 0 1200 1200" xmlns="http://www.w3.org/2000/svg">
 <path d="m994.5 635.16c11.152 31.645 36.656 56.121 68.73 65.965 32.078 9.8398 66.922 3.8828 93.902-16.062 26.98-19.945 42.902-51.508 42.902-85.059s-15.922-65.113-42.902-85.059c-26.98-19.945-61.824-25.902-93.902-16.062-32.074 9.8438-57.578 34.32-68.73 65.965h-288.73v-353.32h56.25l130.95 130.92c6.5898 6.5859 15.527 10.285 24.844 10.289h76.781c11.152 31.645 36.656 56.121 68.73 65.965 32.078 9.8398 66.922 3.8828 93.902-16.062 26.98-19.945 42.902-51.508 42.902-85.059s-15.922-65.113-42.902-85.059c-26.98-19.945-61.824-25.902-93.902-16.062-32.074 9.8438-57.578 34.32-68.73 65.965h-62.297l-130.92-130.92c-6.5977-6.5938-15.543-10.293-24.867-10.289h-76.055c-19.922-80.93-94.172-141.21-182.48-141.21-32.887-0.23047-65.25 8.2109-93.84 24.465-28.586 16.258-52.387 39.758-69.004 68.137-4.6875-0.25781-9.375-0.375-14.062-0.375-136.17 0-246.96 108.84-246.96 242.65 0.03125 10.094 0.69531 20.176 1.9922 30.188-40.941 38.82-70.43 88.145-85.242 142.59-14.812 54.441-14.379 111.91 1.2461 166.12 15.629 54.215 45.852 103.09 87.371 141.29-3.5156 16.453-5.2852 33.234-5.2734 50.062 0 133.8 110.79 242.65 246.96 242.65 4.6875 0 9.375-0.125 14.062-0.375 16.609 28.367 40.395 51.855 68.965 68.113 28.57 16.254 60.914 24.699 93.785 24.488 88.312 0 162.56-60.281 182.48-141.21h76.055c9.3242 0.003907 18.27-3.6953 24.867-10.289l130.92-130.92h62.203c11.152 31.645 36.656 56.121 68.73 65.965 32.078 9.8398 66.922 3.8828 93.902-16.062 26.98-19.945 42.902-51.508 42.902-85.059s-15.922-65.113-42.902-85.059c-26.98-19.945-61.824-25.902-93.902-16.062-32.074 9.8438-57.578 34.32-68.73 65.965h-76.781c-9.3164 0.003906-18.254 3.7031-24.844 10.289l-130.92 130.92h-56.25v-353.32zm-704.84-347.02c6.0508-4.0859 13.215-6.2031 20.512-6.0625 7.3008 0.13672 14.379 2.5234 20.27 6.8359 2.4961 1.7852 4.7578 3.8789 6.7266 6.2344 9.5156 7.8984 29.039 18.914 39.469 17.156 1.2891-0.23438 5.2266-0.91406 10.242-10.711 24.094-47.203 53.906-72.891 88.664-76.406 45.141-4.6875 75 31.078 78.234 35.156l-54.961 43.852 0.32813 0.39844c-3.0703-3.6094-11.109-10.078-16.664-9.375-6.5625 0.77344-19.148 11.297-32.977 38.414-16.172 31.688-43.195 49.219-75.164 49.219-3.5312-0.003906-7.0625-0.21484-10.57-0.63281-17.789-2.0625-36.328-9.1641-55.055-21.094-29.344-18.75-31.805-28.758-33.445-35.414-1.7344-6.9844-1.2852-14.328 1.2891-21.047s7.1484-12.484 13.102-16.523zm-10.758 385.66c-24.539-20.203-37.898-53.18-39.844-98.109-3.2109 3.5625-6.3516 7.2891-9.0938 10.898-7.5586 10.047-19.902 15.301-32.383 13.781-12.48-1.5195-23.199-9.5859-28.125-21.152-4.9219-11.57-3.3008-24.887 4.2578-34.934 19.477-25.781 58.008-67.406 97.172-54.305 25.312 8.4609 38.133 33.586 38.133 74.719 0 38.836 10.031 51.281 14.344 54.82 2.8398 2.2344 6.3242 3.5 9.9375 3.6094 12.324-2.4141 25.004 1.9258 33.258 11.395 8.2539 9.4648 10.832 22.617 6.7617 34.5-4.0703 11.883-14.172 20.691-26.496 23.105-4.3789 0.77344-8.8203 1.1445-13.266 1.1016-19.926 0.078125-39.25-6.793-54.656-19.43zm216.3 150.52c-11.859 1.6641-25.57 4.9219-35.438 11.273 22.992 27.141 32.086 58.055 25.781 89.062-1.6211 7.9336-5.9258 15.062-12.195 20.188s-14.113 7.9297-22.211 7.9375c-2.3633-0.003906-4.7188-0.24609-7.0312-0.72656-9.1367-1.8633-17.164-7.2812-22.305-15.062-5.1445-7.7773-6.9844-17.285-5.1172-26.422 6-29.367-44.062-57.305-57.797-63.164-9.3438-3.0508-16.98-9.8711-21.066-18.809-4.0859-8.9414-4.2422-19.18-0.42969-28.242 3.8086-9.0586 11.238-16.109 20.48-19.441 9.2461-3.3359 19.465-2.6445 28.18 1.8984 1.3828 0.58594 8.0625 3.4688 17.367 8.5781 15.914-16.102 41.32-30.914 82.031-36.609 9.25-1.3281 18.648 1.082 26.117 6.6992 7.4688 5.6133 12.395 13.973 13.691 23.227 1.2969 9.2539-1.1445 18.645-6.7852 26.094s-14.016 12.348-23.273 13.613zm39.164-330.73c-8.9766 1.2656-22.055 4.0078-31.688 9.8438 20.227 25.547 28.125 54.398 22.125 83.414-1.6211 7.9336-5.9258 15.062-12.195 20.188-6.2695 5.125-14.113 7.9297-22.211 7.9375-2.3633-0.003906-4.7188-0.24609-7.0312-0.72656-9.1367-1.8633-17.164-7.2812-22.305-15.062-5.1445-7.7773-6.9844-17.285-5.1172-26.422 5.4375-26.578-39.352-52.148-51.562-57.539-11.531-4.9805-19.527-15.738-20.977-28.215-1.4492-12.477 3.8633-24.777 13.945-32.273 10.078-7.4922 23.391-9.0391 34.922-4.0586 1.2188 0.51562 7.0312 3.0234 14.883 7.4531 15.328-15.117 39.469-28.852 77.555-34.172 9.3281-1.4805 18.855 0.85547 26.441 6.4805 7.5859 5.6211 12.59 14.059 13.887 23.414 1.2969 9.3516-1.2227 18.832-6.9922 26.309-5.7695 7.4766-14.305 12.316-23.68 13.43z"/>
</svg>
