<?xml version="1.0" encoding="utf-8"?>
<!-- Generator: Adobe Illustrator 27.0.1, SVG Export Plug-In . SVG Version: 6.00 Build 0)  -->
<svg version="1.1" id="Layer_1" xmlns="http://www.w3.org/2000/svg" xmlns:xlink="http://www.w3.org/1999/xlink" x="0px" y="0px"
	 viewBox="0 0 800 800" style="enable-background:new 0 0 800 800;" xml:space="preserve">
<style type="text/css">
	.st0{fill-rule:evenodd;clip-rule:evenodd;fill:#010101;}
</style>
<path class="st0" d="M264.2,8.6l-37,27.4l51.2,106.5l54.3,89.2l-6.4,5.1l-79.7-81.6l-87.4-107l-43.2,9.2l-13.4,46.5l87.7,110.6
	l71.5,76l-6.7,7.4L164.1,242L63.3,160.4L26.9,178l8.8,40.1l105.9,104l67.7,37.4l-1.1,9.2l-76-32l-53.7-36.3L43.5,315l-0.3,33.9
	l57.5,51l91.4,51.3l110.8,86.3L398,583l31.2,39.1l-0.6,39l70.2,130.2l95.3-41.5l113.6-87.1l65.4-92.1l-54.6-55.3l-59-47.6l-18.8,0.2
	l-32.5-43.5l-13.3-6.2l24.9-116.6L604,192.2l-1.6-89.1l-52.7,12.5L519,177.9l-10.9,65.5l-24.7,32.3L446.4,240l-43.8-47.1L338,101.3
	l-35.6-78.9L264.2,8.6z"/>
</svg>
