<?xml version="1.0" encoding="utf-8"?>
<!-- Generator: Adobe Illustrator 27.0.1, SVG Export Plug-In . SVG Version: 6.00 Build 0)  -->
<svg version="1.1" id="Layer_1" xmlns="http://www.w3.org/2000/svg" xmlns:xlink="http://www.w3.org/1999/xlink" x="0px" y="0px"
	 viewBox="0 0 800 800" style="enable-background:new 0 0 800 800;" xml:space="preserve">
<style type="text/css">
	.st0{fill-rule:evenodd;clip-rule:evenodd;fill:#010101;}
</style>
<path class="st0" d="M771.5,708.5l7.5,26.7l-97.9,36.2l-129.6,6l-7-31.3l8.9-14.4l-47.5-31.1l-46.3-225.5l-51.8-187.5l-37.1,188.8
	l-73.9,230.1L250,736.7l14.4,18.3L247,789.4L119.2,779l-77.1-25.7l4-34.2l1.7-19.1L21,649.3l31.2-89.9L158.1,211l32.7-146l25.6,0.3
	l2.8-31.4h130.4h-4.2l1.2-21.8l137-1.6l0.3,23.8l4.5,0l105.3-2.7l5.7,34l25.6-1.1L646,199.5l109.3,365l19.2,105.8l-17.8,31.1
	L771.5,708.5z M375.2,48.4l-3,49.5l79.8-3l1.5-63.2L375.2,48.4z"/>
</svg>
