<?xml version="1.0" encoding="UTF-8"?>
<svg version="1.1" viewBox="0 0 1200 1200" xmlns="http://www.w3.org/2000/svg">
 <g>
  <path d="m753.81 577.54-136.13 567.21c40.863-25.711 236.25-158.03 421.92-430.74h-233.3z"/>
  <path d="m160.52 714.02h184.92l147.2-367.99 98.617 315.53 131.87-549.52 178.28 463.52h217.67c52.066-125.23 37.391-228.47 11.875-297.7-39.23-106.84-127.39-192.92-230.08-224.77-94.613-29.309-204.69 15.695-300.92 122.31-96.23-106.85-206.31-151.62-300.69-122.31-102.69 31.848-191.08 117.93-230.31 224.77-31.152 85.156-46.387 221.77 59.309 387.46 10.688 16.805 21.473 32.848 32.262 48.699z"/>
  <path d="m439.19 852.48h-174.48c159.55 192.25 303.45 283.78 323.23 295.84l12 7.3828 0.5625-0.34375-123.89-396.43z"/>
  <path d="m733.35 267.2-136.25 567.79-109.8-351.34-110.61 276.52h-307.45v46.156h338.71l74.008-185.02 120.98 387.12 140.65-586.05 94.414 245.49h292.78v-46.156h-261.07z"/>
 </g>
</svg>
