<?xml version="1.0" encoding="UTF-8"?>
<svg version="1.1" viewBox="0 0 1200 1200" xmlns="http://www.w3.org/2000/svg">
 <path d="m948.75 454.88-48.75-11.25v-68.625c0-165.38-134.62-300-300-300s-300 134.62-300 300v68.625l-48.75 11.25c-44.25 10.125-75.375 49.125-75.375 94.5v403.12c0 45.375 31.125 84.375 75.375 94.5l327 75.375c7.125 1.875 14.25 2.625 21.75 2.625s14.625-0.75 21.75-2.625l327-75.375c44.25-10.125 75.375-49.125 75.375-94.5v-403.12c0-45.375-31.125-84.375-75.375-94.5zm-311.25 370.12c0 20.625-16.875 37.5-37.5 37.5s-37.5-16.875-37.5-37.5v-150c0-20.625 16.875-37.5 37.5-37.5s37.5 16.875 37.5 37.5zm187.5-398.62-203.25-46.875c-14.25-3.375-29.25-3.375-43.5 0l-203.25 46.875v-51.375c0-124.12 100.88-225 225-225s225 100.88 225 225z"/>
</svg>
