<?xml version="1.0" encoding="utf-8"?>
<!-- Generator: Adobe Illustrator 27.0.1, SVG Export Plug-In . SVG Version: 6.00 Build 0)  -->
<svg version="1.1" id="Layer_1" xmlns="http://www.w3.org/2000/svg" xmlns:xlink="http://www.w3.org/1999/xlink" x="0px" y="0px"
	 viewBox="0 0 800 800" style="enable-background:new 0 0 800 800;" xml:space="preserve">
<style type="text/css">
	.st0{fill-rule:evenodd;clip-rule:evenodd;fill:#010101;}
</style>
<path class="st0" d="M747.9,430.3l-258.2-8l153.8,159.9L617.3,689l-98.7-0.2l-84.2,45.3l-95.7-32L333,467.6L164.6,574.3l-89.9-29.4
	L42.8,430.3l-31.3-98.6l48.7-64l197.3,24L144.3,150.4l17.4-98.6l121.9-13.3l101.6-17.9L478,49.1l-14.5,205.2l174.2-117.3l87.9,13.3
	l16.5,137l46.4,68.3L747.9,430.3z M295.2,574.2l-75.4,205.2H86.3l-34.8-98.6l214.7-130.6L295.2,574.2z"/>
</svg>
