<?xml version="1.0" encoding="UTF-8"?>
<svg xmlns="http://www.w3.org/2000/svg" xmlns:xlink="http://www.w3.org/1999/xlink" viewBox="0 0 16 16" version="1.1">
<g id="surface1">
<path style=" stroke:none;fill-rule:nonzero;fill:rgb(0%,0%,0%);fill-opacity:1;" d="M 9.023438 0.015625 C 5.570312 -0.199219 2.664062 1.972656 2.730469 5.511719 L 2.726562 5.832031 L 1.226562 8.480469 C 1.148438 8.625 1.140625 8.796875 1.207031 8.945312 C 1.277344 9.097656 1.414062 9.203125 1.574219 9.234375 L 2.5 9.492188 L 2.792969 12.300781 C 2.800781 12.570312 2.921875 12.824219 3.125 13.003906 C 3.328125 13.179688 3.597656 13.265625 3.867188 13.234375 L 4.609375 13.292969 C 4.75 13.277344 4.898438 13.324219 5.003906 13.421875 C 5.113281 13.519531 5.175781 13.65625 5.175781 13.800781 L 5.175781 16 L 11.4375 16 C 11.4375 16 11.4375 14.941406 11.4375 14.511719 C 11.4375 14.085938 11.585938 13.109375 11.867188 12.664062 C 12.878906 11.039062 14.535156 10.175781 14.8125 6.84375 C 15.089844 3.515625 13.105469 0.265625 9.023438 0.015625 Z M 13.34375 6.207031 C 13.035156 6.207031 12.714844 6.207031 12.714844 6.207031 C 12.5625 6.207031 12.4375 6.082031 12.4375 5.929688 L 12.4375 5.542969 C 12.4375 5.398438 12.320312 5.285156 12.179688 5.285156 C 12.039062 5.285156 11.921875 5.398438 11.921875 5.542969 L 11.921875 5.929688 C 11.921875 6.367188 12.277344 6.71875 12.714844 6.71875 C 12.714844 6.71875 12.976562 6.71875 13.253906 6.71875 C 12.957031 7.9375 12.144531 8.398438 11.328125 7.9375 C 10.796875 7.636719 10.84375 7.1875 10.59375 6.816406 L 10.59375 5.457031 C 10.59375 5.3125 10.480469 5.199219 10.335938 5.199219 C 10.195312 5.199219 10.082031 5.3125 10.082031 5.457031 L 10.082031 6.414062 C 9.710938 6.253906 9.125 6.152344 8.144531 6.152344 C 7.878906 6.152344 7.632812 6.152344 7.402344 6.144531 L 7.402344 5.113281 C 7.402344 4.972656 7.289062 4.855469 7.144531 4.855469 C 7.003906 4.855469 6.890625 4.972656 6.890625 5.113281 L 6.890625 6.132812 C 4.808594 6.050781 4.503906 5.71875 4.339844 4.875 C 4.335938 4.828125 4.328125 4.777344 4.324219 4.726562 L 5.417969 4.726562 C 5.933594 4.726562 6.355469 4.308594 6.355469 3.792969 L 6.355469 3.386719 C 6.355469 3.246094 6.238281 3.128906 6.097656 3.128906 C 5.953125 3.128906 5.839844 3.246094 5.839844 3.386719 L 5.839844 3.792969 C 5.839844 4.023438 5.648438 4.214844 5.417969 4.214844 L 4.324219 4.214844 C 4.386719 3.5 4.722656 2.914062 5.25 2.378906 C 5.652344 1.96875 6.144531 1.652344 6.707031 1.4375 C 6.707031 1.769531 6.707031 2.09375 6.707031 2.226562 C 6.707031 2.445312 6.785156 2.671875 6.933594 2.859375 C 7.007812 2.957031 7.105469 3.042969 7.21875 3.105469 C 7.335938 3.167969 7.472656 3.203125 7.617188 3.203125 C 8.03125 3.203125 8.445312 3.203125 8.445312 3.203125 C 8.585938 3.203125 8.703125 3.089844 8.703125 2.949219 C 8.703125 2.804688 8.585938 2.691406 8.445312 2.691406 C 8.445312 2.691406 8.03125 2.691406 7.617188 2.691406 C 7.558594 2.691406 7.507812 2.675781 7.464844 2.652344 C 7.394531 2.617188 7.332031 2.546875 7.289062 2.464844 C 7.242188 2.386719 7.21875 2.289062 7.222656 2.226562 C 7.222656 2.074219 7.222656 1.660156 7.222656 1.273438 C 7.648438 1.164062 8.101562 1.105469 8.578125 1.105469 C 8.699219 1.105469 8.820312 1.109375 8.945312 1.117188 C 10.023438 1.183594 10.957031 1.523438 11.6875 2.101562 L 11.6875 4.363281 C 11.6875 4.503906 11.800781 4.621094 11.945312 4.621094 C 12.085938 4.621094 12.203125 4.503906 12.203125 4.363281 L 12.203125 2.589844 C 12.214844 2.601562 12.230469 2.617188 12.242188 2.632812 C 12.980469 3.484375 13.375 4.660156 13.367188 5.910156 C 13.359375 6.011719 13.351562 6.109375 13.34375 6.207031 Z M 13.34375 6.207031 "/>
<path style=" stroke:none;fill-rule:nonzero;fill:rgb(0%,0%,0%);fill-opacity:1;" d="M 10.082031 2.691406 C 9.9375 2.691406 9.824219 2.808594 9.824219 2.949219 L 9.824219 3.78125 C 9.824219 3.960938 9.679688 4.105469 9.496094 4.105469 L 8.582031 4.105469 C 8.4375 4.105469 8.324219 4.222656 8.324219 4.363281 C 8.324219 4.503906 8.4375 4.621094 8.582031 4.621094 L 9.496094 4.621094 C 9.960938 4.621094 10.335938 4.246094 10.335938 3.78125 L 10.335938 2.949219 C 10.335938 2.808594 10.222656 2.691406 10.082031 2.691406 Z M 10.082031 2.691406 "/>
</g>
</svg>
