<?xml version="1.0" encoding="utf-8"?>
<!-- Generator: Adobe Illustrator 27.4.1, SVG Export Plug-In . SVG Version: 6.00 Build 0)  -->
<svg version="1.1" id="Layer_1" xmlns="http://www.w3.org/2000/svg" xmlns:xlink="http://www.w3.org/1999/xlink" x="0px" y="0px"
	 viewBox="0 0 800 800" style="enable-background:new 0 0 800 800;" xml:space="preserve">
<style type="text/css">
	.st0{fill-rule:evenodd;clip-rule:evenodd;fill:#010101;}
</style>
<g>
	<polygon class="st0" points="606.5,259.6 576.3,284.7 576.3,349.9 576.3,425.2 551.1,490.4 500.7,540.6 430.1,570.7 374.7,570.7 
		299.1,545.6 253.7,500.4 228.5,435.2 228.5,359.9 223.5,284.6 193.3,259.5 163.1,279.6 163.1,440.2 203.4,535.5 279,605.7 
		369.8,635.8 369.8,726.1 258.9,726.1 258.9,791.3 541.2,791.3 541.2,726.1 430.3,726.1 430.3,635.8 521,605.7 606.6,515.4 
		636.7,435.2 636.7,279.7 	"/>
	<polygon class="st0" points="374.8,515.4 430.2,515.4 470.5,490.2 515.9,425 515.9,93.9 485.7,43.7 400,8.6 319.4,38.7 284.1,93.9 
		284.1,425.1 324.4,490.3 	"/>
</g>
</svg>
