<?xml version="1.0" encoding="utf-8"?>
<!-- Generator: Adobe Illustrator 27.0.1, SVG Export Plug-In . SVG Version: 6.00 Build 0)  -->
<svg version="1.1" id="Layer_1" xmlns="http://www.w3.org/2000/svg" xmlns:xlink="http://www.w3.org/1999/xlink" x="0px" y="0px"
	 viewBox="0 0 800 800" style="enable-background:new 0 0 800 800;" xml:space="preserve">
<style type="text/css">
	.st0{fill-rule:evenodd;clip-rule:evenodd;fill:#010101;}
</style>
<path class="st0" d="M521.4,569l-4.7,56.6l132,110.8l7.1,53l-450.2-8.2v-40.1l120.2-120.2L314,588.1l-122.6-33.8V411.1l554-9.4v70.7
	L521.4,569z M504.7,100.1l198-89.6L740.4,86l-212.2,73.1L504.7,100.1z M471.9,206l-44.6-103.3L465,86.2l44.6,105.7L471.9,206z
	 M292.7,385.2l-89.6-242.8l-14-49.5l172.2-70.7l115.5,294.7L292.7,385.2z M54.7,422.9l103.7,2.4v96.6l-99-56.6L54.7,422.9z"/>
</svg>
