<?xml version="1.0" encoding="utf-8"?>
<!-- Generator: Adobe Illustrator 27.0.1, SVG Export Plug-In . SVG Version: 6.00 Build 0)  -->
<svg version="1.1" id="Layer_1" xmlns="http://www.w3.org/2000/svg" xmlns:xlink="http://www.w3.org/1999/xlink" x="0px" y="0px"
	 viewBox="0 0 800 800" style="enable-background:new 0 0 800 800;" xml:space="preserve">
<style type="text/css">
	.st0{fill-rule:evenodd;clip-rule:evenodd;fill:#010101;}
</style>
<path class="st0" d="M211.1,126.8l-55.7,65.8l-35.5,96.2L19.1,471.2l37.5,44l69.7,7.4l46.8-51.4l73.4-41l68.4-7.4l40.5-47.8
	l5.1-101.3l32.9,71.7v77.5l-70.9,45.9l-53.2,149.4l-58.3,55.7l195,118.4l291.2-118.4l-81-32.9l15.2-125.7l-20.3-158l-93.7-136.8
	l-101.3-81l124.1,53.2L631.5,294l38,116.5l7.6,111.4l-17.7,98.8l121.6-32.9l-15.2-184.9l-81-217.8L555.5,78.7L388.4,10.3L228.8,7.8
	l-78.5,75.5L211.1,126.8z"/>
</svg>
