<?xml version="1.0" encoding="utf-8"?>
<!-- Generator: Adobe Illustrator 27.0.1, SVG Export Plug-In . SVG Version: 6.00 Build 0)  -->
<svg version="1.1" id="Layer_1" xmlns="http://www.w3.org/2000/svg" xmlns:xlink="http://www.w3.org/1999/xlink" x="0px" y="0px"
	 viewBox="0 0 800 800" style="enable-background:new 0 0 800 800;" xml:space="preserve">
<style type="text/css">
	.st0{fill-rule:evenodd;clip-rule:evenodd;fill:#010101;}
</style>
<path class="st0" d="M571.9,782.4l-2.1,9H218.6l0.7-2.2l-18-11.2l-31.4-67.4l-150.5-119l65.1-143.8l96.6-132.5L322.6,277l6.7-29.2
	l-26-38.7L277.7,97.3l35.9-62.9l53.3-25.8l60.9,3.8l57.6,28.7l30.4,58.4l-33.1,112.2L455.1,250l2.2,26.9l141.5,35.9l103.3,142.9
	l78.5,135.6L621.3,708.2L571.9,782.4z M208,488.1l-71.9,86.2l62.9,50.8l38.2,56.7L244,716l20.2-66.2L208,488.1z M574.2,488.1
	l-51.7,159.5l13.8,70.4l4.3,3.9l0.8,0.5l4.4-32.9l23.9-32l78.6-99.8L574.2,488.1z"/>
</svg>
