<?xml version="1.0" encoding="UTF-8"?>
<svg version="1.1" viewBox="0 0 1200 1200" xmlns="http://www.w3.org/2000/svg">
 <g>
  <path d="m598.88 572.33c28.395-0.007812 55.621-11.289 75.695-31.371 20.074-20.082 31.348-47.312 31.348-75.703-0.003907-28.395-11.285-55.625-31.363-75.699-20.078-20.078-47.309-31.355-75.703-31.355-28.395 0-55.625 11.277-75.699 31.355-20.078 20.074-31.359 47.305-31.363 75.699 0.027344 28.391 11.32 55.609 31.398 75.684 20.074 20.074 47.297 31.363 75.688 31.391zm0-172.35c17.312 0.007813 33.914 6.8906 46.152 19.137 12.238 12.246 19.113 28.852 19.105 46.168-0.003906 17.312-6.8867 33.914-19.133 46.152-12.246 12.238-28.852 19.113-46.164 19.109-17.312-0.003906-33.914-6.8867-46.156-19.129-12.238-12.246-19.113-28.852-19.109-46.164 0.019532-17.312 6.9102-33.906 19.152-46.145 12.242-12.234 28.844-19.117 46.152-19.129z"/>
  <path d="m1128.4 393.02-302.22-149.8c-0.46094-0.22656-0.94141-0.33594-1.4102-0.52734v-78.395c0-5.543-2.1992-10.855-6.1172-14.773s-9.2344-6.1211-14.773-6.1172h-410.02c-5.5391-0.003906-10.855 2.1992-14.773 6.1172-3.918 3.918-6.1172 9.2305-6.1172 14.773v79.363l-301.34 149.36c-4.9648 2.4609-8.7461 6.793-10.516 12.047-1.7734 5.25-1.3867 10.988 1.0742 15.953l237.08 478.29c2.4648 4.9609 6.7969 8.7422 12.047 10.516 5.25 1.7695 10.988 1.3828 15.957-1.0742l76.266-37.805h-0.003906c4.9766-2.457 8.7734-6.7891 10.551-12.043 1.7773-5.2578 1.3906-11.004-1.0742-15.977-2.4609-4.9688-6.8047-8.7578-12.062-10.527-5.2578-1.7656-11.004-1.3711-15.973 1.1016l-57.543 28.539-218.53-440.86 264.07-130.88v407.81c0 5.5391 2.1992 10.855 6.1172 14.773 3.918 3.918 9.2344 6.1172 14.773 6.1172h33.512l-4.6367 51.527h0.003906c-0.625 6.9492 2.2617 13.746 7.6914 18.125 49.062 35.199 108.07 53.82 168.45 53.16 60.371 0.65234 119.38-17.969 168.44-53.16 5.4219-4.3789 8.3047-11.172 7.6836-18.113l-4.625-51.539h33.5c5.5391 0 10.855-2.1992 14.773-6.1172 3.918-3.918 6.1172-9.2344 6.1172-14.773v-408.95l266.36 132.02-218.54 440.86-57.543-28.539h0.003907c-4.9688-2.4727-10.715-2.8672-15.973-1.1016-5.2578 1.7695-9.6016 5.5586-12.062 10.527-2.4648 4.9727-2.8516 10.719-1.0742 15.977 1.7773 5.2539 5.5742 9.5859 10.551 12.043l76.262 37.805c4.9688 2.4609 10.707 2.8438 15.957 1.0742 5.25-1.7695 9.582-5.5508 12.047-10.516l237.08-478.29c2.4609-4.9648 2.8477-10.703 1.0742-15.953-1.7695-5.2539-5.5508-9.5859-10.516-12.047zm-529.52 407.01c-47.137 0.058594-93.355-13.047-133.45-37.84l8.1836-91.082c1.9688-12.137 8.0898-23.219 17.316-31.348 9.2266-8.1289 20.988-12.805 33.277-13.23h149.32c12.172 0.39062 23.84 4.957 33.043 12.938 9.2031 7.9766 15.379 18.879 17.492 30.871l8.2422 91.91c-40.043 24.891-86.289 37.984-133.43 37.781zm184.11-122.81h-16.359l-1.0234-11.391c-3.3672-22.18-14.441-42.465-31.281-57.293-16.836-14.828-38.359-23.25-60.789-23.785h-149.32c-22.547 0.56641-44.168 9.0977-61.031 24.078-16.863 14.98-27.879 35.445-31.098 57.77l-0.95703 10.621h-16.379v-492.03h368.24z"/>
  <path d="m788.96 918.89c0-5.543-2.1992-10.855-6.1172-14.773-3.918-3.918-9.2344-6.1211-14.773-6.1172h-338.45c-7.4609 0-14.359 3.9805-18.09 10.445-3.7344 6.4609-3.7344 14.426 0 20.891 3.7305 6.4609 10.629 10.445 18.09 10.445h338.45c5.5391 0 10.855-2.1992 14.773-6.1172 3.918-3.918 6.1172-9.2344 6.1172-14.773z"/>
  <path d="m753.29 978.57c0-5.5391-2.1992-10.852-6.1172-14.77-3.918-3.918-9.2344-6.1211-14.773-6.1172h-267.1c-7.4609 0-14.359 3.9805-18.09 10.441-3.7305 6.4648-3.7305 14.43 0 20.891 3.7305 6.4648 10.629 10.445 18.09 10.445h267.1c5.5391 0.003906 10.855-2.1992 14.773-6.1172 3.918-3.918 6.1172-9.2305 6.1172-14.773z"/>
  <path d="m514.23 1017.4c-7.4648 0-14.359 3.9844-18.094 10.445-3.7305 6.4648-3.7305 14.426 0 20.891 3.7344 6.4648 10.629 10.445 18.094 10.445h169.24c7.4648 0 14.363-3.9805 18.094-10.445 3.7305-6.4648 3.7305-14.426 0-20.891-3.7305-6.4609-10.629-10.445-18.094-10.445z"/>
 </g>
</svg>
