<?xml version="1.0" encoding="utf-8"?>
<!-- Generator: Adobe Illustrator 27.0.1, SVG Export Plug-In . SVG Version: 6.00 Build 0)  -->
<svg version="1.1" id="Layer_1" xmlns="http://www.w3.org/2000/svg" xmlns:xlink="http://www.w3.org/1999/xlink" x="0px" y="0px"
	 viewBox="0 0 800 800" style="enable-background:new 0 0 800 800;" xml:space="preserve">
<style type="text/css">
	.st0{fill-rule:evenodd;clip-rule:evenodd;fill:#010101;}
</style>
<path class="st0" d="M269.6,791.4l37.3-130.5l-37.3-74.5l-55.9,93.2l-93.2-37.3l-93.2-18.7v-93.2l55.9-37.3l93.2,74.5l37.3-55.9
	v-55.9l37.3-37.3l93.2-18.6v-55.9l-37.3-37.3l-37.3-37.3l-18.7-55.9l18.7-18.6l-18.7-37.3V64.5l55.9,37.3V45.9l55.9-37.3l18.6,55.9
	l55.9-55.9l37.3,18.6v37.3l37.3,18.6l37.3-18.6v55.9l-18.7,18.6l55.9,18.6l-37.3,55.9v18.7h37.3l-18.6,37.3h-37.3l18.7,18.6
	l-18.7,37.3l-55.9,18.6V400l37.3,18.6l74.5,18.7l18.7,37.3v74.5l37.3,37.3l18.6-18.7v-55.9l74.5-37.3l37.3,55.9v55.9l-74.5,74.5
	l-74.5,37.3l-55.9-37.3l-37.3-74.5l-18.6,37.3l-18.6,74.5l37.3,93.2H269.6z"/>
</svg>
