<?xml version="1.0" encoding="UTF-8"?>
<svg version="1.1" viewBox="0 0 1200 1200" xmlns="http://www.w3.org/2000/svg">
 <g>
  <path d="m303.6 278.4-42 42c-91.203 91.203-141.6 211.2-141.6 339.6s50.398 248.4 140.4 339.6c93.602 93.598 217.2 140.4 339.6 140.4s246-46.801 339.6-140.4c90-91.203 140.4-211.2 140.4-339.6s-50.398-248.4-140.4-339.6l-42-42-85.199 85.199 42 42c68.398 68.402 105.6 158.4 105.6 254.4s-37.199 186-105.6 254.4c-140.4 140.4-368.4 140.4-508.8 0-68.398-67.199-105.6-158.4-105.6-254.4s37.199-186 105.6-254.4l42-42z"/>
  <path d="m660 540v-480h-120v480z"/>
 </g>
</svg>
