<?xml version="1.0" encoding="UTF-8"?>
<svg version="1.1" viewBox="0 0 1200 1200" xmlns="http://www.w3.org/2000/svg">
 <path d="m600 108c-271.2 0-492 220.8-492 492s220.8 492 492 492 492-220.8 492-492-220.8-492-492-492zm228 432c33.602 0 60 26.398 60 60s-26.398 60-60 60-60-26.398-60-60 26.398-60 60-60zm-456 0c33.602 0 60 26.398 60 60s-26.398 60-60 60-60-26.398-60-60 26.398-60 60-60zm540 312c0 13.199-10.801 24-24 24s-24-10.801-24-24v-24h-144v24c0 13.199-10.801 24-24 24s-24-10.801-24-24v-24h-144v24c0 13.199-10.801 24-24 24s-24-10.801-24-24v-24h-144v24c0 13.199-10.801 24-24 24s-24-10.801-24-24v-96c0-13.199 10.801-24 24-24s24 10.801 24 24v24h144v-24c0-13.199 10.801-24 24-24s24 10.801 24 24v24h144v-24c0-13.199 10.801-24 24-24s24 10.801 24 24v24h144v-24c0-13.199 10.801-24 24-24s24 10.801 24 24z"/>
</svg>
