<?xml version="1.0" encoding="utf-8"?>
<!-- Generator: Adobe Illustrator 27.0.1, SVG Export Plug-In . SVG Version: 6.00 Build 0)  -->
<svg version="1.1" id="Layer_1" xmlns="http://www.w3.org/2000/svg" xmlns:xlink="http://www.w3.org/1999/xlink" x="0px" y="0px"
	 viewBox="0 0 800 800" style="enable-background:new 0 0 800 800;" xml:space="preserve">
<style type="text/css">
	.st0{fill-rule:evenodd;clip-rule:evenodd;fill:#010101;}
</style>
<path class="st0" d="M544.4,8.6l28.4,27.4l-51.2,106.5l-54.3,89.2l6.4,5.1l79.7-81.6l87.4-107l43.2,9.2l13.4,46.5l-87.7,110.6
	l-71.5,76l6.7,7.4l90.8-55.9l100.8-81.6l36.4,17.7l-5.1,40.1l-109.6,104l-62.2,37.4l-4.5,9.2l76-32l62.6-36.3l26.2,14.6l0.3,33.9
	l-51.1,51L608,451.1l-110.8,86.3L402,583l-31.2,39.1l1.7,39l-71.4,130.2l-95.3-41.5L92.3,662.8l-65.4-92.1l54.6-55.3l59-47.6
	l18.8,0.2l32.5-43.5l13.3-6.2l-24.9-116.6L196,192.2l1.6-89.1l55.3,12.5l28.1,62.4l10.9,65.5l24.7,32.3l36.9-35.8l43.8-47.1
	l64.6-91.6l35.6-78.9L544.4,8.6z"/>
</svg>
