<?xml version="1.0" encoding="utf-8"?>
<!-- Generator: Adobe Illustrator 27.0.1, SVG Export Plug-In . SVG Version: 6.00 Build 0)  -->
<svg version="1.1" id="Layer_1" xmlns="http://www.w3.org/2000/svg" xmlns:xlink="http://www.w3.org/1999/xlink" x="0px" y="0px"
	 viewBox="0 0 800 800" style="enable-background:new 0 0 800 800;" xml:space="preserve">
<style type="text/css">
	.st0{fill-rule:evenodd;clip-rule:evenodd;fill:#010101;}
</style>
<path class="st0" d="M378,126.1l-112-74l-97.1,12.7L62.6,115.6L8.1,223.4l152.2-36.6l154.3,36.6l-109.3,24.4L99,312.7L86.4,426.3
	l50.7,146l29.6,28.4l33.8-101.4L285,385.7l114.1-82.4l25.4,110.8v138.7l-16.9,76.3l-71.8,105.5l-42.3,56.8l292.1-2.1l-13.2-124.6
	l-16.9-169.5l-38-117.6l-38-97.4l106.2,36.2l66.8,51.4l46.6,87.1l19.1,68.7l43.2-119.1L727.6,267l-47.7-82.5l-154,10.5l29.6-40.6
	L679,135.9l58.9,33l54,42.4L767.4,98.2L664.3,27.5L536.7,8.6l-108,48.4L378,126.1z"/>
</svg>
