<?xml version="1.0" encoding="UTF-8"?>
<svg version="1.1" viewBox="0 0 1200 1200" xmlns="http://www.w3.org/2000/svg">
 <g>
  <path d="m56.25 956.25c0 4.9727 1.9766 9.7422 5.4922 13.258 3.5156 3.5156 8.2852 5.4922 13.258 5.4922h1050c4.9727 0 9.7422-1.9766 13.258-5.4922 3.5156-3.5156 5.4922-8.2852 5.4922-13.258v-187.5h-1087.5zm543.75-131.25c9.9453 0 19.484 3.9492 26.516 10.984 7.0352 7.0312 10.984 16.57 10.984 26.516s-3.9492 19.484-10.984 26.516c-7.0312 7.0352-16.57 10.984-26.516 10.984s-19.484-3.9492-26.516-10.984c-7.0352-7.0312-10.984-16.57-10.984-26.516s3.9492-19.484 10.984-26.516c7.0312-7.0352 16.57-10.984 26.516-10.984z"/>
  <path d="m712.5 1012.5h-225v93.75h-140.62v37.5h506.25v-37.5h-140.62z"/>
  <path d="m1125 150h-1050c-4.9727 0-9.7422 1.9766-13.258 5.4922-3.5156 3.5156-5.4922 8.2852-5.4922 13.258v562.5h1087.5v-562.5c0-4.9727-1.9766-9.7422-5.4922-13.258-3.5156-3.5156-8.2852-5.4922-13.258-5.4922zm-506.25 75h37.5v37.5h-37.5zm-75 0h37.5v37.5h-37.5zm-75 0h37.5v37.5h-37.5zm-146.81 468.75h-171.94c-4.9727 0-9.7422-1.9766-13.258-5.4922-3.5156-3.5156-5.4922-8.2852-5.4922-13.258v-156.19h37.5v137.44h153.19zm0-431.25h-153.19v137.44h-37.5v-156.19c0-4.9727 1.9766-9.7422 5.4922-13.258 3.5156-3.5156 8.2852-5.4922 13.258-5.4922h171.94zm109.31 431.25h-37.5v-37.5h37.5zm0-431.25h-37.5v-37.5h37.5zm75 431.25h-37.5v-37.5h37.5zm75 0h-37.5v-37.5h37.5zm75 0h-37.5v-37.5h37.5zm-56.25-121.88c-29.836 0-58.453-11.852-79.551-32.949-21.098-21.098-32.949-49.715-32.949-79.551s11.852-58.453 32.949-79.551c21.098-21.098 49.715-32.949 79.551-32.949s58.453 11.852 79.551 32.949c21.098 21.098 32.949 49.715 32.949 79.551s-11.852 58.453-32.949 79.551c-21.098 21.098-49.715 32.949-79.551 32.949zm131.25 121.88h-37.5v-37.5h37.5zm0-431.25h-37.5v-37.5h37.5zm75 431.25h-37.5v-37.5h37.5zm0-431.25h-37.5v-37.5h37.5zm262.5 412.5c0 4.9727-1.9766 9.7422-5.4922 13.258-3.5156 3.5156-8.2852 5.4922-13.258 5.4922h-168.75v-37.5h150v-131.25h37.5zm0-281.25h-37.5v-131.25h-150v-37.5h168.75c4.9727 0 9.7422 1.9766 13.258 5.4922 3.5156 3.5156 5.4922 8.2852 5.4922 13.258z"/>
 </g>
</svg>
