<?xml version="1.0" encoding="UTF-8"?>
<svg version="1.1" viewBox="0 0 1200 1200" xmlns="http://www.w3.org/2000/svg">
 <style type="text/css">
   .st0{fill-rule:evenodd;clip-rule:evenodd;fill:#010101;}
 </style>
 <g class="st0">
  <path d="m1050 0h-50c-17.863 0-34.371 9.5312-43.301 25-8.9336 15.469-8.9336 34.531 0 50 8.9297 15.469 25.438 25 43.301 25h50c13.258 0.007812 25.973 5.2773 35.348 14.652s14.645 22.09 14.652 35.348v50c0 17.863 9.5312 34.371 25 43.301 15.469 8.9336 34.531 8.9336 50 0 15.469-8.9297 25-25.438 25-43.301v-50c-0.042969-39.77-15.859-77.898-43.98-106.02-28.121-28.121-66.25-43.938-106.02-43.98z"/>
  <path d="m50 250c13.262 0 25.98-5.2695 35.355-14.645s14.645-22.094 14.645-35.355v-50c0.007812-13.258 5.2773-25.973 14.652-35.348s22.09-14.645 35.348-14.652h50c17.863 0 34.371-9.5312 43.301-25 8.9336-15.469 8.9336-34.531 0-50-8.9297-15.469-25.438-25-43.301-25h-50c-39.77 0.042969-77.898 15.859-106.02 43.98-28.121 28.121-43.938 66.25-43.98 106.02v50c0 13.262 5.2695 25.98 14.645 35.355s22.094 14.645 35.355 14.645z"/>
  <path d="m200 1100h-50c-13.258-0.007812-25.973-5.2773-35.348-14.652s-14.645-22.09-14.652-35.348v-50c0-17.863-9.5312-34.371-25-43.301-15.469-8.9336-34.531-8.9336-50 0-15.469 8.9297-25 25.438-25 43.301v50c0.042969 39.77 15.859 77.898 43.98 106.02 28.121 28.121 66.25 43.938 106.02 43.98h50c17.863 0 34.371-9.5312 43.301-25 8.9336-15.469 8.9336-34.531 0-50-8.9297-15.469-25.438-25-43.301-25z"/>
  <path d="m1150 950c-13.262 0-25.98 5.2695-35.355 14.645s-14.645 22.094-14.645 35.355v50c-0.007812 13.258-5.2773 25.973-14.652 35.348s-22.09 14.645-35.348 14.652h-50c-17.863 0-34.371 9.5312-43.301 25-8.9336 15.469-8.9336 34.531 0 50 8.9297 15.469 25.438 25 43.301 25h50c39.77-0.042969 77.898-15.859 106.02-43.98 28.121-28.121 43.938-66.25 43.98-106.02v-50c0-13.262-5.2695-25.98-14.645-35.355s-22.094-14.645-35.355-14.645z"/>
  <path d="m1077.5 872c14.996-89.891 22.523-180.87 22.5-272 0.023438-91.297-7.5039-182.44-22.5-272.5-8.3555-51.434-32.711-98.926-69.602-135.73-36.895-36.801-84.445-61.043-135.9-69.273-180.28-29.75-364.22-29.75-544.5 0-51.434 8.3555-98.926 32.711-135.73 69.602-36.801 36.895-61.043 84.445-69.273 135.9-30 180.26-30 364.24 0 544.5 8.3555 51.434 32.711 98.926 69.602 135.73 36.895 36.801 84.445 61.043 135.9 69.273 89.891 14.996 180.87 22.523 272 22.5 91.297 0.023438 182.44-7.5039 272.5-22.5 51.434-8.3555 98.926-32.711 135.73-69.602 36.801-36.895 61.043-84.445 69.273-135.9zm-252.5-622c33.152 0 64.945 13.168 88.387 36.613 23.445 23.441 36.613 55.234 36.613 88.387s-13.168 64.945-36.613 88.387c-23.441 23.445-55.234 36.613-88.387 36.613s-64.945-13.168-88.387-36.613c-23.445-23.441-36.613-55.234-36.613-88.387 0.03125-33.145 13.211-64.918 36.645-88.355 23.438-23.434 55.211-36.613 88.355-36.645zm31.5 729c-169.69 28-342.81 28-512.5 0-49.699-8.4141-91.812-41.312-112-87.5l154-231c25.605-37.836 68.316-60.5 114-60.5s88.395 22.664 114 60.5l144.5 217c7.2656 11.07 18.645 18.789 31.613 21.449 12.973 2.6602 26.469 0.042969 37.504-7.2695 11.039-7.3125 18.707-18.723 21.312-31.707 2.6055-12.98-0.066407-26.465-7.4297-37.473l-144.5-217c-1.168-1.9492-2.5039-3.7891-4-5.5h7c45.727-0.17188 88.512 22.535 114 60.5l154 231.5c-20.145 45.926-62.055 78.625-111.5 87z"/>
  <path d="m850 375c0 13.809-11.191 25-25 25s-25-11.191-25-25 11.191-25 25-25 25 11.191 25 25"/>
 </g>
</svg>
