<?xml version="1.0" encoding="utf-8"?>
<!-- Generator: Adobe Illustrator 27.0.1, SVG Export Plug-In . SVG Version: 6.00 Build 0)  -->
<svg version="1.1" id="Layer_1" xmlns="http://www.w3.org/2000/svg" xmlns:xlink="http://www.w3.org/1999/xlink" x="0px" y="0px"
	 viewBox="0 0 800 800" style="enable-background:new 0 0 800 800;" xml:space="preserve">
<style type="text/css">
	.st0{fill-rule:evenodd;clip-rule:evenodd;fill:#010101;}
</style>
<path class="st0" d="M667.1,331.5l125,63.6L770,537l-144.6,12.2l-41.7,44l4.9,146.8l-100.5,51.4L395.1,667l-66.2-17.6l-129.9,83.2
	L98.6,654.4l73.5-141.9l-19.6-52.8L7.9,382.9l27-134.5l149.5-7.3l31.9-36.7L196.6,84.5L325.4,8.6l82,117.4l78.3,9.8l117.8-78.5
	l118.4,85.9l-74.3,137L667.1,331.5z M512.3,330.1l-76.5-45.7l-82.9,19.1l-53.1,70l14.9,67.9l76.5,57.3l93.5-25.5l42.5-73.5
	L512.3,330.1z"/>
</svg>
