<?xml version="1.0" encoding="UTF-8"?>
<svg version="1.1" viewBox="0 0 1200 1200" xmlns="http://www.w3.org/2000/svg">
 <g>
  <path d="m412.5 187.5c0 82.844-67.156 150-150 150s-150-67.156-150-150 67.156-150 150-150 150 67.156 150 150"/>
  <path d="m487.5 450v216c0.078125 20.949-5.7148 41.5-16.715 59.332-11 17.828-26.777 32.219-45.535 41.543l-12.75 6.375v276.75c-0.085938 29.809-11.969 58.375-33.047 79.453s-49.645 32.961-79.453 33.047h-75c-29.809-0.085938-58.375-11.969-79.453-33.047s-32.961-49.645-33.047-79.453v-276.75l-12.75-6.375c-18.758-9.3242-34.535-23.715-45.535-41.543-11-17.832-16.793-38.383-16.715-59.332v-216c0.03125-45.941 16.988-90.266 47.625-124.5 28.047 36.227 66.512 63 110.23 76.715 43.715 13.715 90.582 13.715 134.3 0 43.715-13.715 82.18-40.488 110.23-76.715 30.637 34.234 47.594 78.559 47.625 124.5z"/>
  <path d="m945.01 75h134.98c45.566 0 82.508 45.566 82.508 82.508v134.98c0 45.566-36.941 82.508-82.508 82.508h-134.98c-45.566 0-82.508-45.566-82.508-82.508v-134.98c0-45.566 36.941-82.508 82.508-82.508z"/>
  <path d="m945.01 450h134.98c45.566 0 82.508 45.566 82.508 82.508v134.98c0 45.566-36.941 82.508-82.508 82.508h-134.98c-45.566 0-82.508-45.566-82.508-82.508v-134.98c0-45.566 36.941-82.508 82.508-82.508z"/>
  <path d="m945.01 825h134.98c45.566 0 82.508 45.566 82.508 82.508v134.98c0 45.566-36.941 82.508-82.508 82.508h-134.98c-45.566 0-82.508-45.566-82.508-82.508v-134.98c0-45.566 36.941-82.508 82.508-82.508z"/>
  <path d="m787.5 562.5v75h-337.5c-13.398 0-25.777-7.1484-32.477-18.75-6.6992-11.602-6.6992-25.898 0-37.5 6.6992-11.602 19.078-18.75 32.477-18.75z"/>
  <path d="m787.5 187.5v75h-75v337.5c0 13.398-7.1484 25.777-18.75 32.477-11.602 6.6992-25.898 6.6992-37.5 0-11.602-6.6992-18.75-19.078-18.75-32.477v-375c0.027344-9.9375 3.9883-19.457 11.016-26.484s16.547-10.988 26.484-11.016z"/>
  <path d="m787.5 937.5v75h-112.5c-9.9375-0.027344-19.457-3.9883-26.484-11.016s-10.988-16.547-11.016-26.484v-375c0-13.398 7.1484-25.777 18.75-32.477 11.602-6.6992 25.898-6.6992 37.5 0 11.602 6.6992 18.75 19.078 18.75 32.477v337.5z"/>
 </g>
</svg>
