<?xml version="1.0" encoding="utf-8"?>
<!-- Generator: Adobe Illustrator 27.0.1, SVG Export Plug-In . SVG Version: 6.00 Build 0)  -->
<svg version="1.1" id="Layer_1" xmlns="http://www.w3.org/2000/svg" xmlns:xlink="http://www.w3.org/1999/xlink" x="0px" y="0px"
	 viewBox="0 0 800 800" style="enable-background:new 0 0 800 800;" xml:space="preserve">
<style type="text/css">
	.st0{fill-rule:evenodd;clip-rule:evenodd;fill:#010101;}
</style>
<path class="st0" d="M734.9,661.5l-42.7,21.3l-64-10.7l-32,32l32,53.3l-21.3,32h-64l-74.7-32l-74.6-74.6L383,597.5l10.7-96
	l53.3-74.6l53.3-32l64-10.7l96,10.7l74.7,53.3l42.6,74.7v85.3L734.9,661.5z M468.3,512.2c-23.6,0-42.7,19.1-42.7,42.7
	c0,23.6,19.1,42.7,42.7,42.7c23.6,0,42.7-19.1,42.7-42.7C511,531.3,491.9,512.2,468.3,512.2z M575,426.9
	c-23.6,0-42.6,19.1-42.6,42.6c0,23.6,19.1,42.7,42.6,42.7c23.6,0,42.7-19.1,42.7-42.7C617.6,446,598.5,426.9,575,426.9z
	 M692.3,490.9c-23.6,0-42.7,19.1-42.7,42.7c0,23.6,19.1,42.7,42.7,42.7c23.6,0,42.7-19.1,42.7-42.7
	C734.9,510,715.8,490.9,692.3,490.9z M652.3,271.8l23.5,13.1l0.3,30.4l-22.7,20.1l-93.8-10.4l-20.3,3.4l56.9-24L652.3,271.8z
	 M587.9,286.4l-60.7,38.3l0.6,5.5l-51,8.5L408,380.1l-68.9,96.5l-13.8,124.1l0.1,0.7L268,711.5l-85.3-37.1L81,596.3l-58.6-82.5
	l48.9-49.6l52.8-42.7l16.8,0.2l32.2-38.9l8.9-5.5L165.8,273l8-98l1.5-79.8l49.5,11.2l25.2,55.9l9.8,58.6l22.1,28.9l33.1-32
	l39.3-42.2l57.8-82l31.8-70.7l34.3-12.3l36,24.6l-48.6,95.3l-48.6,79.9l5.8,4.6l71.4-73.1L572.3,46l38.7,13.4l12,36.4l-78.5,93.8
	l-64,73.3l6,6.7l81.3-50.1l90.3-73.1l32.6,15.8l-7.9,35.9L587.9,286.4z"/>
</svg>
