<?xml version="1.0" encoding="UTF-8"?>
<svg version="1.1" viewBox="0 0 1200 1200" xmlns="http://www.w3.org/2000/svg">
 <g>
  <path d="m186 912.67c5 12.664 17 20.664 30.668 20.664h200c18.332 0 33.332-15 33.332-33.332s-15-33.332-33.332-33.332h-119.67l143-143c9.668-9.668 12.332-24 7.332-36.332-5-12.668-17-20.668-30.664-20.668h-200c-18.332 0-33.332 15-33.332 33.332s15 33.332 33.332 33.332h119.67l-143 143c-9.668 9.668-12.668 24-7.3359 36.336z"/>
  <path d="m519.33 646c5 12.668 17 20.668 30.668 20.668h166.67c18.332 0 33.332-15 33.332-33.332 0-18.332-15-33.332-33.332-33.332h-86.332l109.67-109.67c9.668-9.668 12.332-23.668 7.332-36.332-5.0039-12.672-17.004-20.672-30.668-20.672h-166.67c-18.332 0-33.332 15-33.332 33.332 0 18.332 15 33.332 33.332 33.332h86.332l-109.67 109.67c-9.6641 9.668-12.664 24.004-7.332 36.336z"/>
  <path d="m1016.7 433.33c0-18.332-15-33.332-33.332-33.332h-53l76.332-76.332c9.668-9.668 12.332-23.668 7.332-36.332-5-12.668-17-20.668-30.668-20.668h-133.33c-18.332 0-33.332 15-33.332 33.332s15 33.332 33.332 33.332h53l-76.332 76.332c-9.668 9.668-12.332 23.668-7.332 36.332 4.9961 12.672 16.996 20.672 30.664 20.672h133.33c18.336 0 33.336-15 33.336-33.336z"/>
 </g>
</svg>
