<?xml version="1.0" encoding="utf-8"?>
<!-- Generator: Adobe Illustrator 27.0.1, SVG Export Plug-In . SVG Version: 6.00 Build 0)  -->
<svg version="1.1" id="Layer_1" xmlns="http://www.w3.org/2000/svg" xmlns:xlink="http://www.w3.org/1999/xlink" x="0px" y="0px"
	 viewBox="0 0 800 800" style="enable-background:new 0 0 800 800;" xml:space="preserve">
<style type="text/css">
	.st0{fill-rule:evenodd;clip-rule:evenodd;fill:#010101;}
</style>
<path class="st0" d="M775.7,791.4H572.2c-8.6,0-15.7-7-15.7-15.7V572.2c0-8.6,7-15.7,15.7-15.7h203.5c8.6,0,15.7,7,15.7,15.7v203.5
	C791.3,784.3,784.3,791.4,775.7,791.4z M775.7,517.4H572.2c-8.6,0-15.7-7-15.7-15.7V298.2c0-8.6,7-15.7,15.7-15.7h203.5
	c8.6,0,15.7,7,15.7,15.7v203.5C791.3,510.4,784.3,517.4,775.7,517.4z M501.7,791.4H298.2c-8.6,0-15.7-7-15.7-15.7V572.2
	c0-8.6,7-15.7,15.7-15.7h203.5c8.6,0,15.7,7,15.7,15.7v203.5C517.4,784.3,510.4,791.4,501.7,791.4z M501.7,517.4H298.2
	c-8.6,0-15.7-7-15.7-15.7V298.2c0-8.6,7-15.7,15.7-15.7h203.5c8.6,0,15.7,7,15.7,15.7v203.5C517.4,510.4,510.4,517.4,501.7,517.4z
	 M501.7,243.5H298.2c-8.6,0-15.7-7-15.7-15.7V24.3c0-8.6,7-15.7,15.7-15.7h203.5c8.6,0,15.7,7,15.7,15.7v203.5
	C517.4,236.4,510.4,243.5,501.7,243.5z M227.8,517.4H24.3c-8.6,0-15.7-7-15.7-15.7V298.2c0-8.6,7-15.7,15.7-15.7h203.5
	c8.6,0,15.7,7,15.7,15.7v203.5C243.5,510.4,236.4,517.4,227.8,517.4z M227.8,243.5H24.3c-8.6,0-15.7-7-15.7-15.7V24.3
	c0-8.6,7-15.7,15.7-15.7h203.5c8.6,0,15.7,7,15.7,15.7v203.5C243.5,236.4,236.4,243.5,227.8,243.5z"/>
</svg>
