<?xml version="1.0" encoding="UTF-8"?>
<svg version="1.1" viewBox="0 0 1200 1200" xmlns="http://www.w3.org/2000/svg">
 <path d="m948.75 454.88-48.75-11.25v-68.625c0-165.41-134.59-300-300-300-136.91 0-256.39 92.512-290.51 224.96-5.1758 20.023 6.8984 40.5 26.961 45.676 20.176 5.1367 40.5-6.9766 45.676-27 25.574-99.262 115.2-168.64 217.91-168.64 124.09 0 225 100.91 225 225v51.375l-203.25-46.875c-14.25-3.375-29.25-3.375-43.5 0l-327 75.375c-44.25 10.125-75.375 49.125-75.375 94.5v403.12c0 45.375 31.125 84.375 75.375 94.5l327 75.375c7.125 1.875 14.25 2.625 21.75 2.625s14.625-0.75 21.75-2.625l327-75.375c44.25-10.125 75.375-49.125 75.375-94.5v-403.12c0-45.375-31.125-84.375-75.375-94.5zm-273.75 332.62h-150c-20.625 0-37.5-16.875-37.5-37.5s16.875-37.5 37.5-37.5h150c20.625 0 37.5 16.875 37.5 37.5s-16.875 37.5-37.5 37.5z"/>
</svg>
