<?xml version="1.0" encoding="utf-8"?>
<!-- Generator: Adobe Illustrator 27.0.1, SVG Export Plug-In . SVG Version: 6.00 Build 0)  -->
<svg version="1.1" id="Layer_1" xmlns="http://www.w3.org/2000/svg" xmlns:xlink="http://www.w3.org/1999/xlink" x="0px" y="0px"
	 viewBox="0 0 800 800" style="enable-background:new 0 0 800 800;" xml:space="preserve">
<style type="text/css">
	.st0{fill-rule:evenodd;clip-rule:evenodd;fill:#010101;}
	.st1{fill:#010101;}
</style>
<path class="st0" d="M296.8,608.9l49.1,25l-8.7,55.7l-56.8,4.8L264,711.7l1.9,57.6l-39.5,20.2L190,740.7l-26-6.9l-51,32.7
	l-39.4-30.7l28.9-55.7l-7.7-20.7L38,629.1l10.6-52.8l58.7-2.9l12.5-14.4l-7.7-47.1l50.6-29.8l32.2,46.1l30.7,3.8l46.2-30.8
	l46.5,33.7l-29.2,53.8L296.8,608.9z M236,608.4l-30-17.9l-32.5,7.5l-20.8,27.5l5.8,26.7l30,22.5l36.7-10l16.7-28.9L236,608.4z"/>
<polygon class="st1" points="571.1,365.9 536.7,389.1 528.5,319.4 514.8,234.7 475.2,303.4 412.3,357.7 369.1,405.5 365.8,303.3 
	304.3,360.4 248.3,404.1 225.1,415 225.1,324.9 178.4,417.3 219.5,476.1 273.2,440.4 383.3,520.3 350.8,580.2 401,605.8 
	380.7,736.1 315.2,741.7 345.3,763.5 398.6,788.1 405.4,789.5 454.6,763.5 571,691.1 606.4,659.7 622.8,562.7 643.3,454.8 
	603.7,322.2 "/>
<polygon class="st1" points="767.8,303.3 725.4,190.9 670.7,121.2 661.1,107.5 639.2,88.4 624.8,81 614.6,87.8 532,33 517.6,25.6 
	406.9,10.6 301.7,21.5 244.5,41.9 244.3,40.6 150,100.7 85.8,174.5 53.9,264.7 24.3,350.8 23,505.3 57.3,486.3 122.3,448 265,174 
	266.2,175.9 264.8,346.7 355.6,248.3 426,141.7 404.1,324.7 492.9,195 539.4,98 566.7,309.7 600.9,200.4 601.4,198.8 650,323.4 
	696.5,472.4 681.5,550.3 658.3,622.7 726.6,588.5 728,488.8 777.4,510.7 777.4,371.3 "/>
</svg>
