<?xml version="1.0" encoding="utf-8"?>
<!-- Generator: Adobe Illustrator 27.4.1, SVG Export Plug-In . SVG Version: 6.00 Build 0)  -->
<svg version="1.1" id="Layer_1" xmlns="http://www.w3.org/2000/svg" xmlns:xlink="http://www.w3.org/1999/xlink" x="0px" y="0px"
	 viewBox="0 0 1200 1200" style="enable-background:new 0 0 1200 1200;" xml:space="preserve">
<style type="text/css">
	.st0{fill-rule:evenodd;clip-rule:evenodd;fill:#010101;}
</style>
<path class="st0" d="M83.6,1026.1h1052.8l40-852.2H23.6L83.6,1026.1z M258.2,959.3H125.8l20-95.4h92.3L258.2,959.3z M666.5,959.3
	H533.9l20-95.4h92.9l20,95.6L666.5,959.3z M942.3,232.8h132.5l-20,95.6h-92.5L942.3,232.8z M982.3,864.3h72.3l20,94.9H942.1l20-95
	L982.3,864.3z M754.8,232.8h92.3l20,95.4H734.8L754.8,232.8z M734.8,864h132.3l-20,95.4h-92.4l-20-95.4H734.8z M533.2,232.8h133.5
	l-20,95.4h-93.5L533.2,232.8z M513.5,466.5l173,100.1c31.8,18.4,31.8,48.4,0,66.8l-173,100.1c-31.8,18.4-57.9,3.3-57.9-33.4l0-200.3
	C455.3,463.4,481.7,448.3,513.5,466.5L513.5,466.5z M346.4,232.8h91.8l20,95.5H326.4L346.4,232.8z M326.4,864h131.8l-20,95.5h-91.8
	l-20-95.6V864z M125.4,232.8h132.8l-20,95.6h-92.8L125.4,232.8z"/>
</svg>
