<?xml version="1.0" encoding="utf-8"?>
<!-- Generator: Adobe Illustrator 27.0.1, SVG Export Plug-In . SVG Version: 6.00 Build 0)  -->
<svg version="1.1" id="Layer_1" xmlns="http://www.w3.org/2000/svg" xmlns:xlink="http://www.w3.org/1999/xlink" x="0px" y="0px"
	 viewBox="0 0 800 800" style="enable-background:new 0 0 800 800;" xml:space="preserve">
<style type="text/css">
	.st0{fill-rule:evenodd;clip-rule:evenodd;fill:#010101;}
</style>
<path class="st0" d="M459.5,777.1l-172.3-14L21.8,449.3l-7-115.2L322.2,22.9L499.1,27l286.1,325.2v128.7L459.5,777.1z M589.9,334.1
	L534,214.4l-62.9,24.9l32.6,121.9l-46.9,31.7l-20.6-79.1l-25.6-99.4l-20.9-79l-67.5,15.8l9.3,88.1l18.6,121.9l11.6,70L315.2,456
	l-23.3-76.8l-27.9-85.8l-44.2,9.1l-30.3,167.1l100.1,103.9l101.3,90.3l140.1-112.9l89.3-88.1L589.9,334.1z"/>
</svg>
