<?xml version="1.0" encoding="utf-8"?>
<!-- Generator: Adobe Illustrator 27.0.1, SVG Export Plug-In . SVG Version: 6.00 Build 0)  -->
<svg version="1.1" id="Layer_1" xmlns="http://www.w3.org/2000/svg" xmlns:xlink="http://www.w3.org/1999/xlink" x="0px" y="0px"
	 viewBox="0 0 800 800" style="enable-background:new 0 0 800 800;" xml:space="preserve">
<style type="text/css">
	.st0{fill-rule:evenodd;clip-rule:evenodd;fill:#010101;}
</style>
<path class="st0" d="M742.8,490.3c-26.8,0-48.6-19.1-48.6-42.6v-95.3c0-23.6,21.7-42.6,48.6-42.6c26.8,0,48.6,19.1,48.6,42.6v95.3
	C791.3,471.2,769.6,490.3,742.8,490.3z M571.4,590.7c-26.8,0-48.6-19.1-48.6-42.6V252c0-23.6,21.7-42.6,48.6-42.6
	c26.8,0,48.6,19.1,48.6,42.6v296C620,571.6,598.2,590.7,571.4,590.7z M400,791.4c-26.8,0-48.6-19.1-48.6-42.6V51.3
	c0-23.6,21.7-42.6,48.6-42.6c26.8,0,48.6,19.1,48.6,42.6v697.4C448.6,772.3,426.8,791.4,400,791.4z M228.6,590.7
	c-26.8,0-48.6-19.1-48.6-42.6V252c0-23.6,21.7-42.6,48.6-42.6c26.8,0,48.6,19.1,48.6,42.6v296C277.2,571.6,255.4,590.7,228.6,590.7z
	 M57.2,490.3c-26.8,0-48.6-19.1-48.6-42.6v-95.3c0-23.6,21.7-42.6,48.6-42.6c26.8,0,48.6,19.1,48.6,42.6v95.3
	C105.8,471.2,84,490.3,57.2,490.3z"/>
</svg>
