<?xml version="1.0" encoding="UTF-8"?>
<svg version="1.1" viewBox="0 0 1200 1200" xmlns="http://www.w3.org/2000/svg">
 <g>
  <path d="m374.98 581.23c-134.4 0-243.75 109.35-243.75 243.75s109.35 243.75 243.75 243.75c134.4 0 243.75-109.35 243.75-243.75s-109.35-243.75-243.75-243.75zm149.88 262.5h-150c-10.352 0-18.75-8.3984-18.75-18.75v-150c0-10.352 8.3984-18.75 18.75-18.75s18.75 8.3984 18.75 18.75v131.25h131.25c10.352 0 18.75 8.3984 18.75 18.75s-8.3984 18.75-18.75 18.75z"/>
  <path d="m1063.3 136.73c-5-5-12.5-6.75-19-4.5l-500.25 166.75c-27.75 9.25-46 34-46.75 63.25-0.5 27.5 14.5 51.75 39 63 1.5 1 3.25 1.75 4.75 2.25l133.75 51.5c21.25 8.25 38.25 25 46.25 46.25l51.5 133.75c0.75 1.75 1.25 3.25 2.25 5 11.25 23.75 34.75 38.75 61.5 38.75h1.75c29-0.75 54-19 63.25-46.75l166.5-500c2.25-6.75 0.5-14.25-4.5-19.25z"/>
  <path d="m686.05 538.73c-4.25-11.5-13.25-20.5-24.5-24.75l-133.75-51.5c-6.75-2.75-13.25-6-19.25-9.75l-27.5 27.5c-13.75 14-19.5 33.75-14.75 52.75 4.5 19.25 18.25 34.25 36.75 40.5l83.75 28c5.75 1.75 10 6.25 12 11.75l28 83.75c6 18.75 21.25 32.5 40.25 37 18.363 4.3477 39.664-0.98047 52.75-15l27.5-27.5c-3.75-6-7-12.25-9.75-19z"/>
 </g>
</svg>
