<?xml version="1.0" encoding="UTF-8"?>
<svg version="1.1" viewBox="0 0 1200 1200" xmlns="http://www.w3.org/2000/svg">
 <g>
  <path d="m618.75 824.04c56.258-4.6055 108.73-30.207 146.98-71.719 38.254-41.512 59.488-95.895 59.488-152.34 0-56.445-21.234-110.83-59.488-152.34-38.25-41.512-90.719-67.113-146.98-71.723v37.5c46.254 4.6445 89.133 26.305 120.32 60.777 31.184 34.473 48.453 79.301 48.453 125.79 0 46.488-17.27 91.316-48.453 125.79-31.188 34.473-74.066 56.133-120.32 60.773z"/>
  <path d="m618.75 451.16v297.67c48.781-6.1055 91.473-35.734 114.27-79.293 22.793-43.562 22.793-95.523 0-139.09-22.793-43.559-65.484-73.188-114.27-79.293z"/>
  <path d="m1125 506.25h-128.06c-4.082 0-8.0547-1.3359-11.309-3.7969-3.2578-2.4648-5.6172-5.9258-6.7305-9.8516-8.293-29.418-20.055-57.742-35.043-84.375-2.0195-3.5703-2.8125-7.707-2.2539-11.77 0.55469-4.0664 2.4258-7.8359 5.3281-10.73l90.617-90.617-132.67-132.66-90.617 90.676c-2.8984 2.9023-6.668 4.7773-10.734 5.332-4.0625 0.55469-8.1953-0.23828-11.766-2.2578-26.637-14.988-54.961-26.754-84.375-35.043-3.9375-1.1172-7.3984-3.4883-9.8594-6.7539-2.4609-3.2695-3.7852-7.25-3.7734-11.34v-128.06h-75v263.16c66.242 4.6914 128.24 34.316 173.51 82.906s70.438 112.53 70.438 178.94-25.168 130.35-70.438 178.94-107.27 78.215-173.51 82.906v263.16h75v-128.06c0-4.082 1.3359-8.0547 3.7969-11.309 2.4648-3.2578 5.9258-5.6172 9.8516-6.7305 29.418-8.2891 57.742-20.051 84.375-35.043 3.5703-2.0195 7.707-2.8125 11.77-2.2539 4.0664 0.55469 7.8359 2.4258 10.73 5.3281l90.617 90.617 132.68-132.68-90.691-90.613c-2.9023-2.8984-4.7773-6.668-5.332-10.734-0.55469-4.0625 0.23828-8.1953 2.2578-11.766 14.988-26.637 26.754-54.961 35.043-84.375 1.1172-3.9375 3.4883-7.3984 6.7539-9.8594 3.2695-2.4609 7.25-3.7852 11.34-3.7734h128.06zm-167.02 425.21-26.512 26.512-26.512-26.512 26.512-26.512zm-26.516-636.41-26.512-26.512 26.512-26.512 26.512 26.512zm156.04 323.7h-37.5v-37.5h37.5z"/>
  <path d="m75 600c0.019531 19 1.0625 37.984 3.1328 56.867 1.5273 0.14844 3.0312 0.48047 4.4805 0.99609l159.84 71.043 58.594-35.156-66.957-40.18c-4.5195-2.7227-7.6875-7.2227-8.7188-12.395l-18.75-93.75c-1.1016-5.5078 0.32422-11.215 3.8828-15.559 3.5586-4.3438 8.8789-6.8633 14.492-6.8672h160.24l121.01-138.3v-168.86l-64.633-32.211c-3.1289-1.5664-5.7617-3.9727-7.5938-6.957-1.832-2.9805-2.793-6.418-2.7734-9.918v-65.773c-103.79 35.359-193.93 102.28-257.8 191.4-63.879 89.121-98.297 195.98-98.445 305.62z"/>
  <path d="m581.25 75.469c-38.117 1.3008-75.977 6.75-112.91 16.258 0.17578 0.66406 0.31641 1.3398 0.41406 2.0234v63.414l64.633 32.305c3.1172 1.5586 5.7383 3.9531 7.5664 6.918 1.832 2.9648 2.8008 6.3789 2.8008 9.8633v187.5c0 4.5469-1.6523 8.9375-4.6484 12.355l-131.25 150c-3.5625 4.0625-8.6992 6.3945-14.102 6.3945h-145.88l12.637 63.188 86.645 51.992c5.6406 3.3906 9.0859 9.4922 9.0859 16.07s-3.4453 12.68-9.0859 16.07l-93.75 56.25c-5.2383 3.1484-11.684 3.5469-17.27 1.0664l-151.5-67.352v0.003906c15.324 79.176 48.766 153.73 97.707 217.84l87.188-69.77c3.3281-2.6602 7.4609-4.1094 11.719-4.1055h105.92l88.613-70.895c3.6055-2.8828 8.1445-4.3359 12.754-4.0781 4.6055 0.25391 8.957 2.2031 12.223 5.4648l37.5 37.5c3.5156 3.5156 5.4922 8.2852 5.4922 13.258v65.625l37.5 28.125z"/>
  <path d="m486.11 812.62-80.625 64.52c-3.332 2.6641-7.4727 4.1133-11.738 4.1055h-105.92l-81.582 65.344c47.086 53.641 104.64 97.094 169.12 127.69 64.484 30.602 134.54 47.699 205.88 50.246v-158.91l-67.5-50.625c-4.7227-3.543-7.5-9.0977-7.5-15v-67.238z"/>
 </g>
</svg>
