<?xml version="1.0" encoding="UTF-8"?>
<svg width="1200pt" height="1200pt" version="1.1" viewBox="0 0 1200 1200" xmlns="http://www.w3.org/2000/svg">
 <g fill-rule="evenodd">
  <path d="m295.57 1121.9c-14.816 12.426-36.402 12.477-51.266 0.10547-14.863-12.355-18.75-33.602-9.2188-50.422 72.664-129.47 211.3-217.06 370.21-217.06 158.92 0 297.54 87.59 370.18 217.07 9.5156 16.824 5.6328 38.031-9.2188 50.387-14.852 12.355-36.414 12.309-51.219-0.10547-83.965-70.016-191.96-112.18-309.74-112.18-117.77 0-225.78 42.168-309.72 112.21z"/>
  <path d="m915.01 71.301c14.816-12.441 36.402-12.488 51.266-0.11719 14.863 12.367 18.75 33.602 9.2188 50.422-72.664 129.48-211.28 217.07-370.21 217.07-158.91 0-297.54-87.59-370.18-217.08-9.5156-16.812-5.6328-38.031 9.2188-50.387 14.852-12.355 36.426-12.309 51.219 0.11719 83.965 70.004 191.98 112.17 309.74 112.17 117.78 0 225.78-42.168 309.72-112.2z"/>
  <path d="m1130.6 906.31c12.426 14.816 12.477 36.402 0.10547 51.266-12.367 14.863-33.602 18.75-50.422 9.2305-129.47-72.676-217.06-211.3-217.06-370.22 0-158.91 87.59-297.54 217.07-370.18 16.812-9.5156 38.031-5.6328 50.387 9.2188 12.355 14.852 12.309 36.426-0.10547 51.219-70.016 83.965-112.18 191.98-112.18 309.74 0 117.78 42.168 225.78 112.21 309.72z"/>
  <path d="m79.984 286.87c-12.426-14.816-12.477-36.391-0.10547-51.266 12.367-14.863 33.602-18.75 50.422-9.2188 129.47 72.664 217.06 211.3 217.06 370.21 0 158.92-87.59 297.54-217.07 370.18-16.812 9.5156-38.031 5.6328-50.387-9.2188-12.355-14.852-12.309-36.414 0.10547-51.219 70.016-83.965 112.18-191.96 112.18-309.74 0-117.77-42.168-225.78-112.21-309.72z"/>
 </g>
</svg>
