<?xml version="1.0" encoding="UTF-8"?>
<svg width="1200pt" height="1200pt" version="1.1" viewBox="0 0 1200 1200" xmlns="http://www.w3.org/2000/svg">
 <g>
  <path d="m529.56 358.46-94.086-94.074-322.68 322.69-12.801 13.062 335.48 335.49 94.086-94.062-241.55-241.56zm-50.352 483.09-43.738 43.727-285.04-285.05 0.55078-0.5625-0.22656-0.21094 284.71-284.73 43.738 43.738-241.55 241.54z"/>
  <path d="m814.79 358.46-94.086-94.074-322.68 322.69-12.801 13.051 335.46 335.5 94.086-94.062-241.52-241.56zm-50.352 483.09-43.75 43.727-285.01-285.05 0.55078-0.5625-0.22656-0.21094 284.69-284.71 43.75 43.738-241.52 241.52z"/>
  <path d="m1100 358.46-94.086-94.074-322.66 322.69-12.699 13.164 335.36 335.39 94.086-94.074-241.54-241.55zm-50.352 483.09-43.738 43.727-285.12-285.16 0.4375-0.46094-0.11328-0.11328 284.79-284.82 43.738 43.738-241.52 241.55z"/>
 </g>
</svg>
