<?xml version="1.0" encoding="UTF-8"?>
<svg width="1200pt" height="1200pt" version="1.1" viewBox="0 0 1200 1200" xmlns="http://www.w3.org/2000/svg">
 <path d="m297.71 343.06c-24.859 0-45.344 20.484-45.344 45.344v453.43h0.003906c0 4.0078 1.5898 7.8516 4.4258 10.688 2.8359 2.832 6.6797 4.4258 10.688 4.4258h665.03c4.0078 0 7.8516-1.5938 10.688-4.4258 2.8359-2.8359 4.4258-6.6797 4.4258-10.688v-453.43c0-24.859-20.484-45.344-45.344-45.344zm0 30.23h604.57c8.6367 0 15.113 6.4766 15.113 15.113v75.57h-634.8v-75.57c0-8.6367 6.4805-15.113 15.113-15.113zm30.23 22.672c-12.52 0-22.672 10.148-22.672 22.672 0 12.52 10.148 22.672 22.672 22.672 12.52 0 22.672-10.152 22.672-22.672 0-12.52-10.148-22.672-22.672-22.672zm68.016 0c-12.52 0-22.672 10.148-22.672 22.672 0 12.52 10.148 22.672 22.672 22.672 12.52 0 22.672-10.152 22.672-22.672 0-12.52-10.148-22.672-22.672-22.672zm68.016 0c-12.52 0-22.672 10.148-22.672 22.672 0 12.52 10.148 22.672 22.672 22.672 12.52 0 22.672-10.152 22.672-22.672 0-12.52-10.148-22.672-22.672-22.672zm-181.37 98.242h634.8v332.52h-634.8z"/>
</svg>
