<?xml version="1.0" encoding="UTF-8"?>
<svg version="1.1" viewBox="0 0 1200 1200" xmlns="http://www.w3.org/2000/svg">
 <g fill-rule="evenodd">
  <path d="m1131 66.668-108.67 108.33v384.67c-0.0625 43.887-10.957 87.078-31.715 125.75-20.758 38.668-50.738 71.617-87.285 95.918v-141c-0.26172-90.352-36.344-176.91-100.32-240.71-63.984-63.797-150.65-99.621-241.01-99.621h-119.33c-23.203-0.10547-46.344 2.3516-69 7.332 6.4375-65.723 37.035-126.72 85.867-171.18 48.832-44.461 112.43-69.219 178.46-69.48z"/>
  <path d="m562 375h-119.33c-23.773 0.03125-47.434 3.2852-70.336 9.668-56.062 15.297-105.53 48.617-140.77 94.824-35.242 46.207-54.297 102.73-54.227 160.84v384.67l-108.33 108.33h493c46.809 0 92.793-12.32 133.33-35.727 40.539-23.402 74.203-57.066 97.609-97.605 23.402-40.539 35.727-86.523 35.727-133.33v-226.34c-0.35547-70.492-28.605-137.98-78.574-187.7-49.973-49.723-117.6-77.633-188.09-77.633zm-189.67 417c-10.078 0-19.742-4.0039-26.867-11.129-7.1289-7.1289-11.133-16.793-11.133-26.871s4.0039-19.742 11.133-26.871c7.125-7.125 16.789-11.129 26.867-11.129s19.746 4.0039 26.871 11.129c7.125 7.1289 11.129 16.793 11.129 26.871s-4.0039 19.742-11.129 26.871c-7.125 7.125-16.793 11.129-26.871 11.129zm133.33 0h0.003907c-10.078 0-19.746-4.0039-26.871-11.129-7.125-7.1289-11.129-16.793-11.129-26.871s4.0039-19.742 11.129-26.871c7.125-7.125 16.793-11.129 26.871-11.129s19.742 4.0039 26.867 11.129c7.1289 7.1289 11.133 16.793 11.133 26.871 0 10.195-4.0938 19.961-11.367 27.109-7.2695 7.1445-17.109 11.07-27.301 10.891zm133.33 0h0.003906c-10.078 0-19.742-4.0039-26.871-11.129-7.125-7.1289-11.129-16.793-11.129-26.871s4.0039-19.742 11.129-26.871c7.1289-7.125 16.793-11.129 26.871-11.129s19.742 4.0039 26.871 11.129c7.125 7.1289 11.129 16.793 11.129 26.871 0.007812 10.312-4.1797 20.188-11.598 27.352-7.418 7.168-17.43 11.012-27.734 10.648z"/>
 </g>
</svg>
