<?xml version="1.0" encoding="UTF-8"?>
<svg width="1200pt" height="1200pt" version="1.1" viewBox="0 0 1200 1200" xmlns="http://www.w3.org/2000/svg">
 <path d="m600 0 600 300v600l-600 300-600-300v-600zm-375 375 375 187.3v382.7l-375-187.3zm480 436.54v-299.14l-225-100.38v2.7227l-75-43.461v-86.281l375 187.3v382.7zm-300-442.98v2.7188l75 40.738v-83.559 83.559zm495 367.98v-299.14l-225-100.38v2.7227l-75-43.461v-86.281l375 187.3v382.7zm-300-442.98 75 43.457v-84.199 84.199zm0-181.76-500 250v476.39l500 250 500-250v-476.39z" fill-rule="evenodd"/>
</svg>
