<?xml version="1.0" encoding="UTF-8"?>
<svg width="1200pt" height="1200pt" version="1.1" viewBox="0 0 1200 1200" xmlns="http://www.w3.org/2000/svg">
 <g>
  <path d="m793.16 720c-16.523 46.559-61.008 80.004-113.16 80.004h-160.01c-52.152 0-96.637-33.445-113.12-80.004h-206.87v199.96c0 44.184 35.809 80.004 79.992 80.004l640.01 0.035156c44.184 0 79.992-35.809 79.992-79.992v-200z"/>
  <path d="m920 359.96h-80.004v-79.969c0-44.184-35.773-79.992-80.004-79.992h-319.99c-44.184 0-80.004 35.809-80.004 79.992v79.969h-80.004c-88.355 0-160 71.641-160 160v120.04h360v40.008c0 22.105 17.891 39.996 39.996 39.996h160.01c22.105 0 39.996-17.891 39.996-39.996v-40.008h360v-120.04c0-88.355-71.641-160-160-160zm-480 0v-79.969h319.99v79.969z"/>
 </g>
</svg>
