<?xml version="1.0" encoding="UTF-8"?>
<svg width="1200pt" height="1200pt" version="1.1" viewBox="0 0 1200 1200" xmlns="http://www.w3.org/2000/svg">
 <path d="m1031.4 970.66 133.43-76.238v-198.46l-223.93-274.79h-178.1c16.199-224.34-39.953-349.87-162.85-384.23-122.9 34.355-179.05 159.89-162.85 384.23h-178.1l-223.93 274.79v198.46l133.43 74.41v38.664h-105.62c0 82.887 39.586 155.55 132.48 155.55h801.62c93.004 0 132.48-72.609 132.48-155.55h-98.051zm-431.45-274.25c52.738 0 98.504 34.484 121.45 84.996l-4.9023 20.422-52.059-9.8086 59.797 24.238 5.5859-12.262c4.707 16.086 7.2422 33.309 7.2422 51.195 0 46.688-17.348 88.625-45.043 117.68-29.043 144.77-155.1 144.77-184.14 0-5.0469-5.2852-9.75-11.027-14.074-17.121l24.434-30.273 48.262 12.43 18.723-61.754-25.086 46.66-47.891-22.75-29.836 36.965c-12.414-23.883-19.574-51.875-19.574-81.836 0-47.609 18.086-90.355 46.773-119.45l18.469 40.637 59.824-24.238-52.074 9.793-9.7383-40.551c21.301-15.816 46.672-24.973 73.855-24.973zm0 235.39c13.664 0 24.746 18.836 24.746 42.023 0 23.203-11.082 42.012-24.746 42.012s-24.746-18.809-24.746-42.012c0-23.188 11.082-42.023 24.746-42.023zm50.172-128c17.105-1.9688 23.656 3.5586 30.301 18.637 6.4648 14.527 8.375 15.051 16.27 26.902 10.418 15.578-3.6719 34.016-24.477 30.57-22.789-3.7422-49.254-23.98-53.207-46.828-3.3867-19.773 14.797-27.398 31.109-29.281zm-100.35 0c-17.105-1.9688-23.656 3.5586-30.332 18.637-6.4336 14.527-8.3477 15.051-16.242 26.902-10.418 15.578 3.6719 34.016 24.477 30.57 22.789-3.7422 49.254-23.98 53.207-46.828 3.3867-19.773-14.797-27.398-31.109-29.281zm481.62 249.86v56.043c23.711-10.461 41.711-31.055 48.727-56.043zm-46.164 63.242v-475.43h-770.57v475.43zm-816.74-4.3242v-58.918h-56.297c7.7539 27.652 29.012 49.961 56.297 58.918zm499.3-522.27v-113.64l69.012-67.863v-70.004c-94.945-42.18-185.86-38.426-273.7 0v70.004l68.996 67.863v113.64h135.7z" fill-rule="evenodd"/>
</svg>
