<?xml version="1.0" encoding="UTF-8"?>
<svg version="1.1" viewBox="0 0 1200 1200" xmlns="http://www.w3.org/2000/svg">
 <path d="m937.5 302.62v-190.12c0-20.625-16.875-37.5-37.5-37.5h-600c-20.625 0-37.5 16.875-37.5 37.5v190.12c0 45.75 20.25 88.125 55.5 116.25l222.75 181.12-222.75 181.12c-35.25 28.125-55.5 70.5-55.5 116.25v190.12c0 20.625 16.875 37.5 37.5 37.5h600c20.625 0 37.5-16.875 37.5-37.5v-190.12c0-45.75-20.25-88.125-55.5-116.25l-222.75-181.12 222.75-181.12c35.25-28.125 55.5-70.5 55.5-116.25zm-187.5 634.88c20.625 0 37.5 16.875 37.5 37.5s-16.875 37.5-37.5 37.5h-300c-20.625 0-37.5-16.875-37.5-37.5s16.875-37.5 37.5-37.5zm-186.75-112.5c0-20.625 16.5-37.5 37.125-37.5h0.375c20.625 0 37.5 16.875 37.5 37.5s-16.875 37.5-37.5 37.5-37.5-16.875-37.5-37.5zm224.25-540.38c0 11.25-5.25 21.75-13.875 28.875l-150 122.25c-6.75 5.625-15.375 8.25-23.625 8.25s-16.875-2.625-23.625-8.25l-150-122.25c-8.625-7.125-13.875-17.625-13.875-28.875v-22.125c0-20.625 16.875-37.5 37.5-37.5h300c20.625 0 37.5 16.875 37.5 37.5z"/>
</svg>
