<?xml version="1.0" encoding="UTF-8"?>
<svg width="1200pt" height="1200pt" version="1.1" viewBox="0 0 1200 1200" xmlns="http://www.w3.org/2000/svg">
 <path d="m599.76 0c-331.37 0-600 268.63-600 600s268.63 600 600 600c331.37 0 600-268.63 600-600s-268.63-600-600-600zm-12.477 215.84c42.082 0 77.688 34.52 77.688 77.664s-35.602 77.664-77.688 77.664c-42.047 0-77.645-34.52-77.645-77.664s35.594-77.664 77.645-77.664zm173.68 728.11h-316.05v-71.191h49.602c30.219 0 43.168-11.867 43.168-43.148v-276.14c0-31.281-12.949-43.145-43.168-43.145h-49.602v-71.203h220.06v390.49c0 31.285 12.949 43.148 43.133 43.148h52.855z"/>
</svg>
