<?xml version="1.0" encoding="UTF-8"?>
<svg version="1.1" viewBox="0 0 1200 1200" xmlns="http://www.w3.org/2000/svg">
 <g>
  <path d="m607.2 108h-2.3984-7.1992c-398.4 1.1992-514.8 666-510 844.8 0 4.8008 206.4 166.8 511.2 175.2h4.8008 4.8008c303.6-8.3984 510-175.2 510-175.2s-111.6-841.2-511.2-844.8zm0 942h-3.6016-3.6016c-259.2-6-430.8-144-430.8-148.8-3.6016-151.2 91.199-715.2 429.6-716.4h6 2.3984c338.4 3.6016 429.6 716.4 429.6 716.4s-171.6 142.8-429.6 148.8z"/>
  <path d="m595.2 704.4c-12 0-15.602 24-16.801 34.801l15.602-15.602 18 18c-1.1992-9.5977-4.8008-37.199-16.801-37.199z"/>
  <path d="m630 660c-6 4.8008-12 15.602-12 25.199 0 9.6016 6 20.398 14.398 25.199 8.3984 4.8008 21.602 8.3984 30 8.3984 8.3984 0 16.801-4.8008 19.199-12 2.3984-6 2.3984-18 1.1992-26.398-1.1992-8.3984-12-18-22.801-21.602-9.5977-4.7969-23.996-3.5977-29.996 1.2031z"/>
  <path d="m526.8 717.6c8.3984 0 21.602-3.6016 30-8.3984 8.3984-4.8008 14.398-15.602 14.398-25.199 0-9.6016-6-20.398-12-25.199-6-4.8008-20.398-4.8008-31.199-1.1992-10.801 3.6016-20.398 13.199-22.801 21.602-1.1992 8.3984-1.1992 20.398 1.1992 26.398 3.6016 7.1953 12 11.996 20.402 11.996z"/>
  <path d="m541.2 777.6c-2.3984-33.602-37.199-18-44.398-28.801s-10.801-34.801-10.801-34.801 9.6016-10.801 1.1992-34.801c0 0 0-1.1992-1.1992-2.3984l-102 103.2-49.199-49.199v192h192l-66-66z"/>
  <path d="m668.4 381.6 56.398 56.398-80.398 80.398c43.199 15.602 69.602 50.398 74.398 79.199l82.801-82.801 51.602 51.602v-184.8z"/>
  <path d="m702 679.2v0c-8.3984 24 1.1992 34.801 1.1992 34.801s-2.3984 24-10.801 34.801c-7.1992 10.801-43.199-6-44.398 30l78 78-66 66h193.2v-194.4l-50.398 51.602z"/>
  <path d="m469.2 600c3.6016-28.801 30-63.602 73.199-80.398l-81.602-81.602 56.398-56.398h-182.39v182.4l49.199-49.199z"/>
 </g>
</svg>
