<?xml version="1.0" encoding="UTF-8"?>
<svg width="1200pt" height="1200pt" version="1.1" viewBox="0 0 1200 1200" xmlns="http://www.w3.org/2000/svg">
 <path d="m1108.6 825.56c40.031 0 72.602-32.57 72.602-72.602s-32.57-72.602-72.602-72.602h-28.199v-411.64c0-10.352-8.3984-18.75-18.75-18.75h-93c-10.352 0-18.75 8.3984-18.75 18.75v54.414l-84.77-68.961c-6.8828-5.6055-16.781-5.6055-23.664 0l-208.35 169.52c-4.3867 3.5625-6.918 8.9062-6.918 14.551v242.12h-338.43v-61.445l104.55-104.57h60.656c36.602 0 66.355-29.758 66.355-66.355 0-36.133-29.023-65.625-64.988-66.336-13.051-91.387-91.273-160.59-185.32-160.59-94.07 0-172.29 69.207-185.34 160.59-35.945 0.73047-64.969 30.207-64.969 66.336 0 36.602 29.758 66.355 66.355 66.355h60.637l104.57 104.57v61.445h-153.38c-40.031 0-72.602 32.57-72.602 72.602 0 40.027 32.57 72.598 72.602 72.598h153.38v50.477l-109.22 109.2c-3.5234 3.5234-5.4922 8.2891-5.4922 13.258v40.988c-26.23 8.082-45.469 32.27-45.469 61.105 0 35.418 28.801 64.219 64.219 64.219 35.418 0 64.219-28.801 64.219-64.219 0-28.836-19.238-53.023-45.469-61.105v-33.227l109.22-109.2c3.5234-3.5234 5.4922-8.2891 5.4922-13.258v-58.238h119.12v118.45c-26.23 8.082-45.469 32.27-45.469 61.105 0 35.418 28.801 64.219 64.219 64.219 35.418 0 64.219-28.801 64.219-64.219 0-28.836-19.238-53.023-45.469-61.105v-118.45h139.61v213.94c-26.23 8.082-45.469 32.27-45.469 61.105 0 35.418 28.801 64.219 64.219 64.219s64.219-28.801 64.219-64.219c0-28.836-19.238-53.023-45.469-61.105v-213.94h139.61v118.45c-26.23 8.082-45.469 32.27-45.469 61.105 0 35.418 28.801 64.219 64.219 64.219s64.219-28.801 64.219-64.219c0-28.836-19.238-53.023-45.469-61.105v-118.45h119.14v58.238c0 4.9688 1.9688 9.75 5.4922 13.258l109.2 109.2v33.227c-26.23 8.082-45.469 32.27-45.469 61.105 0 35.418 28.801 64.219 64.219 64.219s64.219-28.801 64.219-64.219c0-28.836-19.238-53.023-45.469-61.105v-40.988c0-4.9688-1.9688-9.75-5.4922-13.258l-109.2-109.2v-50.477zm-820.84-311.21h51.523l-51.523 51.523zm-37.5 51.543-51.543-51.543h51.543zm561.92-124.52c0-22.707 18.414-41.117 41.117-41.117 22.707 0 41.117 18.414 41.117 41.117 0 22.707-18.414 41.117-41.117 41.117s-41.117-18.41-41.117-41.117zm61.969 257.74v-109.12c0-12.637 10.258-22.895 22.895-22.895h52.949c12.637 0 22.895 10.258 22.895 22.895v109.12zm-271.41-426.66c-65.418 0-118.63-53.211-118.63-118.65 0-65.418 53.211-118.63 118.63-118.63 65.418 0 118.65 53.211 118.65 118.63 0.003906 65.418-53.23 118.65-118.65 118.65zm0-199.78c-44.738 0-81.133 36.395-81.133 81.133 0 44.738 36.395 81.148 81.133 81.148s81.148-36.395 81.148-81.148c0.003906-44.758-36.41-81.133-81.148-81.133z"/>
</svg>
