<?xml version="1.0" encoding="UTF-8"?>
<svg width="1200pt" height="1200pt" version="1.1" viewBox="0 0 1200 1200" xmlns="http://www.w3.org/2000/svg">
 <path d="m865.05 954.04c-45.898 78.301-107.09 147.74-181.16 204.02 118.23-17.574 224.52-71.711 307.01-150.54-38.047-21.688-80.523-39.512-125.85-53.484zm-283.91-374.53v-422.77c-23.301-7.8633-40.074-29.898-40.074-55.863 0-32.551 26.387-58.949 58.949-58.949 32.551 0 58.949 26.387 58.949 58.949 0 25.961-16.773 48-40.086 55.863v422.77zm250.88-468.61c-32.551 0-58.949 26.387-58.949 58.949 0 25.961 16.773 48 40.086 55.863v111.02l-71.676 38.637c-6.3125 3.3984-9.8984 9.875-9.9141 16.574l-0.039063 187.56h37.727l0.003906-176.34 70.562-38.039c6.5234-2.9766 11.051-9.5391 11.051-17.176v-122.25c23.301-7.8633 40.086-29.898 40.086-55.863 0.011719-32.547-26.375-58.938-58.938-58.938zm237.31 64.977c-32.551 0-58.949 26.387-58.949 58.949 0 25.961 16.773 48 40.086 55.863v87.449l-71.676 38.637c-6.3125 3.3984-9.8984 9.875-9.9141 16.574l-0.039063 146.18h37.727l0.003906-134.97 70.562-38.039c6.5234-2.9766 11.051-9.5391 11.051-17.176v-98.664c23.301-7.8633 40.086-29.898 40.086-55.863 0-32.547-26.387-58.934-58.938-58.934zm-701.34-64.977c32.551 0 58.949 26.387 58.949 58.949 0 25.961-16.773 48-40.086 55.863v111.02l71.676 38.637c6.3125 3.3984 9.8984 9.875 9.9141 16.574l0.039063 187.56h-37.727l-0.003906-176.34-70.562-38.039c-6.5234-2.9766-11.051-9.5391-11.051-17.176v-122.25c-23.301-7.8633-40.086-29.898-40.086-55.863-0.011719-32.547 26.375-58.938 58.938-58.938zm-237.31 64.977c32.551 0 58.949 26.387 58.949 58.949 0 25.961-16.773 48-40.086 55.863v87.449l71.676 38.637c6.3125 3.3984 9.8984 9.875 9.9141 16.574l0.039063 146.18h-37.727l-0.003906-134.97-70.562-38.039c-6.5234-2.9766-11.051-9.5391-11.051-17.176v-98.664c-23.301-7.8633-40.086-29.898-40.086-55.863-0.011719-32.547 26.387-58.934 58.938-58.934zm450.46 981.85v-241.44c-71.477 1.3633-142.49 10.426-208.61 27.211 51.488 84.926 122.2 158.43 208.61 214.23zm0-279.16v-261.32h-304.69c3.0625 103.89 29.887 203.52 76.852 292.38 72.098-19.262 149.8-29.613 227.84-31.051zm37.727-261.32v261.32c78.039 1.4375 155.74 11.789 227.82 31.051 46.961-88.852 73.789-188.48 76.852-292.38zm0 299.05c71.477 1.3516 142.49 10.426 208.61 27.211-51.488 84.914-122.2 158.43-208.61 214.23zm-102.75 241.77c-118.23-17.574-224.51-71.711-307.01-150.54 38.039-21.688 80.512-39.512 125.85-53.488 45.898 78.301 107.09 147.74 181.16 204.03zm-199.66-237.68c-48.562 15.5-93.988 35.273-134.51 59.336-87.914-96.301-142.99-223.04-147.56-362.5h204.49c3 107.6 30.062 210.82 77.586 303.16zm644.69-303.15h204.49c-4.5742 139.46-59.648 266.2-147.56 362.5-40.523-24.074-85.961-43.852-134.51-59.352 47.523-92.348 74.586-195.56 77.586-303.15z" fill-rule="evenodd"/>
</svg>
