<?xml version="1.0" encoding="UTF-8"?>
<svg width="1200pt" height="1200pt" version="1.1" viewBox="0 0 1200 1200" xmlns="http://www.w3.org/2000/svg">
 <path d="m768.91 944.56v-112.03l56.516-31.91zm-14.758-112.03v112.03l-56.516-143.94zm-183.11 31.113c15.652 0 28.359 12.711 28.359 28.371 0 15.645-12.707 28.352-28.359 28.352-15.652 0-28.359-12.707-28.359-28.352 0-15.66 12.707-28.371 28.359-28.371zm197.87-48.074 57.16-32.262c0.30469-0.17969 0.61719-0.32812 0.92969-0.44531l-58.09-147.95zm-72.852-32.707c0.31641 0.11719 0.625 0.26562 0.92969 0.44531l57.164 32.262v-180.66zm-324.25-342.25c-2.293-0.015625-4.5195 0.60547-6.457 1.7109l-0.41797 0.26563c-1.5156 0.94531-2.8516 2.2305-3.8867 3.8086l-0.39062 0.63281-100.85 174.67c-2.6406 4.5742-2.2109 10.301 1.0898 14.434l100.84 126.23c0.87891 1.1367 1.9688 2.1523 3.2422 2.9648l0.51172 0.3125 0.52344 0.27734c1.3438 0.71094 2.7617 1.1367 4.1914 1.3281l159.73 24.223c5.2266 0.79688 10.406-1.6953 13.051-6.2891l100.84-174.65 0.35547-0.66406c0.84766-1.6836 1.293-3.4844 1.3594-5.2695l0.007813-0.48828c0-2.2422-0.58203-4.4727-1.7344-6.4648l-0.25781-0.41406c-0.28906-0.45703-0.60938-0.91406-0.96094-1.3281l-100.83-126.21c-2.0195-2.5234-4.918-4.2031-8.1172-4.6914l-159.71-24.207c-0.54297-0.089844-1.0898-0.14844-1.6328-0.17578zm240.35 173.37-132.66-20.117-87.047 150.77 132.66 20.102zm-325.71 12.973 83.75 104.83 87.043-150.76-83.746-104.84zm115.86-155.88 122.52 18.582s77.348 96.809 77.348 96.809l-122.52-18.566zm289.61 12.707c15.652 0 28.359 12.695 28.359 28.355 0 15.645-12.707 28.352-28.359 28.352-15.648 0-28.355-12.707-28.355-28.352 0-15.66 12.707-28.355 28.355-28.355zm52.801-42.996 81.109-12.297 52.113 90.273-81.109 12.297zm197.21 6.4961-51.203 64.102-52.113-90.273 51.203-64.086zm-116.19-33.715-78.195 11.867 49.363-61.801 78.195-11.852zm-306.36-135.67c1.5469 1.0312 3.3242 2.0195 5.3359 2.9219 14.008 6.2266 42.188 10.746 74.691 10.746 32.496 0 60.68-4.5195 74.688-10.746 2.0117-0.90234 3.7852-1.8906 5.3359-2.9219v105.8c0 10.199-35.855 18.465-80.023 18.465-44.168 0-80.027-8.2656-80.027-18.465zm-155.09 26.949c15.648 0 28.355 12.711 28.355 28.355s-12.707 28.355-28.355 28.355c-15.652 0-28.359-12.711-28.359-28.355s12.707-28.355 28.359-28.355zm235.64-59.082c43.93 0.058593 79.508 8.3086 79.508 18.477 0 10.141-35.578 18.406-79.508 18.465h-0.51562c-44.168 0-80.027-8.2773-80.027-18.465 0-10.199 35.859-18.477 80.027-18.477z" fill-rule="evenodd"/>
</svg>
