<?xml version="1.0" encoding="UTF-8"?>
<svg width="1200pt" height="1200pt" version="1.1" viewBox="0 0 1200 1200" xmlns="http://www.w3.org/2000/svg">
 <path d="m607.56 933.83c0.074219 0.23828 0.16406 0.47266 0.26562 0.72656l13.586 31.613c-12.973 4.0742-27.172 4.4883-40.961 0.57812l12.766-32.016c0.09375-0.22266 0.17188-0.45703 0.23828-0.69531 4.7539 0.85547 9.5391 0.75391 14.105-0.20703zm-37.871-15.07c2.6602 3.8398 6.0703 7.2031 10.121 9.8477-0.11328 0.21875-0.21094 0.44141-0.30078 0.66406l-12.773 32.016c-12.719-6.6445-22.738-16.727-29.363-28.605l31.668-13.609c0.22266-0.089843 0.4375-0.19141 0.64844-0.3125zm61.191-0.82422c0.22656 0.11719 0.46094 0.22266 0.70313 0.32422l31.965 12.754c-6.6367 12.691-16.703 22.699-28.578 29.328l-13.582-31.617c-0.10156-0.23438-0.21875-0.47266-0.34375-0.69531 3.8359-2.6562 7.1953-6.0508 9.8359-10.094zm-99.898-39.809 32.043 12.781c0.21484 0.074219 0.43359 0.16406 0.65234 0.22266-0.86328 4.7656-0.76172 9.5625 0.19922 14.141-0.22266 0.074219-0.44141 0.14844-0.66406 0.25l-31.672 13.594c-4.0703-12.973-4.4922-27.188-0.55859-40.988zm137.5-1.7695c4.0547 12.973 4.4688 27.156 0.54297 40.941l-31.969-12.75c-0.24219-0.10547-0.48828-0.17969-0.73047-0.25391 0.86328-4.7344 0.76562-9.5195-0.1875-14.094 0.24219-0.074219 0.48828-0.16406 0.72656-0.26562zm-103.4-41.301 13.609 31.676c0.09375 0.22266 0.19531 0.42969 0.30859 0.63281-3.8516 2.6602-7.2227 6.0664-9.875 10.113-0.20312-0.10547-0.41406-0.19141-0.62891-0.28125l-32.043-12.781c6.6484-12.723 16.73-22.746 28.629-29.359zm68.254-0.87109c12.703 6.6445 22.711 16.723 29.32 28.605l-31.617 13.578c-0.23828 0.10547-0.46484 0.22266-0.6875 0.33984-2.6523-3.8359-6.0508-7.2031-10.09-9.8594 0.11328-0.21875 0.21484-0.44141 0.30859-0.66406zm-54.691-4.9453c12.988-4.0703 27.191-4.4688 40.988-0.54297l-12.77 32.012c-0.09375 0.22266-0.17188 0.45703-0.23828 0.69531-4.7578-0.87109-9.5469-0.78125-14.121 0.17578-0.074218-0.23438-0.15625-0.45703-0.25391-0.67969zm143.57-40.809c16.262 0 29.465 13.195 29.465 29.461s-13.203 29.477-29.465 29.477-29.465-13.211-29.465-29.477 13.203-29.461 29.465-29.461zm-114.84-105.99h-14.762v121.21c0 4.0742 3.3086 7.3828 7.3789 7.3828 4.0742 0 7.3828-3.3086 7.3828-7.3828zm72.148-57.195v14.758h35.309v140.28c2.3906-0.45703 4.8555-0.70703 7.3789-0.70703s4.9883 0.25 7.3789 0.70703v-147.66c0-4.0742-3.3047-7.3789-7.3789-7.3789zm-294.51 70.418c16.262 0 29.465 13.211 29.465 29.461 0 16.266-13.203 29.477-29.465 29.477s-29.465-13.211-29.465-29.477c0-16.25 13.203-29.461 29.465-29.461zm252.07-13.223h-14.758v42.684c0 4.0742 3.3047 7.3828 7.3789 7.3828h40.961c4.0742 0 7.3789-3.3086 7.3789-7.3828 0-4.0742-3.3047-7.3789-7.3789-7.3789h-33.582zm-59.426 0h-14.758v35.305h-140.28c0.46875 2.3906 0.71094 4.8555 0.71094 7.3789 0 2.5273-0.24219 4.9922-0.71094 7.3828h147.66c4.0742 0 7.3789-3.3086 7.3789-7.3828zm315.11-44.68v84.102l-42.426-108.06zm14.762 84.102v-84.102l42.418-23.957zm-387.07-96.617h-42.688c-4.0781 0-7.3828 3.3047-7.3828 7.3789v40.961c0 4.0703 3.3086 7.3789 7.3828 7.3789 4.0742 0 7.3789-3.3086 7.3789-7.3789v-33.582h35.309zm150.2-93.004h-141.35v141.34h141.35zm-297.38 113.36-56.387 22.082v-77.445l56.387-22.082zm-127.53-77.445 56.387 22.082v77.445l-56.387-22.082zm369.14-14.879h-57.164c-4.0742 0-7.3789 3.3086-7.3789 7.3828v84.516c0 4.0742 3.3047 7.3789 7.3789 7.3789h84.516c4.0781 0 7.3828-3.3047 7.3828-7.3789v-61.758c0-4.0742-3.3086-7.3789-7.3828-7.3789-4.0703 0-7.3789 3.3047-7.3789 7.3789v54.379h-69.754v-69.758h49.781c4.0742 0 7.3828-3.3047 7.3828-7.3789 0-4.0742-3.3086-7.3828-7.3828-7.3828zm233.87 42.777c0.31641 0.11719 0.62891 0.26562 0.93359 0.44141l43.07 24.309v-136.82zm58.766 24.75 43.07-24.309c0.30859-0.17578 0.61719-0.32422 0.92969-0.44141l-44-112.07zm-228.01-25.266v14.758h121.2c4.0742 0 7.3828-3.3047 7.3828-7.3789 0-4.0742-3.3086-7.3789-7.3828-7.3789zm-159.06 0h-121.2c-4.0742 0-7.3828 3.3047-7.3828 7.3789 0 4.0742 3.3086 7.3789 7.3828 7.3789h121.2zm-35.309-29.715v-140.28c-2.3906 0.47266-4.8555 0.70703-7.3789 0.70703-2.5234 0-4.9883-0.23438-7.3828-0.70703v147.66c0 4.0703 3.3047 7.3789 7.3828 7.3789h42.688v-14.762zm194.37 0v14.762h42.688c4.0742 0 7.3789-3.3086 7.3789-7.3789v-40.961c0-4.0742-3.3047-7.3789-7.3789-7.3789s-7.3789 3.3047-7.3789 7.3789v33.578zm-316.36-9.5469-53.645 20.988-53.645-20.988 53.645-21.004zm199.74-32.887h14.758v-42.688c0-4.0742-3.3047-7.3789-7.3789-7.3789h-40.961c-4.0742 0-7.3789 3.3047-7.3789 7.3789 0 4.0742 3.3047 7.3828 7.3789 7.3828h33.582zm29.711 0h14.762v-121.21c0-4.0742-3.3086-7.3789-7.3828-7.3789-4.0703 0-7.3789 3.3047-7.3789 7.3789zm184.75-50.066h-147.66c-4.0742 0-7.3789 3.3047-7.3789 7.3789v42.688h14.758v-35.305h140.28c-0.46875-2.3945-0.71094-4.8594-0.71094-7.3828 0-2.5234 0.24219-4.9883 0.71094-7.3789zm37.609-22.098c16.262 0 29.465 13.211 29.465 29.477 0 16.266-13.203 29.461-29.465 29.461s-29.465-13.195-29.465-29.461c0-16.266 13.203-29.477 29.465-29.477zm-337.2-92.75c16.262 0 29.465 13.195 29.465 29.461 0 16.266-13.203 29.461-29.465 29.461-16.266 0-29.465-13.195-29.465-29.461 0-16.266 13.199-29.461 29.465-29.461zm66.832-10.613c15.016-4.7812 30.676-1.1797 47.602 2.4805 16.906 3.6758 34.93 7.6289 54.555 6.332-12.566 10.82-28.91 17.355-46.773 17.355-22.289 0-42.223-10.184-55.383-26.168zm-16.164-40.309c22.086-5.2695 44.184-1.9336 67.137 1.3555 24.031 3.457 48.941 6.9375 75.574 2.5273-1.3008 10.211-4.7578 19.762-9.8984 28.176-24.34 5.8281-45.984 0.63281-65.918-3.6914-21.09-4.5742-40.473-8.0156-59.094-0.70703-4.3438-8.3984-7.082-17.742-7.8008-27.66zm10.242-42.523c20.66-3.8984 40.801-0.47266 60.812 2.4062 21.152 3.0391 42.16 5.5352 63.402 0.36719 4.7344 8.6055 7.7539 18.289 8.5938 28.59-26.098 4.9141-50.402 1.2695-73.824-2.0938-23.48-3.3672-46.129-6.3906-68.734-1.9336 1.3711-9.9062 4.7656-19.145 9.75-27.336zm13.621-16.324c12.684-11.293 29.391-18.156 47.684-18.156 21.332 0 40.5 9.3281 53.645 24.117-17.406 3.0273-34.672 0.64844-52.035-1.8438-16.289-2.3477-32.664-4.8281-49.293-4.1172z" fill-rule="evenodd"/>
</svg>
