<?xml version="1.0" encoding="UTF-8"?>
<svg width="1200pt" height="1200pt" version="1.1" viewBox="0 0 1200 1200" xmlns="http://www.w3.org/2000/svg">
 <g>
  <path d="m813.94 104.18h-155.67c-76.852 0-144.47 105.28-183.66 264.68-0.52344 2.1367 0.51172 4.3477 2.4844 5.3203 26.578 13.781 46.383 37.809 54.84 66.527 8.457 28.715 4.8359 59.641-10.027 85.629-0.80469 1.375-0.85547 3.0664-0.13672 4.4883s2.1133 2.3789 3.6992 2.543c16.684 1.5586 33.051 5.5703 48.562 11.906 1.3555 0.53516 2.8789 0.40625 4.1289-0.33984 1.2461-0.75 2.0781-2.0352 2.2461-3.4805 20.156-172.08 74.836-298.27 139.9-363 3.3633-3.3633 8.0195-5.1016 12.766-4.7656 4.7422 0.33984 9.1055 2.7188 11.961 6.5234 87.938 115.08 132.63 303.8 132.63 508.59 0 185.44-32.414 350.72-82.945 457.83h155.67c50.531-107.11 87.891-272.41 87.891-457.83 0-322.88-103.12-584.62-224.34-584.62z"/>
  <path d="m1079 1158.4h-967.85c-7.7656 0-14.062-6.2969-14.062-14.062 0-7.7656 6.2969-14.062 14.062-14.062h967.97c7.7656 0 14.062 6.2969 14.062 14.062 0 7.7656-6.2969 14.062-14.062 14.062z"/>
  <path d="m508.29 471.82c0 45.238-36.676 81.914-81.914 81.914s-81.914-36.676-81.914-81.914c0-45.238 36.676-81.914 81.914-81.914s81.914 36.676 81.914 81.914"/>
  <path d="m706.03 842.37c-2.6016-24.422-10.594-73.336-20.086-105.75-23.438-80.25-80.672-189.52-199.41-174.56-81.047 10.219-108.56 77.156-117.89 121.43-6.6797 31.688-15.773 65.977-35.648 91.523-11.719 14.953-50.273 56.695-50.273 56.695-4.293 6.3242-5.9609 14.07-4.6484 21.602s5.5 14.258 11.68 18.758c5.8555 4.0625 12.965 5.9062 20.055 5.2031 7.0938-0.70312 13.699-3.9102 18.641-9.0469 15.188-15.258 32.648-24.422 54.07-52.734 17.039-24.117 29.555-52.125 36.867-70.688 0.91406-1.8594 2.9453-2.8984 4.9883-2.5547 2.0469 0.34766 3.6211 1.9961 3.8711 4.0547 1.7109 41.977-0.25781 101.88-4.2891 125.02-6.5391 37.5-22.5 126.68-24.234 150.52-2.0391 28.125 2.1562 86.906 2.6953 84.586 0.34766 10.785 4.875 21.012 12.625 28.516 7.75 7.5039 18.117 11.703 28.906 11.703 11.219-0.007812 21.953-4.5547 29.766-12.602 7.8164-8.0469 12.043-18.914 11.719-30.125 0 0-4.6875-37.5-1.9922-70.688 1.7812-22.453 25.523-97.945 38.227-137.16 0.94141-2.9141 3.7266-4.8281 6.7852-4.6641 3.0586 0.16406 5.6211 2.3672 6.2461 5.3672 7.4531 35.672 21.352 100.08 29.672 126.09 7.2891 22.758 36.586 97.383 36.586 97.383 4.0273 9.7539 11.527 17.672 21.051 22.219 9.5234 4.5508 20.391 5.4102 30.512 2.4141 11.496-3.3867 21.039-11.453 26.301-22.223 5.2578-10.77 5.75-23.254 1.3555-34.402 0 0-28.125-71.484-33.352-93.586-11.719-49.711-28.852-201.56-52.102-275.65-0.45312-2.0586 0.52344-4.168 2.3906-5.1523 1.8633-0.98438 4.1562-0.60156 5.6016 0.93359 32.812 43.688 41.039 124.22 45.75 143.41 3.7969 15.586 21.938 23.062 37.125 17.953 15.188-5.1094 22.219-18.047 20.438-33.797z"/>
 </g>
</svg>
