<?xml version="1.0" encoding="UTF-8"?>
<svg width="1200pt" height="1200pt" version="1.1" viewBox="0 0 1200 1200" xmlns="http://www.w3.org/2000/svg">
 <path d="m978.75 605.5c0.027344 61.238-14.812 121.57-43.25 175.81-28.438 54.234-69.617 100.76-120 135.57l-2.375-2.125c-25-22.75-89.25-73.875-137.5-56.75l-8.625 3.125c-23.625 9-50 19.125-105 0-36.5-12.5-89 8.875-155.75 65l-3.5 2.875c-71.031-43.414-125.81-109-155.88-186.62l4.75-6.125c21-27 40.5-43.5 56.25-47.75 21-5.625 45.5 19.25 69.25 43.125s50 50 79.125 50h1.375c16.566-1.0352 31.938-8.9688 42.375-21.875 34.625-38.875 56.75-106.25 65.125-152v-2.25h125c-13.098 13.938-18.352 33.5-14 52.125 4.9844 24.504 17.938 46.672 36.84 63.043 18.902 16.371 42.695 26.027 67.66 27.457h6.875c65.5 0 100-70.375 104.25-142v-0.75zm-299 264.25c-26 9.125-56.25 26.375-122.12 2.875-40.5-14.375-102.12 28-143.5 62.5 3.375 1.875 6.875 3.875 10.375 5.625 7 3.875 14.125 7.25 21.375 10.375l9.25 4c6.25 2.625 12.5 5 19 7.25l8.75 3 11 3.5c6.5 1.875 13.125 3.625 19.75 5.125 3.332 0.91797 6.707 1.668 10.125 2.25 4.668 1 9.418 1.875 14.25 2.625 20.652 3.4492 41.559 5.1641 62.5 5.125h10.625 7.5c10.375 0 20.75-1.375 30.875-2.625l11.25-1.625h1.25l14.75-2.75c3.875-0.75 7.75-1.625 11.5-2.625 16.152-3.7773 32.023-8.6641 47.5-14.625 7.75-2.8477 15.344-6.1055 22.75-9.75 4-1.75 8-3.75 12.5-5.75l11.75-6.125c7.625-4.25 15.125-8.75 22.5-13.375-34-30.875-88.5-68.125-125.5-55zm8.875-215c4.3477 21.902 15.859 41.738 32.719 56.379s38.109 23.258 60.406 24.496c60.5 3.75 92.5-62.5 96.875-130.12h-171.38c-0.058594 0.625-0.058594 1.25 0 1.875-7.5508 5.0703-13.379 12.316-16.703 20.781-3.3281 8.4648-4 17.738-1.9219 26.594zm-383.88 21.75c64-17.25 121.75 146.88 185.88 75 29.875-33.625 52.625-94.125 62.5-146h-331.88c0 9.75 0 19.5 1.25 29.125v4.75c0 3.875 0.75 7.75 1.25 11.625 0 1.625 0 3.25 0.625 4.875 0 4 1.125 7.875 1.75 12.5v2.375c0.875 5 1.875 10 2.875 14.875 3.1328 14.777 7.3125 29.312 12.5 43.5 20.125-26 42-47 63.25-52.625zm487.5-123.5c4.8672 2.3711 10.211 3.6133 15.625 3.625 11.77 0.011719 22.785-5.793 29.43-15.504 6.6484-9.7109 8.0703-22.082 3.8008-33.047-4.2734-10.969-13.684-19.117-25.148-21.777-11.465-2.6602-23.5 0.51562-32.164 8.4805-8.6641 7.9648-12.832 19.695-11.141 31.344 1.6914 11.648 9.0273 21.707 19.598 26.879zm-62.5 25c0.96875 4.75 1.6797 9.5469 2.125 14.375h19.125l31.625-29.875c-7.3359-4.2891-13.348-10.52-17.375-18zm184.62-103c8.6992 0.015625 17.102-3.1602 23.613-8.9297 6.5078-5.7695 10.676-13.727 11.707-22.363 1.0312-8.6406-1.1484-17.355-6.1172-24.492-4.9727-7.1406-12.391-12.203-20.848-14.234-8.4609-2.0312-17.371-0.88281-25.039 3.2227-7.668 4.1055-13.566 10.883-16.566 19.047-3.125 8.0391-3.125 16.961 0 25 2.4531 6.8008 6.9297 12.688 12.832 16.867 5.8984 4.1797 12.938 6.4492 20.168 6.5078zm-223.25-83.375h68.25v48.5c0 3.3164 1.3164 6.4961 3.6602 8.8398s5.5234 3.6602 8.8398 3.6602h96c-2.3359-8.168-2.3359-16.832 0-25h-83.5v-96.875h83.5c-2.3359-8.168-2.3359-16.832 0-25h-96c-6.9023 0-12.5 5.5977-12.5 12.5v48.375h-80.75c-6.9023 0-12.5 5.5977-12.5 12.5v112.5c9.0742 5.1953 17.473 11.492 25 18.75zm223-37.5c8.6992 0.015625 17.102-3.1602 23.613-8.9297 6.5078-5.7695 10.676-13.727 11.707-22.363 1.0312-8.6406-1.1484-17.355-6.1172-24.492-4.9727-7.1406-12.391-12.203-20.848-14.234-8.4609-2.0312-17.371-0.88281-25.039 3.2227-7.668 4.1055-13.566 10.883-16.566 19.047-3.125 8.0391-3.125 16.961 0 25 2.6133 6.6641 7.1953 12.375 13.137 16.371 5.9375 4 12.953 6.0938 20.113 6.0039zm-445.75 238.88c0.44531-4.8281 1.1562-9.625 2.125-14.375l-35.75-34.5c-3.9727 7.6211-9.9883 13.984-17.375 18.375l31.875 30.875zm-182.5-117.38c7.2578 0.003906 14.34-2.2266 20.289-6.3828 5.9492-4.1602 10.473-10.051 12.961-16.867 3.125-8.0391 3.125-16.961 0-25-3-8.1641-8.8984-14.941-16.566-19.047-7.668-4.1055-16.578-5.2539-25.039-3.2227-8.457 2.0312-15.875 7.0938-20.848 14.234-4.9688 7.1367-7.1484 15.852-6.1172 24.492 1.0312 8.6367 5.1992 16.594 11.707 22.363 6.5117 5.7695 14.914 8.9453 23.613 8.9297zm142.25 45.5c0-9.4141-3.7383-18.445-10.398-25.102-6.6562-6.6602-15.688-10.398-25.102-10.398s-18.445 3.7383-25.102 10.398c-6.6602 6.6562-10.398 15.688-10.398 25.102s3.7383 18.445 10.398 25.102c6.6562 6.6602 15.688 10.398 25.102 10.398 9.4258 0.035156 18.473-3.6953 25.141-10.359 6.6641-6.668 10.395-15.715 10.359-25.141zm-142.25-167.38c7.2617 0.023438 14.355-2.1992 20.305-6.3633 5.9531-4.1602 10.473-10.059 12.945-16.887 3.125-8.0391 3.125-16.961 0-25-3-8.1641-8.8984-14.941-16.566-19.047-7.668-4.1055-16.578-5.2539-25.039-3.2227-8.457 2.0312-15.875 7.0938-20.848 14.234-4.9688 7.1367-7.1484 15.852-6.1172 24.492 1.0312 8.6367 5.1992 16.594 11.707 22.363 6.5117 5.7695 14.914 8.9453 23.613 8.9297zm301.62-69.25c8.0391 3.125 16.961 3.125 25 0 10.457-3.9336 18.453-12.562 21.582-23.289 3.125-10.727 1.0234-22.301-5.6836-31.238-6.7031-8.9375-17.227-14.199-28.398-14.199s-21.695 5.2617-28.398 14.199c-6.707 8.9375-8.8086 20.512-5.6836 31.238 3.1289 10.727 11.125 19.355 21.582 23.289zm25 189.25v-176.25c-8.168 2.3359-16.832 2.3359-25 0v176.25h12.5c4.25 0 8.375-0.25 12.5 0zm-184.38-21.125c3.3164 0 6.4961-1.3164 8.8398-3.6602s3.6602-5.5234 3.6602-8.8398v-48.5h68.25v118.12c7.5273-7.2578 15.926-13.555 25-18.75v-112.5c0-3.3164-1.3164-6.4961-3.6602-8.8398s-5.5234-3.6602-8.8398-3.6602h-80.75v-47.75c0-3.3164-1.3164-6.4961-3.6602-8.8398s-5.5234-3.6602-8.8398-3.6602h-96c2.3359 8.168 2.3359 16.832 0 25h83.5v96.875h-83.5c2.3359 8.168 2.3359 16.832 0 25zm171.88 33.125h-12.5c-19.238 1.9414-37.699 8.5977-53.75 19.375-7.8281 5.3984-14.965 11.738-21.25 18.875-16.863 17.949-27.699 40.719-31 65.125v3.875h237.5v-3.875c-3.4375-24.465-14.453-47.242-31.5-65.125-6.3984-6.9336-13.617-13.062-21.5-18.25-15.98-10.738-34.352-17.391-53.5-19.375-4.25-0.375-8.375-0.625-12.5-0.625z"/>
</svg>
