<?xml version="1.0" encoding="UTF-8"?>
<svg width="1200pt" height="1200pt" version="1.1" viewBox="0 0 1200 1200" xmlns="http://www.w3.org/2000/svg">
 <g>
  <path d="m463.35 1011.7-60.09 188.28h391.5l-68.098-188.28z"/>
  <path d="m1189.7 1140-128.27-128.27h-260l68.098 188.28h295.31c14.219 0 27.039-8.5664 32.48-21.703 5.4414-13.137 2.4336-28.258-7.6211-38.312z"/>
  <path d="m10.297 1140c-10.055 10.055-13.062 25.176-7.6211 38.312 5.4414 13.133 18.262 21.699 32.48 21.699h294.3l60.09-188.28h-250.98z"/>
  <path d="m730.55 130.55c0 72.098-58.449 130.55-130.55 130.55s-130.55-58.449-130.55-130.55 58.449-130.55 130.55-130.55 130.55 58.449 130.55 130.55"/>
  <path d="m846.33 797.34-9.7656 117.63c-0.76562 9.2031-2.7539 18.055-5.75 26.43h160.31l-140.33-140.33c-1.3867-1.3828-2.8906-2.6094-4.4688-3.7344z"/>
  <path d="m363.44 914.98-9.7656-117.63c-1.5742 1.1211-3.082 2.3477-4.4688 3.7344l-140.33 140.33h160.31c-3-8.375-4.9883-17.227-5.75-26.43z"/>
  <path d="m416.61 705.51 16.902 203.65c1.5117 18.227 16.746 32.246 35.035 32.246h262.91c18.289 0 33.523-14.023 35.035-32.246l16.902-203.65c44.957-13.996 77.695-56 77.695-105.51v-77.812c0-144.45-116.91-261.09-261.09-261.09-144.45 0-261.09 116.91-261.09 261.09v77.812c0 49.508 32.738 91.516 77.699 105.51z"/>
 </g>
</svg>
