<?xml version="1.0" encoding="UTF-8"?>
<svg width="1200pt" height="1200pt" version="1.1" viewBox="0 0 1200 1200" xmlns="http://www.w3.org/2000/svg">
 <path d="m490.77 918.17 109.23-36.074 109.23 36.074-109.23 36.074zm85.695-43.836-109.23 36.074-80.012-26.438 109.23-36.07zm236.3 9.6367-80.012 26.438-109.23-36.074 80.012-26.434zm88.148-29.105-64.613 21.344-109.23-36.074 64.617-21.344zm-428-14.73-109.23 36.074-64.613-21.344 109.23-36.074zm207.09 0-80.012 26.422-80.008-26.422 80.008-26.422zm-87.391-591.94-305.3 100.83v260.82l93.051-30.73c3.8672-1.2852 8.043 0.82422 9.3203 4.6914 1.2773 3.8672-0.82422 8.0469-4.6914 9.3164l-97.68 32.266v217.81l305.3-100.82v-37.051c-67.43-3.8359-120.99-59.793-120.99-128.16 0-68.383 53.562-124.34 120.99-128.18v-85.875l-90.773 29.977c-3.8672 1.2695-8.043-0.82422-9.3242-4.6914-1.2734-3.8672 0.82812-8.043 4.6953-9.3281l95.402-31.5zm320.07 100.83-305.3-100.83v99.379l39.57 13.062c3.8672 1.2695 5.9688 5.4609 4.6953 9.3164-1.2773 3.8789-5.457 5.9766-9.3242 4.707l-34.941-11.543v85.875c67.426 3.8359 120.99 59.793 120.99 128.18 0 68.367-53.566 124.32-120.99 128.16v37.051l305.3 100.82v-217.81l-33.324-11.012c-3.8672-1.2695-5.9727-5.4492-4.6953-9.3164 1.2773-3.8672 5.457-5.9766 9.3242-4.6914l28.695 9.4766v-145.9l-93.562-30.91c-3.8672-1.2695-5.9688-5.4453-4.6914-9.3125 1.2773-3.8672 5.4531-5.9766 9.3203-4.6953l88.934 29.375zm-144.53 461.99-64.613 21.344-80.012-26.422 64.613-21.344zm-191.69-5.0781-80.012 26.422-64.613-21.344 80.008-26.422zm88.148-29.105-64.617 21.328-64.613-21.328 64.613-21.344zm-325.97-26.984c-15.875 5.2422-25.34 8.3711-25.34 8.3711-3.8672 1.2695-5.9688 5.4453-4.6914 9.3125 1.2773 3.8672 5.4531 5.9805 9.3203 4.6953 0 0 9.4648-3.1133 25.34-8.3711 3.8672-1.2695 5.9727-5.4453 4.6953-9.3125-1.2773-3.8672-5.457-5.9766-9.3242-4.6953zm508.46-4.707c-9.1211-3.0117-19.223-6.3477-30.34-10.023-3.8672-1.2656-8.0469 0.82812-9.3203 4.6953-1.2773 3.8672 0.82422 8.043 4.6914 9.3281 11.117 3.6602 21.219 6.9961 30.34 10.023 3.8672 1.2695 8.0469-0.82812 9.3242-4.7109 1.2773-3.8516-0.82812-8.043-4.6953-9.3125zm-350.49-47.469c-62.047 20.504-98.457 32.516-132.06 43.617-3.8711 1.2852-5.9727 5.4609-4.6953 9.3281 1.2773 3.8672 5.4531 5.9648 9.3242 4.6953 33.602-11.102 70.012-23.129 132.06-43.617 3.8672-1.2852 5.9688-5.4609 4.6914-9.3281-1.2773-3.8672-5.4531-5.9648-9.3203-4.6953zm289.01 27.16c-16.816-5.5508-34.062-11.246-50.934-16.812-3.8672-1.2852-8.043 0.82812-9.3203 4.6953-1.2773 3.8672 0.82422 8.043 4.6914 9.3125 16.871 5.5781 34.117 11.277 50.938 16.824 3.8672 1.2695 8.043-0.82422 9.3203-4.6914 1.2773-3.8672-0.82422-8.043-4.6953-9.3281zm-185.62-34.051c-62.703 0-113.61-50.91-113.61-113.61 0-62.715 50.91-113.62 113.61-113.62 62.707 0 113.62 50.906 113.62 113.62 0 62.699-50.91 113.61-113.62 113.61zm253.58-100.46c-32.59-10.762-55.812-18.438-107.58-35.527-3.8672-1.2695-8.0469 0.82422-9.3242 4.6914-1.2773 3.8672 0.82812 8.0469 4.6953 9.3281 51.766 17.094 74.988 24.754 107.58 35.527 3.8672 1.2695 8.043-0.82422 9.3203-4.6914 1.2773-3.8672-0.82422-8.0469-4.6914-9.3281zm-417.98-29.449c-8.668 2.8633-17.312 5.7148-25.824 8.5312-3.8672 1.2695-5.9727 5.4492-4.6914 9.3164 1.2734 3.8672 5.4531 5.9766 9.3203 4.6914 8.5117-2.8047 17.156-5.668 25.824-8.5312 3.8672-1.2695 5.9727-5.4453 4.6914-9.3125-1.2734-3.8672-5.4531-5.9766-9.3203-4.6953zm22.074-168.73c-91.43 30.199-139.86 46.184-139.86 46.184-3.8672 1.2852-5.9688 5.4609-4.6914 9.3281 1.2773 3.8672 5.4531 5.9648 9.3203 4.6953 0 0 48.426-16 139.86-46.188 3.8672-1.2812 5.9688-5.4609 4.6914-9.3281-1.2773-3.8672-5.4531-5.9609-9.3203-4.6914zm330.33 15.086c-36.465-12.047-75.141-24.812-107.7-35.574-3.8672-1.2852-8.043 0.82812-9.3242 4.6953-1.2734 3.8672 0.82813 8.043 4.6953 9.3281 32.559 10.746 71.234 23.527 107.7 35.555 3.8672 1.2852 8.043-0.80859 9.3242-4.6914 1.2773-3.8672-0.82812-8.0469-4.6953-9.3125z" fill-rule="evenodd"/>
</svg>
