<?xml version="1.0" encoding="UTF-8"?>
<svg width="1200pt" height="1200pt" version="1.1" viewBox="0 0 1200 1200" xmlns="http://www.w3.org/2000/svg">
 <path d="m474.7 843.04 125.3-41.387 125.31 41.387-125.31 41.375zm363.64-40.16c0.13672 0.89844 0.34766 1.7695 0.62891 2.625l-90.117 29.758-125.31-41.387 93.77-30.965zm-367.02-36.207c2.9375 2.9219 6.9844 4.7227 11.449 4.7227 4.4492 0 8.4844-1.7852 11.414-4.6914l82.289 27.172-125.31 41.387-93.77-30.965zm390.45-137.71c-2.3984 0.41406-4.8672 0.63281-7.3828 0.63281s-4.9805-0.21875-7.3789-0.63281v171.45c0 4.0742 3.3086 7.3789 7.3789 7.3789 4.0742 0 7.3828-3.3047 7.3828-7.3789zm-522.51 107.59 31.812-10.496 88.098 29.094-125.31 41.371-88.094-29.09 61.836-20.414c2.1406 6.4648 8.2383 11.145 15.422 11.145 8.9609 0 16.234-7.2773 16.234-16.238zm614.99 30.879-83.629 27.613v-55.23zm-116.1-38.332v58.184l-97.305-32.133 88.098-29.094zm-144.37 26.051-93.773 30.965-93.77-30.965 93.77-30.965zm-203.62-337.41c-2.3984 0.41406-4.8672 0.62109-7.3828 0.62109s-4.9805-0.20703-7.3789-0.62109v337.43c0 4.0742 3.3047 7.3789 7.3789 7.3789s7.3828-3.3047 7.3828-7.3789zm-159.75 115.45c-2.3984 0.41406-4.8633 0.62109-7.3789 0.62109s-4.9844-0.20703-7.3789-0.62109v208.73c0 4.0742 3.3047 7.3828 7.3789 7.3828 4.0703 0 7.3789-3.3086 7.3789-7.3828zm384.89 155.34 90.117 29.754-88.098 29.094-93.77-30.969 64.914-21.43c2.9336 2.8906 6.9688 4.6914 11.414 4.6914 7.1836 0 13.281-4.6758 15.422-11.141zm-248.75 6.0039v47.5l-71.93-23.75zm109.94 21.875-77.465 25.582v-51.16zm38.953-60.871 68.207 22.527v2.9492l-83.629 27.633-88.094-29.109 72.676-24c2.1367 6.4805 8.2383 11.145 15.418 11.145 7.1836 0 13.281-4.6641 15.422-11.145zm91.82-187.92c-2.3945 0.41016-4.8633 0.61719-7.3789 0.61719s-4.9805-0.20703-7.3789-0.61719v215.82c0 4.0742 3.3086 7.3789 7.3789 7.3789 4.0742 0 7.3789-3.3047 7.3789-7.3789zm-114.62 118.34v64.488c0 4.0742 3.3086 7.3789 7.3789 7.3789 4.0742 0 7.3828-3.3047 7.3828-7.3789v-64.488c-2.3984 0.41406-4.8633 0.62109-7.3828 0.62109-2.5156 0-4.9805-0.20703-7.3789-0.62109zm214.8-21.609c8.1641-17.77 26.129-30.137 46.961-30.137 28.5 0 51.645 23.141 51.645 51.645 0 17.078-8.3281 32.234-21.125 41.637-3.2734 2.4219-3.9844 7.043-1.5781 10.316 2.4219 3.293 7.0391 3.9883 10.316 1.582 16.457-12.09 27.145-31.574 27.145-53.535 0-36.648-29.754-66.406-66.402-66.406-26.781 0-49.879 15.883-60.375 38.746-1.6992 3.7031-0.074218 8.0859 3.6289 9.7852 3.6992 1.6953 8.0859 0.074219 9.7852-3.6328zm47.414-13.387c19.043 0.23828 34.438 15.781 34.438 34.895 0 19.098-15.395 34.641-34.438 34.879l-0.45312 0.011719c-19.258 0-34.891-15.645-34.891-34.891 0-19.262 15.633-34.895 34.891-34.895zm-301.79-29.621c8.1641-17.789 26.129-30.141 46.961-30.141 28.504 0 51.645 23.129 51.645 51.629 0 17.094-8.3203 32.25-21.117 41.652-3.2852 2.4062-3.9922 7.0273-1.582 10.32 2.4141 3.2734 7.0352 3.9844 10.316 1.5781 16.457-12.09 27.141-31.586 27.141-53.551 0-36.648-29.754-66.391-66.402-66.391-26.777 0-49.879 15.883-60.375 38.746-1.6992 3.6914-0.074219 8.0898 3.6289 9.7852 3.7031 1.6992 8.0859 0.074218 9.7852-3.6289zm47.414-13.402c19.051 0.25 34.441 15.793 34.441 34.891 0 19.113-15.391 34.656-34.441 34.895h-0.45312c-19.254 0-34.891-15.633-34.891-34.895 0-19.262 15.637-34.891 34.891-34.891zm-324.39-39.367c8.1602-17.785 26.129-30.141 46.961-30.141 28.5 0 51.641 23.129 51.641 51.648 0 17.074-8.3203 32.234-21.117 41.637-3.2852 2.4062-3.9922 7.0391-1.5781 10.316 2.4102 3.2773 7.0352 3.9844 10.316 1.582 16.453-12.09 27.137-31.59 27.137-53.535 0-36.652-29.754-66.406-66.398-66.406-26.781 0-49.883 15.883-60.375 38.746-1.7031 3.7031-0.074219 8.0859 3.625 9.7852 3.7031 1.6953 8.0859 0.074219 9.7891-3.6328zm47.41-13.387c19.051 0.23828 34.441 15.777 34.441 34.895 0 19.098-15.391 34.641-34.441 34.875h-0.44922c-19.258 0-34.895-15.629-34.895-34.875 0-19.262 15.637-34.895 34.895-34.895zm329.43-52.191c8.1641-17.785 26.129-30.141 46.961-30.141 28.504 0 51.641 23.129 51.641 51.633 0 17.09-8.3164 32.25-21.117 41.652-3.2812 2.4062-3.9883 7.0234-1.5781 10.316 2.4141 3.2773 7.0352 3.9844 10.316 1.5781 16.457-12.086 27.141-31.586 27.141-53.547 0-36.652-29.754-66.391-66.402-66.391-26.781 0-49.879 15.879-60.375 38.742-1.6992 3.6914-0.074219 8.0898 3.6289 9.7891 3.6992 1.6953 8.0859 0.070312 9.7852-3.6328zm47.414-13.402c19.047 0.25 34.441 15.793 34.441 34.895 0 19.113-15.395 34.656-34.441 34.891h-0.45312c-19.258 0-34.891-15.629-34.891-34.891 0-19.25 15.633-34.895 34.891-34.895zm-264.51-36.473c8.1641-17.785 26.129-30.141 46.961-30.141 28.5 0 51.641 23.129 51.641 51.633 0 17.09-8.3164 32.25-21.117 41.652-3.2812 2.4062-3.9883 7.0273-1.5781 10.316 2.4141 3.2773 7.0352 3.9844 10.316 1.582 16.457-12.09 27.141-31.59 27.141-53.551 0-36.648-29.754-66.391-66.402-66.391-26.781 0-49.879 15.883-60.375 38.746-1.6992 3.7031-0.074219 8.0859 3.6289 9.7852 3.6992 1.6953 8.0859 0.074218 9.7852-3.6328zm47.414-13.402c19.047 0.25391 34.441 15.793 34.441 34.895 0 19.113-15.395 34.656-34.441 34.891h-0.45312c-19.258 0-34.891-15.629-34.891-34.891 0-19.246 15.633-34.895 34.891-34.895z" fill-rule="evenodd"/>
</svg>
