<?xml version="1.0" encoding="UTF-8"?>
<svg width="1200pt" height="1200pt" version="1.1" viewBox="0 0 1200 1200" xmlns="http://www.w3.org/2000/svg">
 <path d="m795.35 958.12c0.003906 16.02-6.3594 31.383-17.684 42.711-11.324 11.328-26.684 17.695-42.703 17.695-16.016 0.003906-31.379-6.3594-42.707-17.684-11.328-11.324-17.695-26.684-17.695-42.703-0.003906-16.016 6.3555-31.379 17.68-42.707 11.328-11.328 26.688-17.695 42.707-17.695 16.008 0.019531 31.359 6.3867 42.684 17.707 11.324 11.316 17.695 26.668 17.719 42.676zm-562.9-208.43-12.191-12.176-2.1055-2.1055-26.477 0.36719h-1.5469l0.36719 30.324v1.9258l28.609-0.38281 13.352-13.922c0.11719-0.11719 0.089844-0.34766 0.17578-0.5 0.8125-1.0625 0.73438-2.5586-0.18359-3.5312zm251.25-153.61c0.89063 5.6836 3.875 10.828 8.3672 14.426 4.4883 3.5977 10.16 5.3867 15.902 5.0195 61.5-3.4102 123.14-3.4258 184.64-0.054687 5.6836 0.33203 11.281-1.4922 15.676-5.1094 4.3984-3.6133 7.2656-8.7539 8.0352-14.395l9.7148-64.16c-41.117-3.0469-83.273-4.6836-126.04-4.6836-42.762 0-84.914 1.6367-126.04 4.6836zm474.3-56.621v-30.758c0.058593-4.418-1.3555-8.7305-4.0195-12.258-2.6641-3.5273-6.4258-6.0703-10.695-7.2227-35.801-8.5312-73.723-15.684-112.97-21.344v-0.003907c-5.8984-0.82422-11.871 0.92578-16.391 4.8086-4.4648 3.8047-7.0195 9.3867-6.9844 15.254v23.195c46.52 5.6406 92.699 13.785 138.34 24.395 4.3672 1.0273 8.4727 2.6289 12.719 3.9336zm-565.03-28.32v-23.203c0.039062-5.8672-2.5195-11.449-6.9844-15.254-4.4961-3.9297-10.488-5.6836-16.391-4.8086-39.246 5.6641-77.168 12.816-112.74 21.289-4.3125 1.125-8.1289 3.6602-10.832 7.1992-2.707 3.543-4.1523 7.8867-4.1094 12.34v30.773c4.2812-1.3203 8.4219-2.9336 12.832-3.9727l0.003907 0.003906c45.605-10.594 91.746-18.73 138.22-24.367zm72.082 386.59 0.003906 0.003907c-16.02-0.003907-31.383 6.3594-42.711 17.684s-17.695 26.688-17.695 42.707c0 16.02 6.3633 31.383 17.688 42.711 11.328 11.324 26.691 17.688 42.711 17.688s31.383-6.3633 42.707-17.691c11.328-11.332 17.688-26.695 17.688-42.715-0.023438-16.008-6.3906-31.355-17.711-42.676-11.32-11.32-26.668-17.688-42.676-17.707zm550.91-151.91 0.003906 0.003906c-1.9688-4.8281-6.2305-8.3438-11.348-9.3633-1.0938-0.35547-2.2266-0.58594-3.375-0.68359-4.1523 0.1875-8.0898 1.9141-11.043 4.8438-2.9492 2.9258-4.707 6.8516-4.9219 11.004 0 2.1484 0.44141 4.2695 1.293 6.2422 1.625 3.8242 4.6719 6.8672 8.4961 8.4883 1.9688 0.85156 4.0898 1.2891 6.2305 1.2891 4.6133-0.046875 8.9648-2.1445 11.875-5.7266 1.957-2.1328 3.2617-4.7852 3.7539-7.6367 0.49609-2.8516 0.16016-5.7891-0.96094-8.457zm-112.47-69.402c0.37109 0.36719 0.89062 0.54297 1.2969 0.875l0.003907 0.003907c2.7305 2.4336 6.2578 3.7734 9.9141 3.7734 3.6523 0 7.1836-1.3398 9.9102-3.7734 0.40625-0.33203 0.92578-0.50781 1.2969-0.875h0.003907c3.5977-3.5312 5.2773-8.5742 4.5117-13.559-0.76172-4.9805-3.875-9.293-8.3672-11.582-4.5117-2.7734-10.203-2.7734-14.715 0-4.4922 2.2891-7.6055 6.6016-8.3672 11.582-0.76562 4.9844 0.91406 10.027 4.5156 13.559zm11.211 145.89 0.003906 0.003907c-4.2227-0.003907-8.2734 1.6758-11.258 4.6641-2.9805 2.9844-4.6562 7.0352-4.6523 11.258 0.007813 4.2227 1.6914 8.2656 4.6797 11.246 2.9453 3.0391 6.9961 4.7539 11.23 4.7539 4.2305 0 8.2812-1.7148 11.227-4.7539 2.9883-2.9805 4.6719-7.0234 4.6797-11.246 0.003907-4.2227-1.668-8.2734-4.6523-11.258-2.9844-2.9883-7.0352-4.668-11.254-4.6641zm-638.19-143.93 13.922 13.352c0.36719 0.17578 0.74609 0.31641 1.1406 0.41406 0.3125 0.10547 0.58203 0.33594 0.90625 0.32812l0.050781 0.019531c0.69922-0.050781 1.3633-0.31641 1.9062-0.76172l14.305-14.305-0.38281-28.039h-0.019531l0.003906-0.019532-29.07 0.37109-2.7617 0.03125v0.003906l-0.39062 0.003906 0.39062 27.223zm561.11 60.848c-2.6836-2.168-6.0078-3.3789-9.4531-3.4531-1.1484 0.10156-2.2812 0.32812-3.375 0.68359-5.1172 1.0195-9.3789 4.5352-11.348 9.3633-1.1211 2.668-1.457 5.6055-0.96094 8.457 0.49219 2.8516 1.7969 5.5039 3.7539 7.6406 2.9102 3.5781 7.2617 5.6758 11.875 5.7227 2.1406 0 4.2617-0.4375 6.2305-1.2852 3.8242-1.625 6.8711-4.668 8.4961-8.4922 0.85156-1.9727 1.293-4.0938 1.293-6.2422-0.070312-4.9336-2.4883-9.5391-6.5117-12.395zm-443.26-3.8164v-0.046875l-28.516 0.41016-13.41 13.914h-0.003906c-0.91797 0.97266-0.99609 2.4688-0.18359 3.5312 0.089844 0.14844 0.058594 0.37891 0.17578 0.5l14.305 14.305 28.039-0.38281-0.38281-32.234zm-85.996 89.645-10.531-10.102-3.3984-3.2734-0.003906-0.003906c-1.1016-1.0977-2.8867-1.0977-3.9883 0l-12.176 12.191-2.1406 2.1406 0.38281 28.039 32.234-0.38281v-0.058593h0.007812l-0.14062-9.875zm816.96 286.58c-23.371 29.906-60.73 45.34-98.395 40.656-37.664-4.6875-70.098-28.809-85.43-63.531l-33.473-75.68 0.003906 0.003906c-7.1484-15.906-19.395-28.977-34.809-37.133-15.41-8.1602-33.105-10.941-50.277-7.9062 0.52344-3.2891 0.85938-6.6016 1.0039-9.9297 0.074219-26.652-11.801-51.934-32.359-68.898-20.559-16.961-47.641-23.816-73.793-18.684-26.152 5.1367-48.629 21.723-61.25 45.199-12.621 23.477-14.055 51.371-3.9102 76.02-34.828 1.6406-70.434 1.5664-105.23-0.23438 9.9922-24.633 8.4492-52.441-4.2109-75.812-12.664-23.371-35.113-39.855-61.203-44.941-26.09-5.0859-53.086 1.7656-73.598 18.672-20.508 16.906-32.383 42.102-32.371 68.68 0.14844 2.9414 0.44141 5.8711 0.88672 8.7812-17.082-2.9375-34.66-0.10156-49.949 8.0703-15.293 8.168-27.422 21.199-34.477 37.035l-34.066 76.891c-8.3047 19.16-22.121 35.414-39.695 46.695-24.359 15.867-54.09 21.25-82.469 14.93-28.379-6.3242-53.012-23.816-68.336-48.523-15.32-24.711-20.039-54.551-13.086-82.781l82.195-332.61c7.3047-30.023 22.785-57.434 44.723-79.188 21.938-21.758 49.473-37.012 79.555-44.062 60.613-13.973 122.12-23.699 184.09-29.117l10.012 66.125c1.8398 12.234 8.0234 23.395 17.422 31.438 9.3945 8.0469 21.375 12.438 33.742 12.371 0.98828 0 1.957-0.019532 2.9609-0.074219h0.003906c60.438-3.3242 121.02-3.3438 181.46-0.054688 12.781 0.69531 25.363-3.4102 35.277-11.512 9.9141-8.1016 16.441-19.613 18.309-32.277l9.9961-66.012v-0.003906c61.973 5.4219 123.49 15.156 184.11 29.137 30.074 7.0469 57.605 22.289 79.539 44.043 21.93 21.75 37.402 49.152 44.699 79.168l82.234 332.64c8.0469 32.215 0.72266 66.336-19.836 92.406zm-877.41-433.34c-0.015625 7.2539 2.8672 14.215 8.0117 19.336l14.285 14.285c5.8984 5.8789 13.891 9.1836 22.223 9.1836 8.3281 0 16.32-3.3047 22.219-9.1836l14.285-14.285c5.1445-5.1211 8.0273-12.082 8.0117-19.336v-28.926c-0.007812-7.4766-2.9805-14.645-8.2695-19.934-5.2852-5.2852-12.453-8.2617-19.93-8.2656h-32.633c-7.4805 0.003906-14.648 2.9805-19.934 8.2656-5.2891 5.2891-8.2617 12.457-8.2695 19.934zm-9.5547 109.91 14.305-14.305c5.8867-5.8984 9.1914-13.891 9.1914-22.223 0-8.332-3.3047-16.324-9.1914-22.223l-14.305-14.285c-5.1172-5.1406-12.078-8.0234-19.332-8.0078h-28.91c-7.4805 0.003907-14.648 2.9766-19.941 8.2656-5.2891 5.2852-8.2656 12.453-8.2773 19.934v32.652c0.011719 7.4766 2.9883 14.648 8.2773 19.934 5.293 5.2852 12.461 8.2578 19.941 8.2656h28.91c7.2539 0.019532 14.215-2.8633 19.332-8.0078zm98.59 36.879c0.035157-7.2578-2.8516-14.227-8.0117-19.332l-14.285-14.305c-5.8984-5.8867-13.887-9.1953-22.219-9.1953-8.3359 0-16.324 3.3086-22.223 9.1953l-14.25 14.27v-0.003907c-5.1758 5.1133-8.0742 12.098-8.0469 19.371v28.926c0.007813 7.4766 2.9805 14.648 8.2695 19.934 5.2852 5.2891 12.453 8.2617 19.93 8.2695h32.637c7.4766-0.007812 14.645-2.9805 19.93-8.2695 5.2891-5.2852 8.2617-12.457 8.2695-19.934zm86.016-89.723c-0.011718-7.4805-2.9883-14.648-8.2773-19.934-5.293-5.2891-12.461-8.2617-19.941-8.2656h-28.906c-7.2578-0.019531-14.219 2.8633-19.336 8.0078l-14.305 14.285c-5.8867 5.8984-9.1914 13.891-9.1914 22.223 0 8.332 3.3047 16.324 9.1914 22.223l14.305 14.305c5.1172 5.1406 12.078 8.0273 19.336 8.0078h28.906c7.4805-0.007812 14.648-2.9805 19.941-8.2656 5.2891-5.2852 8.2656-12.453 8.2773-19.934zm162.38 10.973c0-7.9023-6.4062-14.305-14.305-14.309h-38.145c-7.9023 0-14.305 6.4062-14.305 14.309 0 7.8984 6.4023 14.305 14.305 14.305h38.148-0.003907c7.8984-0.003906 14.305-6.4062 14.305-14.305zm95.367 0c-0.003906-7.9023-6.4062-14.305-14.305-14.309h-38.148c-7.8984 0-14.305 6.4062-14.305 14.309 0 7.8984 6.4062 14.305 14.305 14.305h38.148c7.8984-0.003906 14.301-6.4062 14.305-14.305zm189.46-81.191v-0.003906c0 11.809 4.6914 23.133 13.039 31.48 8.3477 8.3477 19.672 13.039 31.48 13.039 11.805 0 23.129-4.6914 31.477-13.039 8.3477-8.3477 13.039-19.672 13.039-31.48 0-11.805-4.6914-23.129-13.039-31.477-8.3477-8.3477-19.672-13.039-31.477-13.039-11.805 0.015625-23.117 4.7109-31.461 13.059-8.3438 8.3438-13.039 19.656-13.059 31.461zm2.5156 86.539v-0.003906c-0.003906-11.809-4.6953-23.133-13.047-31.48-8.3516-8.3477-19.676-13.035-31.484-13.035-11.805 0-23.129 4.6914-31.48 13.043-8.3477 8.3477-13.039 19.672-13.039 31.48 0 11.809 4.6875 23.133 13.035 31.484 8.3516 8.3477 19.672 13.043 31.48 13.043 11.809-0.011718 23.129-4.707 31.477-13.055 8.3516-8.3516 13.047-19.672 13.059-31.48zm86.52 86.539v-0.003906c-0.003906-11.809-4.6992-23.129-13.051-31.473s-19.672-13.031-31.48-13.027c-11.805 0.003906-23.125 4.6953-31.473 13.047-8.3438 8.3477-13.031 19.672-13.031 31.477 0.003906 11.805 4.6953 23.129 13.043 31.473 8.3477 8.3477 19.668 13.039 31.477 13.039 11.805-0.011719 23.121-4.7109 31.469-13.059 8.3477-8.3516 13.039-19.672 13.047-31.477zm86.539-86.539-0.003907-0.003906c0-11.809-4.6953-23.133-13.047-31.48-8.3516-8.3516-19.676-13.039-31.488-13.035-11.809 0-23.133 4.6953-31.48 13.047-8.3477 8.3516-13.039 19.68-13.035 31.488 0.003907 11.809 4.6953 23.133 13.047 31.48 8.3516 8.3477 19.68 13.039 31.488 13.035 11.805-0.011718 23.125-4.707 31.473-13.059 8.3438-8.3477 13.039-19.668 13.043-31.477zm-445.77-599.92c13.91 0 27.254-5.5234 37.09-15.363 9.8359-9.8359 15.363-23.176 15.363-37.086 0-13.914-5.5273-27.254-15.363-37.09-9.8359-9.8359-23.18-15.363-37.09-15.363s-27.25 5.5273-37.09 15.363c-9.8359 9.8359-15.363 23.176-15.363 37.09 0.015625 13.906 5.5469 27.238 15.379 37.07 9.8359 9.8359 23.168 15.367 37.074 15.379zm152.59 57.219c13.91 0 27.254-5.5234 37.09-15.359 9.8359-9.8398 15.363-23.18 15.363-37.09s-5.5273-27.254-15.363-37.09c-9.8359-9.8359-23.18-15.363-37.09-15.363-13.91 0-27.25 5.5273-37.09 15.363-9.8359 9.8359-15.359 23.18-15.359 37.09 0.011719 13.906 5.543 27.238 15.375 37.074 9.8359 9.832 23.168 15.363 37.074 15.375zm152.59 76.293v0.003907c13.91 0 27.254-5.5273 37.09-15.363 9.8359-9.8359 15.363-23.18 15.363-37.09s-5.5273-27.254-15.363-37.09c-9.8359-9.8359-23.18-15.363-37.09-15.363-13.91 0-27.25 5.5273-37.09 15.363-9.8359 9.8359-15.359 23.18-15.359 37.09 0.011719 13.906 5.543 27.238 15.375 37.074 9.8359 9.832 23.168 15.363 37.074 15.375zm-610.34 0v0.003907c13.91 0 27.254-5.5273 37.09-15.363 9.8359-9.8359 15.363-23.18 15.363-37.09s-5.5273-27.254-15.363-37.09c-9.8359-9.8359-23.18-15.363-37.09-15.363-13.91 0-27.254 5.5273-37.09 15.363s-15.363 23.18-15.363 37.09c0.015625 13.906 5.5469 27.238 15.379 37.074 9.8359 9.832 23.168 15.363 37.074 15.375zm152.59-76.293c13.91 0 27.254-5.5234 37.09-15.359 9.8359-9.8398 15.363-23.18 15.363-37.09s-5.5273-27.254-15.363-37.09c-9.8359-9.8359-23.18-15.363-37.09-15.363s-27.254 5.5273-37.09 15.363c-9.8359 9.8359-15.363 23.18-15.363 37.09 0.015625 13.906 5.5469 27.238 15.379 37.074 9.8359 9.832 23.168 15.363 37.074 15.375zm166.89 289.72v-319.66c-9.4531 1.7773-19.156 1.7773-28.609 0v319.67c4.7695-0.19141 9.5352-0.19141 14.305-0.19141 4.7695 0 9.5352 0 14.305 0.19141zm-152.59-262.45c-9.4531 1.7812-19.156 1.7812-28.609 0v94.605-0.003906c0.023437 1.8203 0.34375 3.625 0.95312 5.3398l66.566 165.18c10.109-0.57031 20.215-1.1445 30.324-1.5234l-69.234-171.85zm304.22 99.945v-0.003906c0.60938-1.7148 0.93359-3.5195 0.95312-5.3398v-94.602c-9.4531 1.7812-19.156 1.7812-28.609 0v91.742l-69.047 171.85c10.105 0.37891 20.023 0.95312 30.137 1.5234zm-471.11-22.316c-5.3867 0.015625-10.762-0.5625-16.023-1.7188v56.84c-0.070312 3.1953 1.0156 6.3125 3.0547 8.7734l51.879 66.758c10.492-1.7148 21.172-3.4336 31.852-4.9609h0.38281l-58.555-75.531-0.003906-51.305c-4.1523 0.75781-8.3633 1.1406-12.586 1.1445zm569.91 130.46 51.691-66.566h-0.003906c1.957-2.5078 3.0312-5.5938 3.0508-8.7734v-56.457c-9.4531 1.7812-19.156 1.7812-28.609 0v51.5l-58.555 75.336c0.64062-0.03125 1.2852 0.03125 1.9062 0.19141 10.301 1.5273 20.41 3.0508 30.52 4.7695z"/>
</svg>
