<?xml version="1.0" encoding="UTF-8"?>
<svg width="1200pt" height="1200pt" version="1.1" viewBox="0 0 1200 1200" xmlns="http://www.w3.org/2000/svg">
 <path d="m978.75 605.5c0.027344 61.238-14.812 121.57-43.25 175.81-28.438 54.234-69.617 100.76-120 135.57l-2.375-2.125c-25-22.75-89.25-73.875-137.5-56.75l-8.625 3.125c-23.625 9-50 19.125-105 0-36.5-12.5-88.875 8.875-155.75 65l-3.5 2.875c-71.023-43.367-125.8-108.91-155.88-186.5l4.875-6.25c20.875-27 40.375-43.5 56.125-47.75 21-5.625 45.5 19.25 69.25 43.125s50 50 79.125 50h1.375c16.566-1.0352 31.938-8.9688 42.375-21.875 34.625-38.875 56.75-106.12 65.125-152v-2.25h125c-13.098 13.938-18.352 33.5-14 52.125 4.9844 24.504 17.938 46.672 36.84 63.043 18.902 16.371 42.695 26.027 67.66 27.457h6.875c65.5 0 100-70.375 104.25-142v-0.75zm-299 264.25c-26 9.125-56.25 26.375-122.12 2.875-40.5-14.375-102.12 28-143.5 62.5 3.375 1.875 6.875 3.875 10.375 5.625 7 3.875 14.125 7.25 21.375 10.375 24.984 11.105 51.094 19.488 77.875 25 4.668 1 9.418 1.875 14.25 2.625 2.375 0 4.875 0.875 7.375 1.125 4.5 0.75 9.125 1.25 13.625 1.75h3.75l11.75 1c8.375 0 16.875 0.875 25 0.875h10.625 7.5c7 0 13.875-0.5 20.625-1.5h6.5c10.5-1.375 20.875-3 31-5.125 3.875-0.75 7.75-1.625 11.5-2.625 2.6133-0.49219 5.1992-1.1172 7.75-1.875l12.5-3.625c9.125-2.75 18-5.75 26.75-9.125 8.2539-2.7578 16.352-5.9727 24.25-9.625 4-1.75 8-3.75 12.5-5.75l11.75-6.125c7.625-4.25 15.125-8.75 22.5-13.375-34-30.875-88.5-68.125-125.5-55zm8.875-215c4.3477 21.902 15.859 41.738 32.719 56.379s38.109 23.258 60.406 24.496c60.5 3.75 92.5-62.5 96.875-130.12h-171.38c-0.058594 0.625-0.058594 1.25 0 1.875-7.5508 5.0703-13.379 12.316-16.703 20.781-3.3281 8.4648-4 17.738-1.9219 26.594zm-383.88 21.75c64-17.25 121.75 146.88 185.88 75 29.875-33.625 52.625-94.125 62.5-146h-331.88c0 9.75 0 19.5 1.25 29.125v4.75c0 3.875 0.75 7.75 1.25 11.625 0 1.625 0 3.25 0.625 4.875 0 4 1.125 7.875 1.75 12.5v2.375c0.875 5 1.875 10 2.875 14.875 3.1328 14.777 7.3125 29.312 12.5 43.5 20.125-26 42-47 63.25-52.625zm176.5-86.25c-0.066406 0.91406-0.066406 1.8359 0 2.75h237.5c0.066406-0.91406 0.066406-1.8359 0-2.75-3.9648-31.441-20.293-60.004-45.375-79.375-6.6016-4.8672-13.68-9.0547-21.125-12.5-12.445-6.293-25.898-10.355-39.75-12h-12.5-12.5c-13.855 1.4336-27.348 5.2852-39.875 11.375-7.4453 3.4453-14.523 7.6328-21.125 12.5-25.176 19.539-41.477 48.355-45.25 80zm106.25-305.75c8.0391 3.125 16.961 3.125 25 0 10.457-3.9336 18.453-12.562 21.582-23.289 3.125-10.727 1.0234-22.301-5.6836-31.238-6.7031-8.9375-17.227-14.199-28.398-14.199s-21.695 5.2617-28.398 14.199c-6.707 8.9375-8.8086 20.512-5.6836 31.238 3.1289 10.727 11.125 19.355 21.582 23.289zm-248.75 157.25c3.9844 1.543 8.2266 2.3086 12.5 2.25 4.2734 0.046875 8.5117-0.71484 12.5-2.25 6.8203-2.4492 12.711-6.9492 16.875-12.879 4.1641-5.9297 6.3906-13 6.375-20.246 0.046875-8.707-3.1055-17.125-8.8594-23.66-5.7539-6.5312-13.711-10.723-22.352-11.773-8.6406-1.0508-17.371 1.1094-24.523 6.0703-7.1523 4.9609-12.234 12.379-14.273 20.844-2.043 8.4648-0.90234 17.383 3.1992 25.059 4.1055 7.6797 10.887 13.582 19.059 16.586zm122.5-81.25c3.9883 1.5352 8.2266 2.2969 12.5 2.25 4.2734 0.058594 8.5156-0.70703 12.5-2.25 10.457-3.9336 18.453-12.562 21.582-23.289 3.125-10.727 1.0234-22.301-5.6836-31.238-6.7031-8.9375-17.227-14.199-28.398-14.199s-21.695 5.2617-28.398 14.199c-6.707 8.9375-8.8086 20.512-5.6836 31.238 3.1289 10.727 11.125 19.355 21.582 23.289zm25 12.5c-8.168 2.3359-16.832 2.3359-25 0v70.5c-0.019531 3.4453 1.3789 6.7461 3.875 9.125l52.625 49.125c6.625-5.4531 13.836-10.148 21.5-14l-53-50zm-135 83c-4.2266-0.003906-8.4336-0.59375-12.5-1.75v47c0.015625 3.8047 1.7656 7.3906 4.75 9.75l101.62 82h23.375c0-4 1-7.875 1.75-11.75l-106.5-85.75v-40.75c-4.1445 1.1797-8.4375 1.7695-12.75 1.75zm236.25-158.5v176.25h12.5 12.5v-176.25c-8.168 2.3359-16.832 2.3359-25 0zm249.25 144.25c3.9883 1.5352 8.2266 2.2969 12.5 2.25 4.2734 0.058594 8.5156-0.70703 12.5-2.25 10.457-3.9336 18.453-12.562 21.582-23.289 3.125-10.727 1.0234-22.301-5.6836-31.238-6.7031-8.9375-17.227-14.199-28.398-14.199s-21.695 5.2617-28.398 14.199c-6.707 8.9375-8.8086 20.512-5.6836 31.238 3.1289 10.727 11.125 19.355 21.582 23.289zm-122.5-81.25c3.9844 1.543 8.2266 2.3086 12.5 2.25 4.2734 0.046875 8.5117-0.71484 12.5-2.25 10.41-3.9336 18.363-12.535 21.469-23.223 3.1055-10.684 1.0039-22.211-5.6797-31.109-6.6797-8.8984-17.16-14.137-28.289-14.137s-21.609 5.2383-28.289 14.137c-6.6836 8.8984-8.7852 20.426-5.6797 31.109 3.1055 10.688 11.059 19.289 21.469 23.223zm20.875 92.625c2.4961-2.3789 3.8945-5.6797 3.875-9.125v-70.5c-8.168 2.3359-16.832 2.3359-25 0v65.125l-53 50c7.6641 3.8516 14.875 8.5469 21.5 14zm121.62 57.875c2.9844-2.3594 4.7344-5.9453 4.75-9.75v-46.5c-8.168 2.3359-16.832 2.3359-25 0v40.625l-106.5 85.75c0.75 3.875 1.25 7.75 1.75 11.75h23.375z"/>
</svg>
