<?xml version="1.0" encoding="UTF-8"?>
<svg version="1.1" viewBox="0 0 1200 1200" xmlns="http://www.w3.org/2000/svg">
 <defs>
  <clipPath id="a">
   <path d="m222.14 222.14h755.71v755.71h-755.71z"/>
  </clipPath>
 </defs>
 <g clip-path="url(#a)">
  <path d="m600 222.14c101.55 0 196.81 40.293 267.19 110.67 12.695 12.695 24.457 26.258 35.195 40.566l-0.09375-75.668c0-19.375 14.586-35.348 33.379-37.531l4.4062-0.25391c19.375 0 35.348 14.586 37.531 33.379l0.25391 4.4062v188.93c0 19.379-14.586 35.348-33.379 37.531l-4.4062 0.25391h-188.93c-20.867 0-37.785-16.918-37.785-37.785 0-19.379 14.586-35.348 33.379-37.531l4.4062-0.25391 110.71 0.007813c-13.207-22.828-29.383-43.887-48.109-62.613-56.348-56.348-132.45-88.539-213.75-88.539-166.95 0-302.29 135.34-302.29 302.29 0 166.95 135.34 302.29 302.29 302.29 81.297 0 157.4-32.191 213.75-88.539 28.074-28.074 50.414-61.391 65.617-98.051 7.5586-18.227 13.312-37.188 17.168-56.664 4.0469-20.473 23.926-33.785 44.398-29.734s33.785 23.93 29.734 44.398c-4.8242 24.383-12.031 48.125-21.492 70.945-19.016 45.852-46.934 87.484-81.988 122.54-70.379 70.379-165.64 110.67-267.19 110.67-208.68 0-377.86-169.17-377.86-377.86 0-208.68 169.17-377.86 377.86-377.86z"/>
 </g>
</svg>
