<?xml version="1.0" encoding="UTF-8"?>
<svg width="1200pt" height="1200pt" version="1.1" viewBox="0 0 1200 1200" xmlns="http://www.w3.org/2000/svg">
 <path d="m600 244.8h-186l103.2-96c13.199-12 21.602-30 21.602-48 1.1992-18-6-36-18-49.199-24-27.602-69.602-28.801-97.199-3.6016l-232.8 214.8c-14.398 13.199-21.602 31.199-21.602 50.398s8.3984 37.199 21.602 50.398l232.8 214.8c27.602 26.398 72 24 97.199-3.6016 26.398-27.602 24-72-3.6016-97.199l-103.2-96 186 0.003906c178.8 0 325.2 146.4 325.2 325.2s-146.4 325.2-325.2 325.2-325.2-145.2-325.2-325.2v-63.602c0-38.398-31.199-68.398-68.398-68.398-37.199 0-68.398 31.199-68.398 68.398v63.602c0 255.6 207.6 463.2 463.2 463.2 255.6 0 463.2-207.6 463.2-463.2-0.003906-255.6-208.8-462-464.4-462z"/>
</svg>
