<?xml version="1.0" encoding="UTF-8"?>
<svg width="1200pt" height="1200pt" version="1.1" viewBox="0 0 1200 1200" xmlns="http://www.w3.org/2000/svg">
 <path d="m250 100c-82.844 0-150 67.156-150 150v700c0 82.844 67.156 150 150 150h700c82.844 0 150-67.156 150-150v-546.48c0-50.152-25.066-96.988-66.797-124.81l-230.28-153.52c-24.641-16.426-53.59-25.191-83.207-25.191zm150 350c-55.227 0-100-44.773-100-100v-150h450v150c0 55.227-44.77 100-100 100zm50 300c0-82.844 67.156-150 150-150s150 67.156 150 150-67.156 150-150 150-150-67.156-150-150z" fill-rule="evenodd"/>
</svg>
