<?xml version="1.0" encoding="UTF-8"?>
<svg width="1200pt" height="1200pt" version="1.1" viewBox="0 0 1200 1200" xmlns="http://www.w3.org/2000/svg">
 <path d="m269.38 292.9c-12.922 0.042968-23.523 10.691-23.523 23.613v0.13672 566.74c0.050782 12.887 10.641 23.477 23.523 23.527h661.25c12.887-0.050781 23.477-10.641 23.527-23.527v-566.74-0.13672c0-12.922-10.605-23.57-23.527-23.613zm23.527 47.273h614.2v519.7h-614.2zm118.03 117.85h-0.20703c-12.953 0-23.613 10.66-23.613 23.613 0 7.1484 3.25 13.93 8.832 18.41l119.97 100.04-119.97 99.902c-5.9375 4.4648-9.4375 11.461-9.4375 18.883 0 12.953 10.66 23.613 23.613 23.613 5.9258 0 11.629-2.2305 15.992-6.2344l141.74-118.04c5.4414-4.4805 8.5977-11.172 8.5977-18.219 0-7.043-3.1562-13.734-8.5977-18.215l-141.74-118.04c-4.2266-3.6367-9.6055-5.6602-15.18-5.7188zm236.21 236.39c-0.17578 0-0.35156-0.007813-0.52734-0.007813-12.957 0-23.625 10.668-23.625 23.629 0 12.957 10.668 23.617 23.625 23.617 0.17578 0 0.35156 0 0.52734-0.007812h141.74c0.17188 0.007812 0.34766 0.007812 0.52344 0.007812 12.961 0 23.625-10.66 23.625-23.617 0-12.961-10.664-23.629-23.625-23.629-0.17578 0-0.35156 0.007813-0.52344 0.007813z" fill-rule="evenodd"/>
</svg>
