<?xml version="1.0" encoding="UTF-8"?>
<svg width="1200pt" height="1200pt" version="1.1" viewBox="0 0 1200 1200" xmlns="http://www.w3.org/2000/svg">
 <defs>
  <clipPath id="a">
   <path d="m222.14 631h755.71v190h-755.71z"/>
  </clipPath>
 </defs>
 <path d="m421.79 379.7c-58.531 2.6289-105.18 50.914-105.18 110.09 0 60.867 49.34 110.21 110.21 110.21 18.652 0 36.223-4.6328 51.621-12.809-41.191-34.656-67.363-86.586-67.363-144.63 0-22.039 3.7734-43.199 10.711-62.863zm299.78 207.49c15.398 8.1758 32.969 12.809 51.621 12.809 60.863 0 110.21-49.34 110.21-110.21 0-59.18-46.645-107.46-105.18-110.09 6.9375 19.664 10.711 40.824 10.711 62.863 0 58.043-26.172 109.97-67.363 144.63z"/>
 <g clip-path="url(#a)">
  <path d="m380.66 631.49h-16.824c-78.254 0-141.7 63.441-141.7 141.7v31.488c0 8.6953 7.0508 15.742 15.742 15.742h47.234v-15.742c0-72.922 38.133-136.93 95.543-173.19zm438.67 0h16.828c78.254 0 141.7 63.441 141.7 141.7v31.488c0 8.6953-7.0508 15.742-15.746 15.742h-47.23v-15.742c0-72.922-38.133-136.93-95.547-173.19z"/>
 </g>
 <path d="m600 600c86.953 0 157.44-70.488 157.44-157.44 0-86.953-70.488-157.44-157.44-157.44-86.949 0-157.44 70.488-157.44 157.44 0 86.949 70.488 157.44 157.44 157.44z" fill-rule="evenodd"/>
 <path d="m316.61 804.68v94.461c0 8.6953 7.0469 15.746 15.742 15.746h535.3c8.6914 0 15.742-7.0508 15.742-15.746v-94.461c0-95.648-77.539-173.19-173.18-173.19h-220.42c-95.648 0-173.18 77.539-173.18 173.19z" fill-rule="evenodd"/>
</svg>
