<?xml version="1.0" encoding="UTF-8"?>
<svg width="1200pt" height="1200pt" version="1.1" viewBox="0 0 1200 1200" xmlns="http://www.w3.org/2000/svg">
 <g>
  <path d="m485.81 497.09c90.73 0 164.53-73.812 164.53-164.54 0-90.734-73.812-164.55-164.53-164.55s-164.54 73.812-164.54 164.54c0 90.734 73.809 164.55 164.54 164.55z"/>
  <path d="m1011.9 787.45c-1.0078-5.7461-6-9.9258-11.82-9.9258h-25.164c-4.0078-14.977-9.8984-29.195-17.629-42.469l17.785-17.773c4.1289-4.1289 4.6914-10.621 1.3203-15.383-13.859-19.703-30.758-36.551-50.23-50.074-4.7773-3.3125-11.258-2.7227-15.348 1.3906l-17.641 17.746c-13.273-7.7266-27.48-13.621-42.445-17.605v-25.164c0-5.8203-4.1875-10.801-9.9258-11.82-22.031-3.875-45.695-4.0938-70.645-0.023438-5.7969 0.94922-10.066 5.9648-10.066 11.844v25.246c-14.797 3.8867-28.906 9.7188-42.156 17.375l-17.664-17.652c-4.1289-4.1289-10.609-4.6914-15.383-1.332-19.5 13.715-36.383 30.602-50.195 50.172-3.3477 4.7656-2.7969 11.27 1.332 15.395l17.688 17.688c-7.6797 13.309-13.535 27.527-17.496 42.422h-25.164c-5.8203 0-10.801 4.1875-11.82 9.9102-2.0039 11.352-2.9766 22.883-2.9766 35.258 0 11.484 0.99609 23.398 2.9531 35.398 0.94922 5.8086 5.9648 10.078 11.844 10.078h25.246c3.8867 14.746 9.7578 28.922 17.52 42.289l-17.652 17.652c-4.1172 4.1289-4.6914 10.609-1.3438 15.371 13.68 19.488 30.469 36.277 49.922 49.922 4.7656 3.3242 11.258 2.7734 15.371-1.3438l17.652-17.652c13.379 7.7656 27.551 13.645 42.301 17.52v25.246c0 5.8789 4.2617 10.895 10.066 11.844 12.086 2.0039 23.988 3 35.449 3 12.301 0 23.832-0.97266 35.242-2.9766 5.7461-1.0195 9.9258-6 9.9258-11.82v-25.164c14.902-3.9609 29.113-9.8281 42.434-17.508l17.676 17.699c4.1289 4.1289 10.633 4.7148 15.395 1.3203 19.535-13.754 36.422-30.648 50.16-50.184 3.3594-4.7656 2.7969-11.258-1.3203-15.383l-17.652-17.664c7.668-13.223 13.477-27.324 17.375-42.145h25.262c5.8789 0 10.895-4.2617 11.844-10.078 1.957-12.047 2.9531-23.965 2.9531-35.398-0.003906-12.293-0.97266-23.824-2.9766-35.246zm-133.91 35.254c0 9.4688-1.7148 18.383-5.1016 26.508-0.23828 0.55078-0.40625 1.1055-0.5625 1.6797-0.085937 0.17969-0.17969 0.35938-0.25391 0.55078-7.2461 16.801-21.121 30.625-37.668 37.871-0.79297 0.15625-1.5703 0.38281-2.3164 0.69531-16.262 6.7695-35.676 7.1758-54.254-0.42188l-0.96875-0.39062c-16.754-7.2461-30.527-21.012-37.586-37.285l-0.98438-2.4844c-3.4062-8.3164-5.1367-17.305-5.1367-26.723 0-9.4453 1.7266-18.359 5.1133-26.52 0.30078-0.75781 0.51562-1.1289 0.67188-1.9219 7.2852-16.957 21.109-30.816 37.895-38.027 0.23828-0.097656 0.45703-0.20312 0.68359-0.3125 0.51562-0.14453 1.0312-0.3125 1.5352-0.51562 16.262-6.7578 36.516-6.8164 53.258 0.023438 0.40625 0.16797 0.82813 0.3125 1.2461 0.43359 0.023438 0.011718 0.16797 0.085937 0.48047 0.23828 16.824 7.1758 30.637 20.891 38.352 38.555 0.13281 0.45703 0.27734 0.89844 0.46875 1.3438 3.4023 8.2734 5.1289 17.262 5.1289 26.703z"/>
  <path d="m573.55 822.76c0-81.023 41.172-154.88 110.14-197.58 3.2266-2.0039 5.3164-5.3984 5.6406-9.1797s-1.1523-7.5-3.9961-10.008c-55.043-48.816-125.89-75.707-199.5-75.707-165.83 0-300.74 134.9-300.74 300.74 0 6.6367 5.375 12 12 12h364.68 0.23828c6.625 0 12-5.3633 12-12 0-1.0547-0.13281-2.0898-0.39453-3.0703-0.0625-1.7109-0.0625-3.4375-0.0625-5.1992z"/>
 </g>
</svg>
