<?xml version="1.0" encoding="UTF-8"?>
<svg width="512pt" height="512pt" version="1.1" viewBox="0 0 512 512" xmlns="http://www.w3.org/2000/svg">
 <path d="m443.7 165.26h-375.39c-9.4336 0-17.105 7.6719-17.105 17.105v147.27c0 9.4336 7.6719 17.105 17.105 17.105h143.51c7.8906-17.383 25.238-28.508 44.184-28.508s36.293 11.125 44.191 28.348l143.5 0.16016c9.4336 0 17.105-7.6758 17.105-17.105v-147.27c0-9.4297-7.6719-17.105-17.105-17.105zm-300.4 138.72c-26.516 0-47.945-21.492-47.945-47.945 0-5.7227 1.0156-11.191 2.8594-16.215 6.6133-18.566 24.293-31.793 45.086-31.793s38.473 13.227 45.086 31.793c1.8438 5.0234 2.8594 10.492 2.8594 16.215 0 26.453-21.43 47.945-47.945 47.945zm225.41 0c-26.516 0-47.945-21.492-47.945-47.945 0-5.7227 1.0156-11.191 2.8594-16.215 6.6133-18.566 24.293-31.793 45.086-31.793s38.473 13.227 45.086 31.793c1.8438 5.0234 2.8594 10.492 2.8594 16.215 0 26.453-21.43 47.945-47.945 47.945z"/>
</svg>
